<svg width="685" height="346" viewBox="0 0 685 346" fill="none" xmlns="http://www.w3.org/2000/svg">
<path d="M257.794 215.599H354.496V180.724H433.803V216.296H685V221.489C685 261.025 685 346 685 346H679.689C679.689 346 632.188 346 608.29 346H603.368V308.588H0V179.686H46.5336V215.493H213.031V180.571H257.794V215.599ZM674.178 226.988H627.349C627.349 226.988 631.303 226.988 624.706 226.988C616.551 226.988 612.762 229.75 612.762 241.151C612.762 255.714 612.68 269.877 612.68 284.488C612.68 294.661 618.321 299.099 627.208 299.099C634.843 299.099 649.749 298.981 649.749 298.981V319.209H614.179V335.189C630.913 335.189 647.223 335.189 663.627 335.189C671.346 335.189 674.154 332.38 674.166 324.567C674.166 306.581 674.166 288.595 674.166 270.609L674.178 226.988ZM399.791 298.013H404.417H450.443C457.206 298.013 460.982 294.236 460.982 287.391C460.982 270.727 460.982 254.062 460.982 237.398C460.982 230.907 457.123 227 450.703 226.988C441.899 226.988 433.095 226.988 423.736 226.988V190.921H399.791V298.013ZM34.732 226.044C34.732 215.068 34.732 194.344 34.732 194.344V189.741C34.732 189.741 20.5701 189.741 15.4719 189.741C11.1288 189.741 9.93686 191.382 9.94867 195.524C10.1021 228.416 9.94867 294.071 9.94867 294.071V297.612C9.94867 297.612 45.8255 297.801 63.0559 297.612C68.3194 297.553 70.5263 294.838 70.5381 289.15C70.5381 271.305 70.5381 252.882 70.5381 235.037C70.5381 229.361 67.2691 226.091 61.5807 226.056C52.7295 226.009 44.2913 226.044 34.732 226.044ZM247.527 274.598L260.143 297.989H283.156L266.633 261.616C266.633 261.616 276.334 243.665 279.91 235.769C281.09 233.09 279.91 235.769 283.746 226.8C277.361 226.8 265.796 226.858 265.796 226.858L260.733 226.8L247.491 250.634V249.613V247.854C247.491 230.305 247.491 195.217 247.491 195.217V189.812H223.569V297.694H247.527V274.598ZM142.315 271.458C142.315 258.7 142.398 246.674 142.315 234.553C142.315 230.517 137.736 226.103 133.7 226.08C118.807 225.962 103.909 225.962 89.0076 226.08C84.523 226.08 80.0738 230.635 80.062 235.167C79.9912 253.165 79.9676 271.151 80.062 289.15C80.062 294.838 83.6025 297.977 89.1611 298.001C102.438 298.001 142.315 298.202 142.315 298.202V281.679H105.235V271.517H105.79L142.315 271.458ZM354.744 272.426C354.744 259.527 354.886 247.182 354.673 234.825C354.603 231.048 349.776 227.024 345.905 227C331.153 226.945 316.401 226.945 301.649 227C300.549 226.959 299.452 227.148 298.429 227.555C297.406 227.961 296.478 228.577 295.707 229.362C294.935 230.147 294.335 231.085 293.946 232.115C293.557 233.145 293.387 234.245 293.447 235.344C293.4 252.906 293.4 270.463 293.447 288.017C293.377 289.33 293.582 290.644 294.049 291.873C294.516 293.103 295.234 294.221 296.159 295.157C297.083 296.092 298.193 296.824 299.417 297.306C300.641 297.788 301.952 298.008 303.266 297.954C317.428 298.056 345.751 297.954 345.751 297.954H351.605H354.744V282.269L319.67 281.785V272.414L354.744 272.426ZM530.8 281.679L495.75 281.655V272.214H530.8C530.8 260.412 530.8 248.916 530.8 237.457C530.8 230.553 527.26 227.012 520.179 227H480.821C474.129 227 470.447 230.6 470.435 237.209C470.435 253.865 470.435 270.518 470.435 287.167C470.435 295.428 473.976 298.969 482.449 298.969C493.649 298.969 530.8 299.016 530.8 299.016V281.679ZM189.121 243.311V297.694L213.101 297.753V296.29C213.101 296.29 213.219 255.903 213.101 235.71C213.101 230.918 207.531 226.056 202.48 226.044C187.736 226.044 151.839 226.08 151.839 226.08V232.559V294.472V297.694H177.036V243.311H189.121ZM390.066 297.848V296.113L390.161 194.438V190.591H365V196.291V293.552V297.848H390.066ZM567.173 244.089C569.156 244.089 578.337 244.089 578.337 244.089V253.755H582.067H598.86H602.601C602.601 253.755 602.601 241.368 602.601 236.942C602.601 232.304 597.468 227.047 592.169 227.047C576.555 227.047 545.328 226.977 545.328 226.977H541.021V299.016H560.493H567.173V244.089Z" fill="#00478A"/>
<path d="M637.982 281.608V244.078L649.713 244.078V281.608H637.982Z" fill="#00478A"/>
<path d="M435.797 281.738H424.881L424.881 243.322H435.797V252.658V281.738Z" fill="#00478A"/>
<path d="M34.3311 243.322H46.3451V249.695V281.962H38.7213H34.3313L34.3311 243.322Z" fill="#00478A"/>
<path d="M105.317 252.375V243.476H116.824V252.375H105.317Z" fill="#00478A"/>
<path d="M330.433 243.122V253.507H318.537V246.391V243.122H330.433Z" fill="#00478A"/>
<path d="M495.607 253.543L495.607 243.322H507.551V248.61V253.543H495.607Z" fill="#00478A"/>
<path d="M264.804 0H417.752V154.193H264.804V0ZM272.321 146.345H410.164V7.84834H272.321V146.345Z" fill="#00478A"/>
<path d="M399.354 136.219L280.052 16.9124H399.354V136.219Z" fill="#D10A10"/>
</svg>
