<svg width="1549" height="546" viewBox="0 0 1549 546" fill="none" xmlns="http://www.w3.org/2000/svg">
<g clip-path="url(#clip0_46_3)">
<path d="M355.022 543.204C347.931 541.342 342.174 538.873 337.744 535.763L346.38 516.368C350.542 519.105 355.368 521.32 360.865 523.013C366.354 524.692 371.758 525.539 377.073 525.539C387.172 525.539 392.22 523.013 392.22 517.957C392.22 515.304 390.781 513.329 387.903 512.05C385.026 510.761 380.396 509.412 374.023 507.987C367.023 506.485 361.175 504.868 356.48 503.133C351.782 501.412 347.751 498.646 344.388 494.831C341.025 491.021 339.341 485.885 339.341 479.423C339.341 473.743 340.89 468.629 343.99 464.072C347.094 459.501 351.72 455.894 357.874 453.236C364.027 450.583 371.582 449.248 380.528 449.248C386.639 449.248 392.669 449.934 398.599 451.308C404.535 452.685 409.76 454.703 414.28 457.356L406.174 476.897C397.315 472.106 388.722 469.715 380.396 469.715C375.171 469.715 371.36 470.492 368.967 472.044C366.578 473.588 365.381 475.614 365.381 478.088C365.381 480.572 366.797 482.434 369.636 483.67C372.468 484.917 377.03 486.196 383.319 487.528C390.403 489.032 396.274 490.654 400.923 492.376C405.579 494.103 409.605 496.849 413.016 500.621C416.426 504.383 418.134 509.496 418.134 515.967C418.134 521.546 416.582 526.592 413.484 531.121C410.377 535.636 405.731 539.24 399.53 541.949C393.326 544.652 385.799 545.998 376.945 545.998C369.412 545.998 362.105 545.075 355.022 543.204Z" fill="#D10A10"/>
<path d="M484.831 506.66L472.875 476.897L460.918 506.66H484.831ZM492.538 526.069H453.207L445.9 544.144H419.064L460.117 451.11H486.03L527.218 544.144H499.845L492.538 526.069Z" fill="#D10A10"/>
<path d="M543.36 534.705C535.698 527.176 531.866 516.495 531.866 502.676V451.11H558.175V501.886C558.175 516.763 564.065 524.207 575.844 524.207C587.541 524.207 593.384 516.763 593.384 501.886V451.11H619.295V502.676C619.295 516.495 615.463 527.176 607.807 534.705C600.139 542.239 589.4 545.998 575.582 545.998C561.764 545.998 551.023 542.239 543.36 534.705Z" fill="#D10A10"/>
<path d="M699.417 495.635H722.673V534.174C717.352 537.978 711.241 540.904 704.334 542.945C697.425 544.982 690.515 545.998 683.603 545.998C673.859 545.998 665.09 543.938 657.298 539.826C649.5 535.706 643.389 529.97 638.96 522.613C634.531 515.262 632.315 506.928 632.315 497.625C632.315 488.326 634.531 479.993 638.96 472.636C643.389 465.286 649.548 459.548 657.434 455.428C665.313 451.308 674.214 449.248 684.137 449.248C692.818 449.248 700.616 450.71 707.522 453.637C714.429 456.557 720.187 460.762 724.796 466.259L708.053 481.413C701.761 474.499 694.237 471.048 685.465 471.048C677.49 471.048 671.069 473.46 666.199 478.286C661.329 483.111 658.889 489.56 658.889 497.625C658.889 502.766 659.995 507.352 662.21 511.381C664.424 515.417 667.528 518.555 671.515 520.812C675.498 523.07 680.063 524.207 685.2 524.207C690.247 524.207 694.987 523.183 699.417 521.151V495.635Z" fill="#D10A10"/>
<path d="M801.33 515.699C801.33 509.411 796.714 506.259 787.506 506.259H765.456V525.138H787.506C796.714 525.138 801.33 521.991 801.33 515.699ZM765.456 470.11V488.058H783.519C792.388 488.058 796.816 485.044 796.816 479.019C796.816 473.087 792.388 470.11 783.519 470.11H765.456ZM823.394 504.34C826.399 508.277 827.908 513.046 827.908 518.625C827.908 526.775 824.622 533.068 818.064 537.498C811.513 541.928 802.037 544.144 789.637 544.144H739.404V451.11H786.979C798.845 451.11 807.888 453.297 814.085 457.685C820.281 462.073 823.394 467.994 823.394 475.43C823.394 479.86 822.296 483.825 820.122 487.33C817.956 490.823 814.886 493.594 810.899 495.635C816.208 497.497 820.375 500.395 823.394 504.34Z" fill="#D10A10"/>
<path d="M896.207 506.66L884.246 476.897L872.286 506.66H896.207ZM903.906 526.069H864.579L857.277 544.144H830.432L871.491 451.11H897.398L938.588 544.144H911.222L903.906 526.069Z" fill="#D10A10"/>
<path d="M1007.01 495.635H1030.26V534.174C1024.95 537.978 1018.83 540.904 1011.92 542.945C1005.02 544.982 998.113 545.998 991.201 545.998C981.458 545.998 972.683 543.938 964.89 539.826C957.097 535.706 950.986 529.97 946.552 522.613C942.124 515.262 939.907 506.928 939.907 497.625C939.907 488.326 942.124 479.993 946.552 472.636C950.986 465.286 957.14 459.548 965.02 455.428C972.914 451.308 981.812 449.248 991.736 449.248C1000.41 449.248 1008.2 450.71 1015.11 453.637C1022.03 456.557 1027.78 460.762 1032.39 466.259L1015.65 481.413C1009.36 474.499 1001.83 471.048 993.057 471.048C985.091 471.048 978.663 473.46 973.795 478.286C968.92 483.111 966.486 489.56 966.486 497.625C966.486 502.766 967.591 507.352 969.808 511.381C972.026 515.417 975.124 518.555 979.104 520.812C983.09 523.07 987.662 524.207 992.797 524.207C997.846 524.207 1002.58 523.183 1007.01 521.151V495.635Z" fill="#D10A10"/>
<path d="M1109.32 495.635H1132.57V534.174C1127.26 537.978 1121.14 540.904 1114.23 542.945C1107.33 544.982 1100.42 545.998 1093.51 545.998C1083.76 545.998 1074.99 543.938 1067.2 539.826C1059.4 535.706 1053.29 529.97 1048.86 522.613C1044.43 515.262 1042.21 506.928 1042.21 497.625C1042.21 488.326 1044.43 479.993 1048.86 472.636C1053.29 465.286 1059.45 459.548 1067.33 455.428C1075.22 451.308 1084.12 449.248 1094.04 449.248C1102.72 449.248 1110.51 450.71 1117.42 453.637C1124.33 456.557 1130.09 460.762 1134.7 466.259L1117.95 481.413C1111.66 474.499 1104.14 471.048 1095.37 471.048C1087.4 471.048 1080.98 473.46 1076.1 478.286C1071.23 483.111 1068.79 489.56 1068.79 497.625C1068.79 502.766 1069.9 507.352 1072.11 511.381C1074.33 515.417 1077.43 518.555 1081.41 520.812C1085.4 523.07 1089.97 524.207 1095.11 524.207C1100.15 524.207 1104.89 523.183 1109.32 521.151V495.635Z" fill="#D10A10"/>
<path d="M1223.99 523.803V544.144H1149.31V451.11H1222.26V471.442H1175.36V487.127H1216.68V506.795H1175.36V523.803H1223.99Z" fill="#D10A10"/>
<path d="M1291.75 475.43C1289.01 473.037 1284.93 471.837 1279.53 471.837H1264.9V499.083H1279.53C1284.93 499.083 1289.01 497.912 1291.75 495.564C1294.49 493.222 1295.86 489.869 1295.86 485.532C1295.86 481.192 1294.49 477.82 1291.75 475.43ZM1279.26 519.423H1264.9V544.144H1238.6V451.11H1281.12C1289.54 451.11 1296.84 452.501 1303.05 455.295C1309.24 458.081 1314.02 462.073 1317.4 467.252C1320.76 472.439 1322.44 478.525 1322.44 485.532C1322.44 492.268 1320.86 498.138 1317.73 503.133C1314.57 508.15 1310.09 512.064 1304.24 514.9L1324.3 544.144H1296.13L1279.26 519.423Z" fill="#D10A10"/>
<path d="M38.3975 532.579C45.9246 532.579 52.5462 531.12 58.2593 528.191C63.9723 525.271 68.382 521.165 71.4826 515.896C74.5863 510.633 76.1319 504.538 76.1319 497.624C76.1319 490.71 74.5863 484.621 71.4826 479.352C68.382 474.081 63.9723 469.983 58.2593 467.054C52.5462 464.134 45.9246 462.666 38.3975 462.666H13.2853V532.579H38.3975ZM0 451.11H39.1959C49.0281 451.11 57.7486 453.058 65.3689 456.96C72.9865 460.86 78.8996 466.329 83.1088 473.37C87.313 480.416 89.4205 488.495 89.4205 497.624C89.4205 506.753 87.313 514.838 83.1088 521.879C78.8996 528.919 72.9865 534.399 65.3689 538.294C57.7486 542.196 49.0281 544.144 39.1959 544.144H0V451.11Z" fill="#00478A"/>
<path d="M177.245 532.579V544.144H109.749V451.11H175.383V462.666H123.038V491.247H169.67V502.54H123.038V532.579H177.245Z" fill="#00478A"/>
<path d="M253.907 499.083C258.336 495.451 260.545 490.273 260.545 483.543C260.545 476.804 258.336 471.64 253.907 468.051C249.477 464.467 243.05 462.666 234.64 462.666H212.053V504.538H234.64C243.05 504.538 249.477 502.723 253.907 499.083ZM260.951 544.144L240.886 515.572C238.404 515.741 236.457 515.831 235.038 515.831H212.053V544.144H198.768V451.11H235.038C247.084 451.11 256.564 453.989 263.474 459.746C270.383 465.511 273.836 473.432 273.836 483.543C273.836 490.71 272.061 496.826 268.523 501.885C264.977 506.928 259.93 510.605 253.376 512.905L275.433 544.144H260.951Z" fill="#00478A"/>
<path d="M290.314 491.649H326.054V502.677H290.314V491.649Z" fill="#00478A"/>
<path d="M1336.39 542.353C1334.62 540.617 1333.74 538.43 1333.74 535.763C1333.74 533.195 1334.62 531.051 1336.39 529.321C1338.16 527.599 1340.29 526.733 1342.77 526.733C1345.25 526.733 1347.33 527.571 1349.02 529.259C1350.69 530.938 1351.54 533.111 1351.54 535.763C1351.54 538.43 1350.67 540.617 1348.95 542.353C1347.23 544.074 1345.17 544.935 1342.77 544.935C1340.29 544.935 1338.16 544.074 1336.39 542.353Z" fill="#00478A"/>
<path d="M1410.14 532.579C1417.67 532.579 1424.29 531.12 1430 528.191C1435.72 525.271 1440.12 521.165 1443.22 515.896C1446.33 510.633 1447.87 504.538 1447.87 497.624C1447.87 490.71 1446.33 484.621 1443.22 479.352C1440.12 474.081 1435.72 469.983 1430 467.054C1424.29 464.134 1417.67 462.666 1410.14 462.666H1385.02V532.579H1410.14ZM1371.74 451.11H1410.94C1420.77 451.11 1429.48 453.058 1437.11 456.96C1444.72 460.86 1450.64 466.329 1454.84 473.37C1459.05 480.416 1461.15 488.495 1461.15 497.624C1461.15 506.753 1459.05 514.838 1454.84 521.879C1450.64 528.919 1444.72 534.399 1437.11 538.294C1429.48 542.196 1420.77 544.144 1410.94 544.144H1371.74V451.11Z" fill="#00478A"/>
<path d="M1548.98 532.579V544.144H1481.49V451.11H1547.13V462.666H1494.78V491.247H1541.41V502.54H1494.78V532.579H1548.98Z" fill="#00478A"/>
<path d="M998.808 165.207L909.177 101.308V145.27H650.157C634.23 145.27 619.348 137.1 611.053 123.508C586.655 83.5292 547.197 4.25299 477.666 0.254425C410.466 -3.60327 361.198 33.0787 361.198 82.8067L361.193 339.074C361.193 346.29 367.041 352.132 374.253 352.132H393.156C400.423 352.132 406.297 346.228 406.212 338.962C405.715 295.82 405.129 165.631 405.129 109.829C405.129 95.8275 406.094 40.2609 477.861 43.8109C515.136 45.6559 547.061 105.986 574.964 149.975C590.703 174.782 618.087 189.685 647.465 189.685H909.177V230.854L998.808 165.207Z" fill="#D10A10"/>
<path d="M612.361 307.672C612.361 332.232 592.461 352.132 567.907 352.132C543.359 352.132 523.455 332.232 523.455 307.672C523.455 283.118 543.359 263.21 567.907 263.21C592.461 263.21 612.361 283.118 612.361 307.672Z" fill="#00478A"/>
<path d="M726.382 307.672C726.382 332.232 706.484 352.132 681.936 352.132C657.382 352.132 637.484 332.232 637.484 307.672C637.484 283.118 657.382 263.21 681.936 263.21C706.484 263.21 726.382 283.118 726.382 307.672Z" fill="#00478A"/>
<path d="M840.414 307.672C840.414 332.232 820.516 352.132 795.967 352.132C771.418 352.132 751.513 332.232 751.513 307.672C751.513 283.118 771.418 263.21 795.967 263.21C820.516 263.21 840.414 283.118 840.414 307.672Z" fill="#00478A"/>
<path d="M1163.62 307.672C1163.62 332.232 1143.72 352.132 1119.17 352.132C1094.62 352.132 1074.71 332.232 1074.71 307.672C1074.71 283.118 1094.62 263.21 1119.17 263.21C1143.72 263.21 1163.62 283.118 1163.62 307.672Z" fill="#00478A"/>
<path d="M1168.05 155.34L1087.1 135.383C1079.43 133.492 1078.12 114.732 1078.12 106.822V72.1545C1078.12 72.1545 1137.65 67.1287 1155.21 83.2985C1172.43 99.1548 1168.05 155.34 1168.05 155.34ZM1104 29.3349H1045.95V-0.021759L527.17 0.0374756C567.906 11.6777 622.041 112.449 632.854 121.885C644.664 132.183 743.261 128.652 743.261 128.652L893.3 128.478V69.6745L1026.17 164.601L893.3 263.786L892.73 206.055L743.261 206.781C683.288 205.511 602.196 220.221 572.942 176.055C556.449 151.155 511.292 76.0859 499.499 67.1598C494.482 63.3613 488.109 61.4202 482.01 60.4659V307.673H508.879C508.879 275.065 535.306 248.632 567.906 248.632H795.963C828.558 248.632 854.993 275.065 854.993 307.673H1060.14C1060.14 275.065 1086.57 248.632 1119.17 248.632C1151.76 248.632 1178.2 275.065 1178.2 307.673H1191.31V116.665C1191.31 68.4384 1152.23 29.3349 1104 29.3349Z" fill="#00478A"/>
</g>
<defs>
<clipPath id="clip0_46_3">
<rect width="1549" height="546" fill="white"/>
</clipPath>
</defs>
</svg>
