<svg width="745" height="280" viewBox="0 0 745 280" fill="none" xmlns="http://www.w3.org/2000/svg">
<path d="M705.857 263.591H535.143V267.217H705.857V263.591Z" fill="#40424A"/>
<path d="M207.309 263.591H36.5938V267.217H207.309V263.591Z" fill="#40424A"/>
<path d="M223.031 260.484C223.031 256.836 223.785 254.292 225.295 252.852C226.805 251.414 229.479 250.693 233.316 250.693H236.943C240.461 250.693 243.055 251.291 244.725 252.489C246.395 253.685 247.23 255.551 247.23 258.085V259.294H243.967V258.948C243.967 256.977 243.469 255.605 242.471 254.83C241.473 254.056 239.566 253.669 236.752 253.669H234.238C232.279 253.669 230.873 253.778 230.016 253.995C229.158 254.214 228.43 254.577 227.828 255.089C227.277 255.564 226.891 256.197 226.666 256.991C226.443 257.784 226.33 259.21 226.33 261.271V269.411C226.33 271.459 226.443 272.879 226.666 273.673C226.891 274.468 227.277 275.101 227.828 275.574C228.43 276.086 229.145 276.451 229.977 276.668C230.809 276.887 232.229 276.994 234.238 276.994H236.752C238.568 276.994 239.854 276.899 240.609 276.707C241.363 276.516 242.016 276.187 242.566 275.728C243.078 275.293 243.439 274.697 243.65 273.942C243.861 273.186 243.967 271.895 243.967 270.064V268.298H236.041V265.4H247.23V270.179C247.23 273.841 246.475 276.387 244.965 277.821C243.455 279.253 240.781 279.97 236.943 279.97H233.316C229.479 279.97 226.805 279.253 225.295 277.821C223.785 276.387 223.031 273.841 223.031 270.179V260.484Z" fill="#40424A"/>
<path d="M253.045 279.624V259.409H255.961V262.174C256.385 261.137 257.09 260.373 258.082 259.88C259.074 259.386 260.381 259.14 262.008 259.14C263.721 259.14 265.061 259.404 266.027 259.927C266.992 260.453 267.713 261.303 268.186 262.481C268.773 261.303 269.551 260.453 270.518 259.927C271.482 259.404 272.746 259.14 274.309 259.14C276.955 259.14 278.791 259.665 279.816 260.715C280.84 261.764 281.352 263.651 281.352 266.379V279.624H278.357V267.319C278.357 265.066 278.066 263.591 277.484 262.893C276.902 262.196 275.766 261.848 274.078 261.848C272.209 261.848 270.85 262.325 270 263.278C269.148 264.232 268.723 265.763 268.723 267.876V279.624H265.826V265.937C265.826 264.337 265.535 263.255 264.953 262.692C264.369 262.129 263.26 261.848 261.623 261.848C259.703 261.848 258.293 262.334 257.391 263.307C256.49 264.279 256.039 265.803 256.039 267.876V279.624H253.045Z" fill="#40424A"/>
<path d="M290.369 267.876V271.178C290.369 273.276 290.859 274.804 291.838 275.756C292.816 276.709 294.387 277.188 296.549 277.188C298.508 277.188 299.809 276.834 300.455 276.131C301.1 275.427 301.424 273.802 301.424 271.254V267.799C301.424 265.24 301.1 263.608 300.455 262.903C299.809 262.199 298.508 261.848 296.549 261.848C294.387 261.848 292.816 262.325 291.838 263.278C290.859 264.232 290.369 265.763 290.369 267.876ZM287.395 279.624V251.039H290.369V262.289C290.945 261.176 291.723 260.373 292.701 259.88C293.68 259.386 295.002 259.14 296.664 259.14C299.543 259.14 301.574 259.736 302.758 260.926C303.941 262.116 304.533 264.183 304.533 267.127V271.926C304.533 274.857 303.941 276.918 302.758 278.108C301.574 279.298 299.543 279.894 296.664 279.894C294.924 279.894 293.543 279.622 292.52 279.077C291.496 278.534 290.74 277.68 290.254 276.516V279.624H287.395Z" fill="#40424A"/>
<path d="M310.271 279.624V251.039H313.418V263.384H329.883V251.039H333.031V279.624H329.883V266.379H313.418V279.624H310.271Z" fill="#40424A"/>
<path d="M370.357 273.884L359.842 265.091C358.102 265.119 356.893 265.537 356.215 266.35C355.535 267.162 355.197 268.7 355.197 270.967C355.197 272.567 355.283 273.706 355.455 274.384C355.629 275.062 355.92 275.574 356.33 275.92C356.777 276.316 357.484 276.596 358.449 276.754C359.416 276.914 361.158 276.994 363.68 276.994C365.764 276.994 367.326 276.752 368.361 276.265C369.398 275.779 370.063 274.986 370.357 273.884ZM372.947 276.092C372.297 277.551 371.234 278.569 369.764 279.146C368.291 279.722 365.701 280.009 361.99 280.009C359.355 280.009 357.449 279.827 356.272 279.462C355.094 279.097 354.129 278.473 353.373 277.59C352.875 276.988 352.51 276.15 352.279 275.074C352.049 273.999 351.936 272.528 351.936 270.66C351.936 268.227 352.33 266.424 353.125 265.246C353.918 264.067 355.236 263.294 357.078 262.922C356.182 262.295 355.52 261.486 355.092 260.494C354.662 259.501 354.449 258.29 354.449 256.856C354.449 254.552 355.049 252.95 356.252 252.047C357.455 251.144 359.693 250.693 362.969 250.693C366.053 250.693 368.266 251.18 369.609 252.153C370.953 253.126 371.625 254.718 371.625 256.932V259.333H368.437V257.145C368.437 255.775 368.15 254.853 367.574 254.38C367 253.905 365.463 253.669 362.969 253.669C360.576 253.669 359.109 253.88 358.564 254.302C358.022 254.724 357.75 255.576 357.75 256.856C357.75 258.673 358.645 260.332 360.436 261.828L360.647 262L370.953 270.621V266.647H374.139V270.851C374.139 271.133 374.119 271.459 374.08 271.83C374.043 272.201 373.979 272.623 373.889 273.098L379.281 277.59L377.439 279.816L372.947 276.092Z" fill="#40424A"/>
<path d="M394.174 260.484C394.174 256.824 394.873 254.277 396.273 252.844C397.676 251.41 400.148 250.693 403.691 250.693H407.031C410.549 250.693 413.018 251.311 414.438 252.545C415.859 253.78 416.568 255.877 416.568 258.833V260.082H413.307V259.294C413.307 257.131 412.865 255.654 411.982 254.859C411.1 254.066 409.371 253.669 406.801 253.669H404.594C402.867 253.669 401.609 253.774 400.822 253.985C400.035 254.196 399.381 254.552 398.855 255.05C398.33 255.539 397.963 256.174 397.752 256.961C397.541 257.749 397.436 259.185 397.436 261.271V269.411C397.436 271.484 397.541 272.915 397.752 273.702C397.963 274.489 398.33 275.126 398.855 275.613C399.381 276.111 400.016 276.467 400.766 276.678C401.514 276.889 402.789 276.994 404.594 276.994H406.801C409.436 276.994 411.189 276.578 412.059 275.746C412.93 274.915 413.363 273.321 413.363 270.967C413.363 270.607 413.359 270.334 413.354 270.14C413.348 269.949 413.338 269.771 413.326 269.603H416.568V271.484C416.568 274.66 415.881 276.867 414.506 278.108C413.129 279.351 410.639 279.97 407.031 279.97H403.691C400.148 279.97 397.676 279.253 396.273 277.821C394.873 276.387 394.174 273.841 394.174 270.179V260.484Z" fill="#40424A"/>
<path d="M435.299 271.254V267.799C435.299 265.251 434.977 263.63 434.33 262.932C433.684 262.235 432.324 261.885 430.252 261.885H428.852C426.791 261.885 425.445 262.231 424.811 262.922C424.178 263.614 423.861 265.24 423.861 267.799V271.254C423.861 273.827 424.182 275.459 424.82 276.15C425.461 276.842 426.805 277.188 428.852 277.188H430.252C432.312 277.188 433.668 276.834 434.32 276.131C434.973 275.427 435.299 273.802 435.299 271.254ZM428.891 279.894C425.869 279.894 423.76 279.306 422.557 278.128C421.354 276.949 420.752 274.882 420.752 271.926V267.127C420.752 264.157 421.35 262.084 422.547 260.906C423.742 259.73 425.844 259.14 428.852 259.14H430.252C433.271 259.14 435.383 259.73 436.584 260.906C437.787 262.084 438.389 264.157 438.389 267.127V271.926C438.389 274.896 437.791 276.965 436.594 278.137C435.398 279.308 433.297 279.894 430.291 279.894H428.891Z" fill="#40424A"/>
<path d="M443.225 279.624V275.459H446.562V279.624H443.225Z" fill="#40424A"/>
<path d="M470.686 279.624V251.039H473.834V263.153H476.271L487.861 251.039H492.025L478.861 264.689L493.715 279.624H489.398L476.271 266.225H473.834V279.624H470.686Z" fill="#40424A"/>
<path d="M495.885 260.484C495.885 256.836 496.639 254.292 498.148 252.852C499.658 251.414 502.332 250.693 506.17 250.693H509.797C513.316 250.693 515.91 251.291 517.58 252.489C519.25 253.685 520.084 255.551 520.084 258.085V259.294H516.82V258.948C516.82 256.977 516.322 255.605 515.324 254.83C514.326 254.056 512.42 253.669 509.605 253.669H507.092C505.135 253.669 503.727 253.778 502.869 253.995C502.012 254.214 501.283 254.577 500.682 255.089C500.131 255.564 499.744 256.197 499.522 256.991C499.297 257.784 499.186 259.21 499.186 261.271V269.411C499.186 271.459 499.297 272.879 499.522 273.673C499.744 274.468 500.131 275.101 500.682 275.574C501.283 276.086 502 276.451 502.832 276.668C503.662 276.887 505.082 276.994 507.092 276.994H509.605C511.422 276.994 512.709 276.899 513.463 276.707C514.217 276.516 514.871 276.187 515.42 275.728C515.932 275.293 516.293 274.697 516.506 273.942C516.715 273.186 516.82 271.895 516.82 270.064V268.298H508.897V265.4H520.084V270.179C520.084 273.841 519.328 276.387 517.818 277.821C516.309 279.253 513.637 279.97 509.797 279.97H506.17C502.332 279.97 499.658 279.253 498.148 277.821C496.639 276.387 495.885 273.841 495.885 270.179V260.484Z" fill="#40424A"/>
<path d="M729.799 15.0801C731.221 15.0801 731.934 14.2829 731.934 12.6866C731.934 11.2192 731.242 10.4845 729.863 10.4845H726.822V15.0801H729.799ZM726.822 24.2731H722.293V7.37787C724.666 7.03399 727.08 6.86011 729.539 6.86011C734.154 6.86011 736.463 8.88822 736.463 12.9464C736.463 15.3185 735.449 16.9793 733.422 17.9288L736.268 24.2731H731.416L729.215 18.6401C728.354 18.6401 727.555 18.6205 726.822 18.5756V24.2731ZM720.254 7.08679C717.904 9.48225 716.729 12.3623 716.729 15.7288C716.729 19.2243 717.818 22.1375 719.996 24.4665C722.174 26.7956 725.141 27.96 728.893 27.96C732.301 27.96 735.147 26.776 737.432 24.402C739.719 22.0281 740.861 19.1383 740.861 15.7288C740.861 12.4053 739.688 9.53695 737.336 7.11999C734.984 4.70304 732.17 3.49548 728.893 3.49548C725.484 3.49548 722.606 4.69328 720.254 7.08679ZM717.246 27.0554C714.313 24.0777 712.846 20.3029 712.846 15.7288C712.846 11.3287 714.41 7.60449 717.537 4.56229C720.664 1.5201 724.449 5.14984e-05 728.893 5.14984e-05C733.379 5.14984e-05 737.152 1.51039 740.215 4.5311C743.277 7.5518 744.809 11.2837 744.809 15.7288C744.809 20.1719 743.256 23.9156 740.15 26.9597C737.045 30.0019 733.291 31.522 728.893 31.522C724.061 31.522 720.18 30.0331 717.246 27.0554Z" fill="#40424A"/>
<path d="M36.5352 231.471V194.388H59.6865V198.323H40.6176V210.451H59.1127V214.237H40.6176V231.471H36.5352Z" fill="#40424A"/>
<path d="M85.8518 205.248V231.471H82.1172V227.909C81.5037 229.237 80.4912 230.22 79.0807 230.859C77.6692 231.498 75.8115 231.818 73.5035 231.818C70.0848 231.818 67.6869 231.127 66.3106 229.74C64.9318 228.354 64.2422 225.926 64.2422 222.455V205.248H68.102V221.633C68.102 224.355 68.5078 226.15 69.3211 227.012C70.1352 227.877 71.719 228.307 74.0774 228.307C76.7979 228.307 78.7854 227.686 80.0397 226.439C81.2916 225.195 81.9188 223.218 81.9188 220.513V205.248H85.8518Z" fill="#40424A"/>
<path d="M111.916 220.513V216.23C111.916 213.489 111.281 211.502 110.012 210.263C108.74 209.027 106.703 208.409 103.898 208.409C101.357 208.409 99.6621 208.87 98.8086 209.791C97.9531 210.713 97.5273 212.825 97.5273 216.129V220.611C97.5273 223.898 97.9531 226.004 98.8086 226.924C99.6621 227.846 101.357 228.307 103.898 228.307C106.703 228.307 108.74 227.69 110.012 226.451C111.281 225.214 111.916 223.237 111.916 220.513ZM115.775 205.248V231.17C115.775 235.023 115.018 237.71 113.508 239.23C111.998 240.746 109.342 241.508 105.543 241.508H103.75C100.33 241.508 97.834 240.885 96.2558 239.64C94.6797 238.393 93.7832 236.334 93.5684 233.464H97.5273C97.6894 235.14 98.2109 236.307 99.0801 236.961C99.9512 237.618 101.523 237.944 103.799 237.944H105.543C107.832 237.944 109.467 237.573 110.447 236.826C111.424 236.078 111.916 234.859 111.916 233.163V227.733C111.184 229.181 110.184 230.22 108.916 230.859C107.645 231.498 105.924 231.819 103.75 231.819C100.014 231.819 97.3828 231.047 95.8574 229.503C94.332 227.958 93.5684 225.287 93.5684 221.484V215.255C93.5684 211.44 94.332 208.757 95.8574 207.213C97.3828 205.67 100.014 204.896 103.75 204.896C105.99 204.896 107.779 205.254 109.113 205.969C110.449 206.682 111.434 207.801 112.064 209.331V205.248H115.775Z" fill="#40424A"/>
<path d="M126.801 215.804H141.639V214.785C141.639 212.327 141.199 210.66 140.32 209.779C139.439 208.898 137.697 208.46 135.092 208.46H133.275C130.686 208.46 128.959 208.898 128.098 209.779C127.232 210.66 126.801 212.327 126.801 214.785V215.804ZM133.324 231.818C129.406 231.818 126.67 231.055 125.109 229.529C123.549 228.001 122.77 225.32 122.77 221.484V215.255C122.77 211.404 123.543 208.716 125.098 207.188C126.648 205.662 129.375 204.896 133.275 204.896H135.092C139.01 204.896 141.748 205.662 143.307 207.188C144.867 208.716 145.646 211.404 145.646 215.255V219.216L126.801 219.241C126.785 219.507 126.773 219.802 126.766 220.124C126.756 220.451 126.754 220.902 126.754 221.484C126.754 224.189 127.184 226.004 128.047 226.924C128.908 227.846 130.652 228.307 133.275 228.307H135.092C137.432 228.307 139.057 227.971 139.971 227.297C140.883 226.627 141.416 225.453 141.566 223.774H145.598C145.398 226.613 144.484 228.665 142.859 229.927C141.232 231.189 138.66 231.818 135.143 231.818H133.324Z" fill="#40424A"/>
<path d="M152.641 231.471V205.248H156.352V208.833C156.982 207.487 157.994 206.494 159.389 205.855C160.781 205.216 162.625 204.896 164.916 204.896C168.352 204.896 170.758 205.589 172.135 206.977C173.514 208.362 174.199 210.801 174.199 214.286V231.471H170.318V215.109C170.318 212.369 169.914 210.568 169.109 209.702C168.305 208.841 166.742 208.409 164.418 208.409C161.68 208.409 159.676 209.036 158.404 210.289C157.135 211.543 156.5 213.522 156.5 216.23V231.471H152.641Z" fill="#40424A"/>
<path d="M181.297 219.392V215.904H195.213V219.392H181.297Z" fill="#40424A"/>
<path d="M241.145 205.248V231.471H237.41V227.909C236.797 229.237 235.783 230.22 234.373 230.859C232.961 231.498 231.104 231.818 228.797 231.818C225.377 231.818 222.979 231.127 221.604 229.74C220.225 228.354 219.535 225.926 219.535 222.455V205.248H223.395V221.633C223.395 224.355 223.801 226.15 224.613 227.012C225.428 227.877 227.012 228.307 229.369 228.307C232.09 228.307 234.078 227.686 235.332 226.439C236.584 225.195 237.211 223.218 237.211 220.513V205.248H241.145Z" fill="#40424A"/>
<path d="M249.16 231.471V205.248H252.869V208.833C253.502 207.487 254.514 206.494 255.908 205.855C257.301 205.216 259.143 204.896 261.434 204.896C264.869 204.896 267.277 205.589 268.652 206.977C270.031 208.362 270.719 210.801 270.719 214.286V231.471H266.836V215.109C266.836 212.369 266.434 210.568 265.629 209.702C264.824 208.841 263.26 208.409 260.938 208.409C258.197 208.409 256.193 209.036 254.924 210.289C253.654 211.543 253.02 213.522 253.02 216.23V231.471H249.16Z" fill="#40424A"/>
<path d="M295.813 220.513V216.23C295.813 213.489 295.178 211.502 293.908 210.263C292.637 209.026 290.607 208.409 287.82 208.409C285.283 208.409 283.592 208.866 282.756 209.779C281.916 210.691 281.496 212.809 281.496 216.129V220.611C281.496 223.917 281.916 226.025 282.756 226.938C283.592 227.852 285.283 228.307 287.82 228.307C290.607 228.307 292.637 227.69 293.908 226.451C295.178 225.214 295.813 223.237 295.813 220.513ZM295.961 227.436C295.348 228.964 294.379 230.076 293.061 230.773C291.742 231.471 289.953 231.818 287.695 231.818C283.961 231.818 281.324 231.043 279.779 229.491C278.236 227.94 277.465 225.269 277.465 221.484V215.255C277.465 211.455 278.236 208.778 279.779 207.225C281.324 205.674 283.961 204.896 287.695 204.896C289.854 204.896 291.563 205.216 292.824 205.855C294.084 206.494 295.08 207.538 295.813 208.982V194.388H299.695V231.471H295.961V227.436Z" fill="#40424A"/>
<path d="M329.619 227.586H343.137C345.594 227.586 347.244 227.207 348.09 226.451C348.938 225.697 349.361 223.735 349.361 220.56C349.361 217.891 348.889 216.158 347.941 215.369C346.996 214.581 344.541 214.187 340.572 214.187H329.619V227.586ZM329.619 210.402H342.988C345.162 210.402 346.621 210.011 347.369 209.23C348.115 208.45 348.49 206.733 348.49 204.075C348.49 201.535 348.09 199.943 347.295 199.294C346.498 198.645 344.465 198.323 341.195 198.323H329.619V210.402ZM325.586 231.471V194.388H342.838C346.822 194.388 349.465 194.996 350.768 196.205C352.07 197.418 352.723 199.892 352.723 203.628C352.723 206.5 352.402 208.513 351.764 209.665C351.125 210.822 350 211.611 348.391 212.045C350.348 212.541 351.713 213.427 352.484 214.698C353.258 215.967 353.643 218.104 353.643 221.109C353.643 225.195 352.838 227.942 351.229 229.353C349.619 230.765 346.389 231.471 341.543 231.471H325.586Z" fill="#40424A"/>
<path d="M363.75 215.804H378.588V214.785C378.588 212.327 378.147 210.66 377.27 209.779C376.389 208.898 374.645 208.46 372.039 208.46H370.223C367.635 208.46 365.908 208.898 365.045 209.779C364.18 210.66 363.75 212.327 363.75 214.785V215.804ZM370.271 231.818C366.355 231.818 363.617 231.055 362.057 229.529C360.496 228.001 359.717 225.32 359.717 221.484V215.255C359.717 211.404 360.492 208.716 362.045 207.188C363.598 205.662 366.322 204.896 370.223 204.896H372.039C375.957 204.896 378.695 205.662 380.254 207.188C381.814 208.716 382.594 211.404 382.594 215.255V219.216L363.75 219.241C363.732 219.507 363.723 219.802 363.713 220.124C363.703 220.451 363.701 220.902 363.701 221.484C363.701 224.189 364.133 226.004 364.994 226.924C365.857 227.846 367.6 228.307 370.223 228.307H372.039C374.381 228.307 376.006 227.971 376.918 227.297C377.832 226.627 378.363 225.453 378.514 223.774H382.547C382.346 226.613 381.432 228.665 379.807 229.927C378.18 231.189 375.609 231.818 372.09 231.818H370.271Z" fill="#40424A"/>
<path d="M386.975 208.559V205.248H390.186V199.345H394.07V205.248H406.918V208.559H394.07V223.003C394.07 225.06 394.408 226.461 395.078 227.199C395.752 227.94 397.033 228.307 398.926 228.307C400.801 228.307 402.066 227.95 402.721 227.237C403.379 226.524 403.705 225.111 403.705 223.003V222.231H407.639V222.455C407.639 226.141 407.027 228.622 405.809 229.902C404.588 231.18 402.053 231.818 398.203 231.818C395.199 231.818 393.111 231.142 391.943 229.788C390.771 228.434 390.186 225.99 390.186 222.455V208.559H386.975Z" fill="#40424A"/>
<path d="M432.533 220.611V216.129C432.533 212.825 432.113 210.722 431.277 209.816C430.438 208.911 428.674 208.46 425.986 208.46H424.17C421.496 208.46 419.75 208.907 418.928 209.804C418.105 210.699 417.695 212.809 417.695 216.129V220.611C417.695 223.948 418.109 226.066 418.939 226.963C419.77 227.858 421.514 228.307 424.17 228.307H425.986C428.658 228.307 430.416 227.852 431.264 226.938C432.109 226.025 432.533 223.917 432.533 220.611ZM424.217 231.818C420.301 231.818 417.564 231.055 416.004 229.529C414.441 228.001 413.662 225.32 413.662 221.484V215.255C413.662 211.404 414.438 208.716 415.992 207.188C417.543 205.662 420.268 204.896 424.17 204.896H425.986C429.902 204.896 432.643 205.662 434.201 207.188C435.762 208.716 436.541 211.404 436.541 215.255V221.484C436.541 225.335 435.766 228.02 434.215 229.54C432.662 231.06 429.936 231.818 426.037 231.818H424.217Z" fill="#40424A"/>
<path d="M443.537 231.471V205.248H447.246V208.833C447.879 207.487 448.891 206.494 450.285 205.855C451.678 205.216 453.52 204.896 455.813 204.896C459.246 204.896 461.654 205.589 463.029 206.977C464.408 208.362 465.096 210.801 465.096 214.286V231.471H461.213V215.109C461.213 212.369 460.811 210.568 460.006 209.702C459.201 208.841 457.637 208.409 455.314 208.409C452.574 208.409 450.572 209.036 449.301 210.289C448.031 211.543 447.396 213.522 447.396 216.23V231.471H443.537Z" fill="#40424A"/>
<path d="M471.941 223.675H475.873V224.273C475.873 225.885 476.371 226.99 477.367 227.598C478.363 228.204 480.363 228.507 483.367 228.507C486.738 228.507 488.812 228.2 489.592 227.586C490.371 226.971 490.76 225.785 490.76 224.023C490.76 222.315 490.441 221.172 489.805 220.599C489.166 220.027 487.568 219.673 485.01 219.542C484.064 219.491 482.785 219.443 481.176 219.392C477.658 219.292 475.568 219.05 474.904 218.669C473.908 218.122 473.197 217.373 472.775 216.428C472.352 215.482 472.141 214.12 472.141 212.344C472.141 209.437 472.879 207.469 474.357 206.441C475.832 205.414 479.086 204.896 484.113 204.896C488.016 204.896 490.656 205.388 492.045 206.367C493.43 207.346 494.121 209.064 494.121 211.522H490.24V211.273C490.24 210.111 489.736 209.31 488.732 208.87C487.729 208.429 485.732 208.21 482.746 208.21C479.857 208.21 478.016 208.475 477.219 209.007C476.422 209.538 476.023 210.65 476.023 212.344C476.023 213.374 476.098 214.097 476.248 214.511C476.396 214.927 476.662 215.24 477.045 215.457C477.824 215.873 479.551 216.111 482.223 216.18C482.904 216.195 483.428 216.213 483.791 216.23C485.98 216.313 487.699 216.424 488.943 216.565C490.189 216.707 491.076 216.901 491.609 217.151C492.77 217.682 493.596 218.446 494.086 219.443C494.574 220.437 494.82 221.883 494.82 223.774C494.82 225.703 494.578 227.162 494.096 228.159C493.617 229.155 492.752 230.033 491.508 230.797C490.945 231.164 490.023 231.424 488.746 231.584C487.467 231.74 485.691 231.818 483.418 231.818C478.77 231.818 475.697 231.283 474.193 230.212C472.693 229.142 471.941 227.194 471.941 224.374V223.675Z" fill="#40424A"/>
<path d="M519.764 224.796V222.033C519.764 220.787 519.129 219.874 517.859 219.292C516.592 218.712 514.568 218.421 511.799 218.421C509.26 218.421 507.561 218.741 506.707 219.38C505.852 220.019 505.426 221.244 505.426 223.051C505.426 225.111 505.877 226.486 506.781 227.174C507.686 227.864 509.5 228.206 512.223 228.206C514.662 228.206 516.529 227.915 517.822 227.323C519.117 226.735 519.764 225.89 519.764 224.796ZM519.965 228.704C519.367 229.802 518.414 230.593 517.111 231.086C515.809 231.574 514.004 231.818 511.699 231.818C507.6 231.818 504.852 231.232 503.459 230.064C502.064 228.892 501.367 226.715 501.367 223.524C501.367 221.682 501.529 220.238 501.852 219.192C502.178 218.147 502.713 217.309 503.459 216.678C504.088 216.146 505.014 215.769 506.234 215.545C507.455 215.318 509.209 215.209 511.498 215.209C513.873 215.209 515.686 215.404 516.939 215.795C518.191 216.184 519.135 216.834 519.764 217.747V213.216C519.764 211.072 519.348 209.687 518.518 209.058C517.689 208.425 515.607 208.108 512.272 208.108C509.848 208.108 508.238 208.362 507.441 208.87C506.645 209.374 506.23 210.326 506.195 211.721H502.338V211.123C502.338 208.882 503.064 207.284 504.518 206.328C505.967 205.373 508.471 204.896 512.022 204.896C514.793 204.896 516.902 205.013 518.346 205.248C519.789 205.48 520.859 205.853 521.557 206.367C522.32 206.965 522.859 207.704 523.176 208.585C523.488 209.462 523.648 210.973 523.648 213.116V231.471H520.113L519.965 228.704Z" fill="#40424A"/>
<path d="M531.441 231.471V205.248H535.15V208.833C535.781 207.487 536.795 206.494 538.189 205.855C539.582 205.216 541.424 204.896 543.715 204.896C547.15 204.896 549.557 205.589 550.934 206.977C552.312 208.362 553 210.801 553 214.286V231.471H549.117V215.109C549.117 212.369 548.713 210.568 547.908 209.702C547.104 208.841 545.541 208.409 543.217 208.409C540.479 208.409 538.475 209.036 537.205 210.289C535.934 211.543 535.301 213.522 535.301 216.23V231.471H531.441Z" fill="#40424A"/>
<path d="M560.814 231.471V205.248H564.674V231.471H560.814ZM560.814 198.77V194.388H564.674V198.77H560.814Z" fill="#40424A"/>
<path d="M575.703 215.804H590.541V214.785C590.541 212.327 590.102 210.66 589.223 209.779C588.342 208.898 586.6 208.46 583.994 208.46H582.178C579.588 208.46 577.861 208.898 577 209.779C576.135 210.66 575.703 212.327 575.703 214.785V215.804ZM582.227 231.818C578.309 231.818 575.572 231.055 574.012 229.529C572.451 228.001 571.672 225.32 571.672 221.484V215.255C571.672 211.404 572.445 208.716 574 207.188C575.551 205.662 578.277 204.896 582.178 204.896H583.994C587.91 204.896 590.65 205.662 592.209 207.188C593.769 208.716 594.549 211.404 594.549 215.255V219.216L575.703 219.241C575.688 219.507 575.676 219.802 575.666 220.124C575.658 220.451 575.654 220.902 575.654 221.484C575.654 224.189 576.086 226.004 576.949 226.924C577.811 227.846 579.555 228.307 582.178 228.307H583.994C586.334 228.307 587.959 227.971 588.873 227.297C589.785 226.627 590.318 225.453 590.469 223.774H594.5C594.299 226.613 593.387 228.665 591.762 229.927C590.133 231.189 587.562 231.818 584.045 231.818H582.227Z" fill="#40424A"/>
<path d="M601.494 231.471V205.248H605.252V208.833C605.801 207.469 606.654 206.475 607.816 205.844C608.979 205.212 610.523 204.896 612.449 204.896C615.303 204.896 617.307 205.586 618.461 206.965C619.613 208.343 620.19 210.785 620.19 214.286V214.486H616.283V213.714C616.283 211.621 615.951 210.214 615.287 209.493C614.623 208.77 613.367 208.409 611.525 208.409C609.367 208.409 607.811 209.021 606.846 210.24C605.885 211.461 605.402 213.456 605.402 216.23V231.471H601.494Z" fill="#40424A"/>
<path d="M646.752 205.248V231.471H643.016V227.909C642.404 229.237 641.391 230.22 639.98 230.859C638.57 231.498 636.711 231.818 634.404 231.818C630.984 231.818 628.586 231.127 627.211 229.74C625.832 228.354 625.143 225.926 625.143 222.455V205.248H629.002V221.633C629.002 224.355 629.408 226.15 630.221 227.012C631.035 227.877 632.619 228.307 634.977 228.307C637.697 228.307 639.686 227.686 640.939 226.439C642.191 225.195 642.818 223.218 642.818 220.513V205.248H646.752Z" fill="#40424A"/>
<path d="M654.768 231.471V205.248H658.477V208.833C659.109 207.487 660.121 206.494 661.516 205.855C662.908 205.216 664.75 204.896 667.043 204.896C670.477 204.896 672.885 205.589 674.26 206.977C675.639 208.362 676.326 210.801 676.326 214.286V231.471H672.443V215.109C672.443 212.369 672.041 210.568 671.236 209.702C670.432 208.841 668.867 208.409 666.545 208.409C663.805 208.409 661.801 209.036 660.531 210.289C659.262 211.543 658.627 213.522 658.627 216.23V231.471H654.768Z" fill="#40424A"/>
<path d="M702.193 220.513V216.23C702.193 213.489 701.561 211.502 700.289 210.263C699.02 209.027 696.981 208.409 694.178 208.409C691.637 208.409 689.939 208.87 689.088 209.791C688.232 210.713 687.805 212.825 687.805 216.129V220.611C687.805 223.898 688.232 226.004 689.088 226.924C689.939 227.846 691.637 228.307 694.178 228.307C696.981 228.307 699.02 227.69 700.289 226.451C701.561 225.214 702.193 223.237 702.193 220.513ZM706.053 205.248V231.17C706.053 235.023 705.297 237.71 703.787 239.23C702.277 240.746 699.621 241.508 695.822 241.508H694.027C690.609 241.508 688.111 240.885 686.535 239.64C684.957 238.393 684.061 236.334 683.846 233.464H687.805C687.969 235.14 688.49 236.307 689.359 236.961C690.23 237.618 691.803 237.944 694.078 237.944H695.822C698.111 237.944 699.746 237.573 700.725 236.826C701.703 236.078 702.193 234.859 702.193 233.163V227.733C701.463 229.181 700.463 230.22 699.193 230.859C697.924 231.498 696.201 231.819 694.027 231.819C690.293 231.819 687.662 231.047 686.137 229.503C684.609 227.958 683.846 225.287 683.846 221.484V215.255C683.846 211.44 684.609 208.757 686.137 207.213C687.662 205.67 690.293 204.896 694.027 204.896C696.27 204.896 698.057 205.254 699.393 205.969C700.727 206.682 701.711 207.801 702.344 209.331V205.248H706.053Z" fill="#40424A"/>
<path d="M361.189 87.6317H293.182V24.3414H259.146V175.582H293.182V117.598H361.189V175.582H395.227V24.3414H361.189V87.6317Z" fill="#40424A"/>
<path d="M492.67 83.3996C490.064 82.9014 487.602 82.4325 485.252 81.9381C484.217 81.7174 483.164 81.5005 482.104 81.2817C469.492 78.6732 456.451 75.9768 456.451 66.9889C456.451 53.6713 478.639 53.2864 481.168 53.2864C494.387 53.2864 509.184 58.6576 522.834 68.4133L523.637 68.9858L542.766 42.8879L541.965 42.2978C527.744 31.8054 510.684 22.0945 482.393 22.0945C466.789 22.0945 452.592 25.4259 442.418 31.4732C429.01 39.445 422.211 51.8053 422.211 68.214C422.211 105.14 464.271 112.003 482.219 114.929C498.17 117.745 514.662 120.656 514.662 131.915C514.662 139.636 505.541 147.454 488.107 147.454C471.473 147.454 450.049 137.917 438.947 128.697L438.111 128.001L419.832 154.341L420.52 154.927C438.805 170.529 461.682 178.44 488.516 178.44C506.602 178.44 521.654 174.382 532.043 166.709C543.229 158.446 548.902 146.463 548.902 131.098C548.902 94.1441 516.4 87.9346 492.67 83.3996Z" fill="#40424A"/>
<path d="M642.477 88.716L704.957 24.3414H662.166L605.432 85.0799V24.3414H571.191V175.582H605.432V126.598L618.824 112.634L665.156 175.582H707.24L642.477 88.716Z" fill="#40424A"/>
<path d="M102.748 95.7443L100.646 95.4746L100.179 95.414C100.115 95.5547 100.029 95.6836 99.9293 95.7969C99.6754 96.0842 99.318 96.2757 98.9195 96.3206C98.8434 96.3284 98.7653 96.3323 98.6871 96.3284C97.9195 96.2972 97.3024 95.7227 97.193 94.99C97.1793 94.8943 97.1715 94.7946 97.1754 94.693C97.1949 94.1967 97.4449 93.7669 97.816 93.4934C98.0934 93.2863 98.4371 93.1651 98.8102 93.1808C98.8297 93.1808 98.8492 93.1846 98.8688 93.1866C99.1012 93.2042 99.3199 93.2687 99.5113 93.3761C99.5797 93.4152 99.6461 93.4582 99.7086 93.507C99.9586 93.7005 100.148 93.9662 100.246 94.2729L102.795 94.187L106.007 94.0796C106.021 92.8701 105.986 91.6606 105.906 90.455C105.806 88.9506 105.636 87.452 105.392 85.967C105.312 85.4707 105.222 84.9763 105.127 84.484C104.894 83.3019 104.619 82.1276 104.296 80.967C104.129 80.3593 103.947 79.7536 103.752 79.1518L100.599 79.9275L99.1285 80.2909L98.0817 80.5489C98.0446 81.1644 97.6422 81.729 97.0211 81.942C96.3024 82.1882 95.527 81.8833 95.1539 81.2522C95.1012 81.1624 95.0563 81.0647 95.0211 80.9631C94.9059 80.625 94.9137 80.2753 95.0191 79.9607C95.0543 79.8572 95.1012 79.7556 95.1578 79.6598C95.3414 79.3453 95.6285 79.0893 95.9996 78.9603C96.1598 78.9056 96.3238 78.8783 96.484 78.8764C96.8863 78.8686 97.275 79.0189 97.568 79.2866C97.6266 79.3394 97.6832 79.398 97.732 79.4605L99.0074 78.9154L100.086 78.4562L101.16 77.9971L103.07 77.1843C101.322 72.4852 98.8141 68.044 95.5836 64.062L94.1539 62.5419L93.9664 62.3426L89.5074 66.3852L87.6916 68.0323L68.5014 85.4336L68.4975 85.4375C70.8244 89.0131 71.586 93.4367 70.5621 97.6141C70.1631 99.2456 69.5 100.838 68.5402 102.329C65.091 107.679 58.9082 110.199 53.0037 109.242L44.123 135.529C44.6672 134.234 45.3057 132.964 46.0328 131.715C46.4623 130.979 46.9223 130.25 47.4121 129.529C54.9232 118.482 69.4496 109.238 86.8149 101.276C89.5406 100.025 92.3961 98.8353 92.4098 98.7239H105.714C105.81 97.8701 105.89 97.0123 105.939 96.1565L103.953 95.9005L102.748 95.7443Z" fill="#656263"/>
<path d="M53.877 19.6151V30.5568C54.1752 30.5529 54.4736 30.5432 54.7734 30.5432C58.807 30.5432 62.8025 30.9594 66.7127 31.7565C91.7977 36.2309 111.399 56.5435 114.825 81.985C153.69 72.6728 195.971 70.377 208.591 69.4665V19.6151H53.877Z" fill="#40424A"/>
<path d="M84.3691 44.5504C74.9301 38.4621 64.3213 35.6504 53.876 35.8204C36.217 36.1096 19.0248 44.9275 8.73593 60.8927C-7.63828 86.2991 -0.324807 120.174 25.0719 136.555C29.4832 139.4 34.1494 141.529 38.9346 142.973L40.2605 139.017H40.259L40.433 138.501L50.4504 108.601C49.2914 108.2 48.16 107.659 47.0836 106.965C39.8791 102.319 37.8047 92.7078 42.4494 85.4999C45.099 81.389 49.3639 78.9505 53.876 78.4757C57.2732 78.1162 60.8111 78.8684 63.9057 80.8653C64.8211 81.4553 65.6527 82.1255 66.3988 82.8602C78.6623 71.7934 96.7889 55.5313 96.7889 55.5313C93.3182 51.3617 89.1658 47.6434 84.3691 44.5504Z" fill="#40424A"/>
<path d="M60.9366 85.4355C58.7593 84.0326 56.2491 83.5754 53.8757 83.9427C51.1009 84.3706 48.5138 85.9299 46.8726 88.4758C43.8278 93.2003 45.1874 99.4995 49.9099 102.546C51.1521 103.347 52.5032 103.835 53.8757 104.044C57.7202 104.634 61.7302 102.989 63.9747 99.5055C67.0196 94.781 65.6593 88.4816 60.9366 85.4355Z" fill="#40424A"/>
<path d="M184.469 122.725C183.503 136.276 195.833 151.309 208.59 163.03V85.2714C197.104 92.5789 185.778 104.361 184.469 122.725Z" fill="#40424A"/>
<path d="M175.246 124.263C177.988 85.7795 224.726 76.1781 224.726 76.1781C224.726 76.1781 130.181 86.4673 120.263 120.197C116.068 134.466 127.914 155.431 159.929 179.732H218.152C203.486 169.261 173.767 145.021 175.246 124.263Z" fill="#FFCC00"/>
<path d="M95.0761 135.121C95.0546 134.939 95.037 134.757 95.0194 134.576C94.7557 131.858 94.994 129.245 95.6698 126.733C97.0507 121.604 100.25 116.895 104.738 112.591C106.951 110.469 109.476 108.442 112.248 106.514C112.558 106.299 112.871 106.084 113.187 105.871C145.084 84.353 207.547 75.0389 207.547 75.0389C207.547 75.0389 160.303 78.9114 118.939 90.1091C117.703 90.4843 116.496 90.877 115.342 91.2776C114.889 91.4358 114.441 91.5941 114.008 91.7543C113.037 92.1099 112.115 92.4695 111.267 92.8231C111.471 93.8118 111.266 94.9666 111.215 95.5H113.803H115.098H122.717L114.848 97.741L113.775 98.0477L111.398 98.7239H108.281H105.715H92.41C92.3964 98.8352 89.5409 100.025 86.8151 101.276C69.4499 109.238 54.9235 118.481 47.4124 129.529C46.9225 130.25 46.4626 130.979 46.0331 131.715C45.3059 132.964 44.6675 134.234 44.1233 135.529C43.5253 136.955 43.0393 138.409 42.6792 139.892C42.097 142.284 41.8376 144.753 41.9276 147.301C41.9528 148.005 42.0063 148.714 42.0849 149.427C43.0858 158.487 48.4806 168.53 59.6438 179.732H126.389C118.387 170.869 97.5409 147.757 95.369 136.955C95.244 136.34 95.1503 135.726 95.0761 135.121Z" fill="#FFCC00"/>
</svg>
