<svg width="638" height="417" viewBox="0 0 638 417" fill="none" xmlns="http://www.w3.org/2000/svg">
<path d="M434.932 137.2C433.765 136.967 432.599 136.5 431.199 136.033C427.932 135.1 424.665 133.7 421.399 132.533C418.832 131.6 416.265 130.667 413.465 129.733C410.665 128.8 407.865 127.867 405.065 127.167C400.165 125.767 395.265 124.833 390.365 123.9C374.265 121.333 358.632 122.033 342.765 123.667C326.665 125.3 310.565 130.667 296.565 137.2C294.232 138.133 292.132 139.067 290.032 140C284.432 142.333 278.832 144.433 273.232 146.067C267.399 147.7 261.565 149.1 255.265 150.033C248.265 151.2 241.499 152.133 234.499 152.367C226.799 152.833 219.332 153.067 211.632 152.6C203.699 152.367 195.765 150.733 187.832 149.1C182.932 147.933 177.565 146.767 172.199 145.833H171.965C170.332 145.6 168.932 145.133 167.299 144.9C164.965 144.667 162.632 144.2 160.532 143.967C160.532 143.967 160.532 143.967 160.299 143.967C146.765 142.8 133.465 143.733 120.865 146.3C134.399 147.233 147.699 148.633 160.299 152.133C160.299 152.133 160.299 152.133 160.532 152.133V177.333H355.599V159.367L398.299 189.7L355.599 220.033V202.067H160.065V213.733C160.065 229.133 172.665 241.733 188.065 241.733H403.199C418.599 241.733 431.199 229.133 431.199 213.733V145.133C425.599 144.2 419.999 143.033 414.865 141.867C420.232 143.033 425.599 144.2 431.199 145.133C431.665 145.133 432.365 145.367 433.065 145.367C448.699 147.7 464.565 147 479.732 143.967C464.099 143.5 449.165 141.867 434.932 137.2Z" fill="#3BD1FF"/>
<path d="M228.666 55.5333C228.666 83.0666 243.599 105.467 243.599 105.467C243.599 105.467 258.533 83.0666 258.533 55.5333C258.533 28 243.599 5.59998 243.599 5.59998C243.599 5.59998 228.666 28 228.666 55.5333Z" fill="#1D3764"/>
<path d="M196.232 67.4333C196.232 88.4333 207.666 105.233 207.666 105.233C207.666 105.233 219.099 88.2 219.099 67.4333C219.099 46.6666 207.666 29.6333 207.666 29.6333C207.666 29.6333 196.232 46.6666 196.232 67.4333Z" fill="#1D3764"/>
<path d="M431.199 98.7C429.566 98.2333 427.932 97.7667 426.299 97.0667C421.632 95.6667 417.199 94.0333 412.766 92.4C410.199 91.4667 407.632 90.5333 404.832 89.8334C402.032 88.9 399.232 87.9667 396.199 87.2667C393.166 86.3333 389.899 85.6333 386.632 84.9333V39.9H402.032L355.132 0L308.232 39.9H323.632V85.1667C311.032 87.7333 298.432 92.1667 287.466 97.0667C285.366 98 283.266 99.1667 281.166 99.8667C275.566 102.2 269.732 104.533 264.132 106.167C258.299 107.8 252.466 109.2 246.399 110.133C239.399 111.3 232.399 112.233 225.399 112.467C217.699 112.933 209.999 113.167 202.532 112.7C194.599 112.467 186.666 110.833 178.732 108.967C173.599 107.8 168.466 106.633 163.099 105.7C163.099 105.7 163.099 105.7 162.866 105.7C161.932 105.467 160.999 105.233 160.066 105.233C159.599 105.233 158.899 105 158.199 105C155.866 104.533 153.532 104.3 151.199 104.067C137.899 102.9 124.599 103.833 111.766 106.4C125.299 107.1 138.599 108.733 151.199 112.233C153.066 112.7 154.699 113.167 156.332 113.633C157.499 114.1 158.899 114.333 160.066 115.033C165.899 116.9 171.732 119 177.799 121.333C185.266 123.667 192.966 125.767 201.132 126.933C217.232 129.5 233.099 128.8 248.732 127.167C249.199 127.167 249.666 127.167 250.132 126.933C260.632 125.767 271.132 122.967 281.166 119.233C285.832 117.6 290.499 115.733 295.166 113.633C299.832 111.3 304.266 109.433 308.699 107.8C317.799 104.3 326.666 101.967 336.466 100.567C347.199 98.7 358.399 97.7667 369.132 97.7667C372.866 97.7667 376.366 97.7667 380.099 98C385.466 98.2334 390.832 98.9333 396.432 100.1C405.532 101.733 414.632 104.3 424.432 105.933C426.766 106.167 429.099 106.4 431.199 106.633C444.732 108.033 458.032 106.867 470.866 104.3C457.332 103.6 444.032 101.967 431.199 98.7Z" fill="#1D3764"/>
<path d="M42.7 313.6C32.6667 313.6 25.4333 319.2 21 330.633L0 416.267H24.5L49.2333 313.6H42.7Z" fill="#1D3764"/>
<path d="M102.666 338.8H85.6327H55.066L36.166 416.267H61.1327L74.8994 360.267H93.566C94.966 360.267 96.1327 360.733 96.8327 361.9C97.5327 362.833 97.766 364 97.766 365.4L84.9327 416.5H109.899L122.733 365.4C124.366 358.4 123.199 352.333 118.999 346.967C114.799 341.367 109.433 338.8 102.666 338.8Z" fill="#1D3764"/>
<path d="M167.533 356.3L171.733 341.367C172.2 339.733 172.9 338.333 174.066 337.4C175.466 336.233 176.866 335.767 178.266 335.767H189.233L194.6 313.6H173.133C160.3 315.467 152.133 322.467 148.4 335.067L143.033 356.3H133.233L128.1 378.467H137.666L128.1 416.267H152.833L162.166 378.467H179.2L184.333 356.3H167.533Z" fill="#1D3764"/>
<path d="M220.966 338.8C208.133 340.667 200.199 347.667 196.699 360.267L183.166 416.267H207.899L220.033 366.567C220.499 364.933 221.199 363.533 222.366 362.6C223.533 361.433 224.933 360.967 226.566 360.967H239.866L245.466 338.8H220.966Z" fill="#1D3764"/>
<path d="M287.233 339.033C268.8 340.2 255.5 348.367 247.567 363.533C241.5 376.833 240.567 388.967 244.767 399.467C246.633 404.367 249.433 408.1 253.4 411.133C257.133 413.933 262.733 415.567 270.2 416.033L312.9 416.267L331.567 339.033H287.233ZM299.367 368.2L293.3 394.1H277.2C266.7 393.867 263.2 388.033 266.7 376.133C267.867 371.933 270.433 368.2 274.167 365.167C278.133 361.9 283.033 360.267 289.567 360.033H301.467L299.367 368.2Z" fill="#1D3764"/>
<path d="M355.599 391.767C354.899 391.067 354.666 390.133 354.899 389.2L373.099 313.6H365.866C360.499 313.6 355.832 315.233 351.866 318.267C347.899 321.3 345.099 325.5 343.699 330.633L329.466 390.133C327.832 397.133 329.466 403.2 333.899 408.567C338.332 413.933 344.166 416.5 351.632 416.5H412.766C412.999 415.8 413.466 414.167 413.932 411.6C414.399 409.267 415.099 406.467 415.799 403.667C416.499 400.867 417.199 398.3 417.666 395.967C417.899 394.8 418.132 393.867 418.366 392.933H358.166C356.999 392.7 356.066 392.467 355.599 391.767Z" fill="#1D3764"/>
<path d="M442.167 338.567L423.033 416.267H448.467L467.367 338.567H442.167Z" fill="#1D3764"/>
<path d="M526.4 338.8H509.367H478.8L459.9 416.267H484.867L498.634 360.267H517.3C518.7 360.267 519.867 360.733 520.567 361.9C521.267 362.833 521.5 364 521.5 365.4L508.667 416.5H533.634L546.467 365.4C548.1 358.4 546.934 352.333 542.734 346.967C538.534 341.367 533.167 338.8 526.4 338.8Z" fill="#1D3764"/>
<path d="M635.599 345.8C633.032 341.833 628.132 339.5 620.199 339.033H594.999C576.566 340.2 563.266 348.367 555.332 363.533C549.266 376.833 548.332 388.967 552.532 399.467C554.399 404.367 557.199 408.1 561.166 411.133C564.899 413.933 570.499 415.567 577.966 416.033L623.699 416.267L629.066 394.1H596.866H585.199C575.166 393.633 571.666 387.8 574.699 376.133C575.866 371.933 578.432 368.2 582.166 365.167C585.899 361.9 590.799 360.267 596.866 360.033H612.266H612.499L610.866 366.333H602.699H593.832C589.632 366.8 586.599 368.667 584.266 371.933C582.166 375.433 580.999 378.7 580.999 381.967C580.999 385.233 582.399 387.1 584.732 387.567H629.999L636.766 359.8L636.999 359.1C638.632 354.433 637.932 349.767 635.599 345.8Z" fill="#1D3764"/>
<path d="M448.465 313.6H473.666L468.999 331.8H443.799L448.465 313.6Z" fill="#3BD1FF"/>
</svg>
