<svg width="1522" height="329" viewBox="0 0 1522 329" fill="none" xmlns="http://www.w3.org/2000/svg">
<path d="M773.196 67.532C832.315 67.532 891.433 67.532 950.551 67.532V111.514C930.643 111.514 910.735 111.514 890.827 111.514C890.827 157.487 890.827 203.374 890.827 249.348H832.228C832.228 203.172 832.228 157.17 832.228 111.341H773.023C773.11 97.3151 773.196 82.4236 773.196 67.532Z" fill="#D10A10"/>
<path d="M974.876 67.9649C1026.81 67.4454 1078.74 67.9649 1130.25 67.9649C1130.25 82.8565 1130.25 97.748 1130.25 112.64H1033.13C1033.13 118.527 1033.13 129.955 1033.73 136.016C1063.86 136.016 1094.32 136.016 1124.19 136.016V172.639C1093.89 172.639 1063.6 172.639 1033.22 172.639C1033.22 183.634 1033.22 194.63 1033.22 205.625H1133.88C1133.88 220.344 1133.88 235.149 1133.88 249.867C1080.73 249.867 1027.59 249.867 974.53 249.867C974.789 189.262 974.183 128.57 974.876 67.9649Z" fill="#D10A10"/>
<path d="M1183.65 82.51C1231.78 47.8784 1312.97 59.3068 1334.87 119.652C1318.16 124.068 1301.54 128.31 1284.84 132.466C1272.8 102.163 1226.84 96.1029 1214.64 129.089C1207.19 156.448 1204.51 208.829 1243.98 210.387C1267.7 215.236 1278.6 193.071 1286.05 175.063C1303.36 180.604 1319.98 185.885 1336.77 192.379C1316.86 272.204 1187.46 275.927 1159.33 201.037C1145.65 161.816 1148.59 109.696 1183.65 82.51Z" fill="#D10A10"/>
<path d="M1355.38 70.6487H1413.81V138.527H1466.69C1466.69 115.929 1466.69 93.3324 1466.26 70.7353H1519.84C1519.84 131.341 1519.41 191.946 1519.84 252.551H1466.09C1466.09 226.577 1466.09 200.604 1466.09 175.063H1414.15C1414.15 201.037 1414.15 227.01 1414.15 252.984C1394.59 252.984 1375.11 252.984 1355.55 252.464C1355.44 191.802 1355.38 131.196 1355.38 70.6487Z" fill="#D10A10"/>
<path d="M71.8256 113.072C98.1469 80.9452 113.844 41.435 116.749 0C148.775 0 180.714 0 212.74 0C211.961 67.2718 212.74 134.63 212.307 201.902C233.6 201.902 254.893 202.335 276.186 202.422V251.425C234.351 251.425 192.486 251.425 150.592 251.425C150.073 189.435 152.064 127.358 149.554 65.3671C133.368 94.0247 122.115 125.972 100.303 150.734C70.6662 187.489 53.022 232.457 49.7536 279.563C540.531 280.141 1031.28 280.141 1522 279.563C1522 296.013 1522 312.55 1521.22 329C1014.29 329 507.322 329 0.329614 329C-3.23569 250.673 22.2227 173.785 71.8256 113.072Z" fill="#00478A"/>
<path d="M293.412 66.3198C313.839 66.3198 334.267 66.3198 354.694 66.3198C354.694 128.051 354.694 189.868 354.694 251.599C334.209 251.599 313.695 251.599 293.152 251.599C293.845 189.955 293.585 128.137 293.412 66.3198Z" fill="#00478A"/>
<path d="M381.527 66.2332H438.654C460.64 98.0076 482.539 129.869 504.957 161.47C505.822 129.782 505.563 98.0942 504.957 66.2332H563.642C563.642 128.137 563.642 189.954 563.642 251.858H506.428C484.356 220.17 462.544 188.309 440.126 156.622C440.126 188.136 440.126 219.651 440.126 251.166C420.65 251.166 401.088 251.599 381.527 251.685C381.873 190.474 381.613 128.137 381.527 66.2332Z" fill="#00478A"/>
<path d="M596.101 66.4064C648.814 66.4064 701.527 66.4064 754.241 66.4064C754.241 82.3369 754.241 98.354 754.241 114.371H657.73C657.73 118.96 657.124 128.137 656.951 132.812C686.813 132.812 716.761 133.245 746.624 132.812C746.624 146.665 746.624 160.518 747.229 174.457C717.281 174.457 687.332 174.457 657.383 174.457C657.383 181.556 657.383 195.669 657.383 202.682C690.275 202.682 723.167 202.682 756.058 202.682C756.058 219.132 756.751 235.495 757.01 251.945C703.23 251.945 649.478 251.945 595.755 251.945C596.447 189.954 596.274 128.137 596.101 66.4064Z" fill="#00478A"/>
</svg>
