<svg width="1350" height="329" viewBox="0 0 1350 329" fill="none" xmlns="http://www.w3.org/2000/svg">
<g clip-path="url(#clip0_58_2)">
<path d="M1238.68 186.568H1349.15V218.697H1282.27V239.588H1346.89V271.717H1282.27V295.175H1349.15V327.304H1238.68V186.568ZM1077.88 186.568H1121.44V238.639H1129.75L1175.03 186.568H1229.54L1166.9 254.319L1236.36 327.304H1180.59L1129.75 272.661H1121.44V327.304H1077.88V186.568ZM1069.18 270.776V277.022C1069.18 286.026 1068.08 293.807 1065.84 300.359C1063.6 306.909 1060.11 312.309 1055.35 316.577C1050.59 320.823 1044.51 323.956 1037.11 325.981C1029.71 327.986 1020.85 329 1010.51 329H993.88C983.543 329 974.655 327.986 967.236 325.981C959.799 323.956 953.701 320.823 948.939 316.577C944.184 312.309 940.692 306.909 938.454 300.359C936.217 293.807 935.099 286.026 935.099 277.022V237.51C935.099 228.318 936.217 220.397 938.454 213.772C940.692 207.172 944.184 201.727 948.939 197.434C953.701 193.144 959.799 189.984 967.236 187.935C974.655 185.885 983.543 184.847 993.88 184.847H1010.51C1020.89 184.847 1029.81 185.955 1037.21 188.124C1044.6 190.292 1050.66 193.382 1055.4 197.39C1060.11 201.373 1063.58 206.252 1065.74 211.981C1067.91 217.711 1069 224.146 1069 231.263V238.829H1024.69V234.376C1024.55 229.847 1022.94 226.619 1019.85 224.683C1016.77 222.778 1011.93 221.81 1005.31 221.81H1000.11C996.398 221.81 993.214 222.116 990.565 222.705C987.922 223.321 985.781 224.45 984.137 226.171C982.501 227.868 981.305 230.249 980.549 233.338C979.794 236.425 979.418 240.458 979.418 245.456V269.265C979.418 274.048 979.794 277.914 980.549 280.887C981.305 283.856 982.565 286.166 984.334 287.84C986.096 289.512 988.398 290.622 991.231 291.188C994.07 291.755 997.529 292.037 1001.63 292.037H1006.26C1009.47 292.037 1012.24 291.895 1014.58 291.566C1016.91 291.257 1018.82 290.599 1020.28 289.585C1021.76 288.571 1022.87 287.131 1023.6 285.245C1024.31 283.34 1024.69 280.859 1024.69 277.774V270.776H1069.18ZM844.751 268.226H875.459L861.569 219.644H859.009L844.751 268.226ZM835.015 302.716L827.445 327.304H781.24L828.391 186.568H892.27L939.342 327.304H893.123L885.564 302.716H835.015ZM805.041 186.568L763.651 327.304H716.017L692.212 228.15L668.591 327.304H620.956L579.57 186.568H622.381L644.585 275.984L666.503 186.568H718.101L740.215 275.984L762.419 186.568H805.041ZM483.435 186.568V267.852C483.435 272.754 483.833 276.784 484.66 279.945C485.473 283.104 486.758 285.581 488.491 287.372C490.224 289.163 492.452 290.386 495.191 291.047C497.941 291.704 501.253 292.037 505.163 292.037H510.925C514.262 292.037 517.277 291.874 519.952 291.52C522.63 291.188 524.911 290.198 526.801 288.596C528.696 286.99 530.149 284.564 531.148 281.356C532.165 278.149 532.67 273.647 532.67 267.852V186.568H576.129V275.606C576.129 284.609 575.005 292.464 572.781 299.135C570.54 305.804 566.999 311.369 562.14 315.825C557.298 320.252 551.071 323.555 543.488 325.747C535.886 327.916 526.708 329 515.934 329H500.154C489.383 329 480.206 327.916 472.604 325.747C465.013 323.555 458.793 320.252 453.952 315.825C449.093 311.369 445.548 305.804 443.321 299.135C441.079 292.464 439.962 284.609 439.962 275.606V186.568H483.435ZM348.163 268.226H378.872L364.978 219.644H362.422L348.163 268.226ZM338.428 302.716L330.863 327.304H284.658L331.806 186.568H395.69L442.751 327.304H396.539L388.983 302.716H338.428ZM223.227 246.779C226.503 246.779 229.132 246.422 231.124 245.74C233.103 245.03 234.646 244.062 235.755 242.791C236.852 241.539 237.593 240.035 237.969 238.265C238.348 236.496 238.536 234.541 238.536 232.394C238.536 230.249 238.348 228.365 237.969 226.693C237.593 225.016 236.815 223.601 235.661 222.426C234.495 221.267 232.831 220.372 230.698 219.784C228.556 219.192 225.75 218.889 222.284 218.889H192.142V246.779H223.227ZM240.34 298.662C240.34 295.008 239.95 291.942 239.196 289.446C238.44 286.945 237.228 284.937 235.565 283.388C233.892 281.852 231.737 280.745 229.084 280.087C226.445 279.425 223.263 279.093 219.541 279.093H192.142V327.304H148.576V186.568H239.666C254.221 186.568 264.992 190.268 271.992 197.669C278.979 205.073 282.478 215.821 282.478 229.941C282.478 235.038 281.971 239.515 280.971 243.358C279.957 247.202 278.543 250.476 276.716 253.186C274.889 255.898 272.699 258.113 270.154 259.813C267.595 261.51 264.801 262.825 261.785 263.774C266.005 264.71 269.53 266.106 272.366 267.897C275.208 269.688 277.47 271.996 279.168 274.825C280.875 277.679 282.065 281.006 282.762 284.85C283.457 288.715 283.798 293.122 283.798 298.095V327.304H240.34V298.662ZM93.4609 234.376C93.3305 229.847 91.7278 226.619 88.6423 224.683C85.5525 222.778 80.6974 221.81 74.0856 221.81H65.0125C61.3 221.81 58.1196 222.116 55.4674 222.705C52.8295 223.321 50.6825 224.45 49.0461 226.171C47.4093 227.868 46.2191 230.249 45.4639 233.338C44.6973 236.425 44.3195 240.458 44.3195 245.456V269.265C44.3195 274.048 44.6973 277.914 45.4639 280.887C46.2191 283.856 47.467 286.166 49.2348 287.84C51.0029 289.512 53.2982 290.622 56.1291 291.188C58.9686 291.755 62.4329 292.037 66.5343 292.037H76.0665C79.2848 292.037 82.0416 291.895 84.3383 291.566C86.6364 291.257 88.5331 290.599 90.0073 289.585C91.4915 288.571 92.5879 287.131 93.318 285.245C94.037 283.34 94.4037 280.859 94.4037 277.774V276.55H70.5862V244.397H138.912V277.022C138.912 286.026 137.744 293.807 135.414 300.359C133.089 306.909 129.474 312.309 124.595 316.577C119.716 320.823 113.528 323.956 106.032 325.981C98.5269 327.986 89.617 329 79.2848 329H58.781C48.4445 329 39.5654 327.986 32.1299 325.981C24.6999 323.956 18.6015 320.823 13.8473 316.577C9.09164 312.309 5.59067 306.909 3.35692 300.359C1.12037 293.807 0 286.026 0 277.022V237.51C0 228.318 1.12037 220.397 3.35692 213.772C5.59067 207.172 9.09164 201.727 13.8473 197.434C18.6015 193.144 24.6999 189.984 32.1299 187.935C39.5654 185.885 48.4445 184.847 58.781 184.847H79.2848C89.6771 184.847 98.5745 185.955 105.975 188.124C113.387 190.292 119.443 193.382 124.169 197.39C128.896 201.373 132.348 206.252 134.519 211.981C136.698 217.711 137.78 224.146 137.78 231.263V234.376H93.4609Z" fill="#736A5D"/>
<path d="M653.523 113.324H720.418V150.287H609.953V9.54515H653.523V113.324ZM488.531 9.54515H598.992V41.6783H532.097V62.5616H596.733V94.7001H532.097V118.157H598.992V150.287H488.531V9.54515ZM346.024 50.7536C346.024 43.8817 347.084 37.7874 349.192 32.4598C351.305 27.1434 354.677 22.6525 359.303 18.9997C363.936 15.3469 369.902 12.5629 377.207 10.6769C384.522 8.7923 393.341 7.83675 403.672 7.83675H417.565C427.963 7.83675 436.858 8.72247 444.259 10.4892C451.66 12.2564 457.726 14.8963 462.453 18.4331C467.179 21.9588 470.62 26.3895 472.797 31.7059C474.967 37.0334 476.052 43.2578 476.052 50.3761V54.4444H431.73V53.4985C431.615 48.9603 430.001 45.7341 426.91 43.8118C423.824 41.8893 418.983 40.9226 412.373 40.9226H405.183C401.964 40.9226 399.403 41.159 397.484 41.6307C395.554 42.1006 394.057 42.7625 392.998 43.6227C391.923 44.4705 391.214 45.4486 390.863 46.5453C390.523 47.652 390.344 48.8679 390.344 50.187C390.344 51.4491 390.523 52.5444 390.863 53.4985C391.214 54.4444 391.902 55.2559 392.947 55.9511C393.986 56.6477 395.436 57.2465 397.298 57.7419C399.149 58.2512 401.588 58.6974 404.613 59.0739L435.984 62.9423C442.798 63.7646 448.9 65.0378 454.321 66.7713C459.742 68.5019 464.375 70.981 468.214 74.1987C472.056 77.4042 475.003 81.4932 477.055 86.4321C479.092 91.3818 480.116 97.4339 480.116 104.626C480.116 113.702 478.995 121.269 476.758 127.305C474.527 133.363 471.021 138.219 466.223 141.872C461.436 145.525 455.345 148.118 447.944 149.676C440.535 151.207 431.637 151.985 421.242 151.985H402.73C392.396 151.985 383.544 151.16 376.168 149.533C368.806 147.882 362.723 145.196 357.938 141.449C353.142 137.698 349.63 132.749 347.392 126.595C345.164 120.466 344.045 112.851 344.045 103.776V103.022H388.554V104.626C388.554 107.714 388.905 110.213 389.635 112.099C390.359 113.983 391.479 115.445 392.998 116.436C394.501 117.45 396.414 118.109 398.712 118.439C401.011 118.747 403.765 118.912 406.973 118.912H419.545C424.776 118.912 428.787 118.109 431.59 116.483C434.391 114.878 435.794 111.934 435.794 107.641C435.794 106.088 435.669 104.765 435.422 103.682C435.171 102.622 434.573 101.726 433.631 101.042C432.686 100.334 431.293 99.7691 429.467 99.2963C427.641 98.8246 425.177 98.4009 422.087 98.0245L387.612 93.7574C380.046 92.8144 373.633 91.2403 368.377 89.037C363.109 86.8336 358.834 83.9458 355.523 80.3854C352.211 76.8247 349.806 72.583 348.297 67.6667C346.778 62.7532 346.024 57.118 346.024 50.7536ZM266.246 44.8007C262.146 44.8007 258.68 45.0947 255.84 45.6961C253.012 46.2964 250.713 47.4296 248.945 49.1029C247.178 50.765 245.917 53.0984 245.166 56.0912C244.407 59.0878 244.033 63.0107 244.033 67.8554V92.2478C244.033 97.0338 244.407 100.901 245.166 103.87C245.917 106.84 247.178 109.149 248.945 110.826C250.713 112.499 253.012 113.608 255.84 114.172C258.68 114.739 262.146 115.021 266.246 115.021H270.877C274.966 115.021 278.43 114.739 281.272 114.172C284.1 113.608 286.398 112.499 288.165 110.87C289.933 109.222 291.204 106.936 291.995 103.965C292.783 100.996 293.172 97.1037 293.172 92.2478V67.6667C293.172 62.8233 292.795 58.8991 292.042 55.9035C291.288 52.9111 290.039 50.5999 288.305 48.9603C286.572 47.3232 284.275 46.2165 281.41 45.6499C278.538 45.0833 275.025 44.8007 270.877 44.8007H266.246ZM199.711 59.923C199.711 50.8489 200.83 43.034 203.071 36.4794C205.309 29.9248 208.796 24.5274 213.557 20.2715C218.32 16.0184 224.376 12.8817 231.754 10.8656C239.119 8.84959 247.97 7.83675 258.305 7.83675H278.996C289.389 7.83675 298.31 8.8385 305.747 10.818C313.17 12.8008 319.251 15.9135 323.977 20.1329C328.702 24.3498 332.167 29.7597 334.37 36.3365C336.573 42.9261 337.682 50.7873 337.682 59.923V100.005C337.682 109.01 336.563 116.788 334.323 123.343C332.083 129.896 328.595 135.295 323.835 139.562C319.075 143.804 313.005 146.94 305.593 148.966C298.192 150.972 289.331 151.985 278.996 151.985H258.305C247.97 151.985 239.119 150.972 231.754 148.966C224.376 146.94 218.32 143.804 213.557 139.562C208.796 135.295 205.309 129.896 203.071 123.343C200.83 116.788 199.711 109.01 199.711 100.005V59.923ZM149.063 57.7419L112.875 150.287H77.0527L41.0608 57.7419V150.287H0.419678V9.54515H62.8863L95.0092 93.1909L128.184 9.54515H189.318V150.287H149.063V57.7419Z" fill="#A89D90"/>
<path d="M809.667 68.1982C789.744 68.1982 770.784 67.2696 757.611 63.7647C751.692 62.1938 752.071 63.702 751.502 53.7059C750.693 39.5796 748.412 25.3459 750.9 11.3009C752.476 2.52469 779.342 0.581345 808.765 0.581345C831.499 0.581345 855.758 1.74139 871.051 1.80837C902.15 1.94268 933.191 2.14289 964.243 2.14289C987.363 2.14289 1010.49 2.03222 1033.64 1.702C1049.22 1.48245 1074.84 0.00938416 1098.1 0.00938416C1126.45 0.00938416 1151.28 2.1959 1150.15 11.4997C1148.36 26.6134 1153.1 41.6809 1151.35 56.7348C1150.37 65.1514 1124.37 66.9673 1095.56 66.9673C1084.61 66.9673 1073.26 66.7055 1062.72 66.4426C1052.17 66.1811 1042.45 65.9179 1034.75 65.9179C1033.88 65.9179 1033.04 65.9207 1032.22 65.929C977.527 66.4132 922.796 66.4358 868.115 67.0497C850.967 67.247 829.823 68.1982 809.667 68.1982Z" fill="#8B8072"/>
<path d="M904.363 151.571C887.021 151.571 867.22 150.358 854.813 150.358C818.992 150.358 827.406 149.951 795.832 149.951C793.486 149.951 790.919 149.954 788.101 149.958C777.054 149.98 768.969 150.667 763.458 150.667C754.965 150.667 752.594 149.033 754.958 140.812C758.098 129.848 749.175 119.311 753.636 108.516C755.978 102.82 746.966 88.5767 752.24 84.3347C756.841 80.6414 766.631 79.6297 778.837 79.6297C793.611 79.6297 811.93 81.1113 828.874 81.1113C864.374 81.1113 858.902 82.5229 874.249 82.5218C879.273 82.5218 886.524 82.3721 898.165 81.9706C906.089 81.6977 915.524 80.6622 923.183 80.6622C931.444 80.6622 937.638 81.8667 937.638 86.5256C937.638 97.5055 943.063 109.411 940.12 120.195C938.401 126.526 947.464 144.3 934.24 148.814C927.949 150.948 916.788 151.571 904.363 151.571Z" fill="#C2B8A8"/>
<path d="M1193.88 65.6323C1181.66 65.6323 1169.71 64.7147 1166.63 60.4545C1166.63 47.6716 1163.27 34.7978 1166.71 22.0511C1168.26 16.3414 1168.54 10.7832 1167.08 5.04848C1167.08 2.70365 1165.09 0.775711 1173.79 0.775711C1174.21 0.775711 1174.64 0.780006 1175.11 0.78968C1176.11 0.80938 1177.1 0.817986 1178.15 0.817986C1184.84 0.817986 1193.51 0.449783 1216.27 0.168633C1223.86 0.0776672 1231.45 0.0372162 1239.03 0.0372162C1254.03 0.0372162 1269.03 0.196587 1284.02 0.446938C1284.67 0.456963 1285.37 0.462326 1286.12 0.462326C1289.5 0.462326 1293.94 0.364563 1298.8 0.266785C1303.67 0.168655 1308.95 0.0722961 1313.99 0.0722961C1324.03 0.0722961 1333.08 0.458397 1335.89 2.00275C1340.82 4.71827 1346.7 3.58221 1346.66 7.35285C1346.66 9.18695 1346.61 11.0196 1346.51 12.8469C1346.45 15.4335 1346.29 18.0205 1346.35 20.6156C1346.54 27.7676 1348.5 34.8648 1346.42 42.0067C1345.52 44.9952 1344.1 47.9471 1343.59 50.9412C1343.13 53.6467 1346.96 59.4628 1342.49 61.5963C1336.11 64.6574 1326.22 65.1932 1315.71 65.1932C1312.86 65.1932 1309.98 65.1538 1307.1 65.1148C1304.22 65.0758 1301.35 65.0364 1298.55 65.0364C1297.45 65.0364 1296.36 65.0435 1295.29 65.0575C1286.65 65.1721 1274.34 65.2072 1261.94 65.2072C1252.81 65.2072 1243.63 65.1875 1235.85 65.1692C1228.13 65.1513 1221.78 65.1345 1218.2 65.1345C1216.64 65.1345 1215.61 65.1374 1215.21 65.1442C1209.44 65.2659 1201.6 65.6323 1193.88 65.6323Z" fill="#A4998E"/>
<path d="M996.068 151.469C982.744 151.469 970.137 150.681 960.816 147.564C946.884 142.885 955.395 125.594 955.653 118.404C955.989 108.737 956.34 99.0974 956.659 89.444C956.856 84.2354 957.919 84.1444 969.277 81.5099C973.864 80.4454 981.237 80.174 989.003 80.174C993.078 80.174 997.257 80.2481 1001.21 80.3222C1005.15 80.3978 1008.85 80.4719 1011.99 80.4719C1012.78 80.4719 1013.53 80.4676 1014.24 80.458C1100.62 79.1819 1186.65 78.3817 1273.1 78.3567C1282.13 78.3567 1291.15 78.3567 1300.16 78.3538C1305.97 78.3538 1316.94 77.6751 1325.87 77.6751C1330.32 77.6751 1334.26 77.8431 1336.82 78.3466C1354.48 81.8415 1348.64 93.7458 1348.74 99.4161C1349.08 114.786 1349.37 130.143 1349.69 145.502C1337.69 149.124 1324.75 149.75 1310.8 149.75C1307.12 149.75 1303.39 149.706 1299.57 149.663C1295.74 149.619 1291.84 149.576 1287.87 149.576C1287.15 149.576 1286.42 149.577 1285.69 149.58C1257.01 149.675 1228.33 149.781 1199.66 149.875C1144.7 150.088 1089.71 150.38 1034.75 150.652C1022.78 150.718 1009.09 151.469 996.068 151.469Z" fill="#B18D61"/>
<path fill-rule="evenodd" clip-rule="evenodd" d="M1302.04 77.8785C1311.23 77.6392 1320.41 77.1804 1329.59 77.2585C1333.57 77.2965 1337.67 78.0002 1341.48 79.1739C1348.18 81.243 1350.82 86.2585 1349.78 93.1867C1349.39 95.7679 1349.22 98.4107 1349.26 101.021C1349.45 114.48 1349.75 127.937 1349.98 141.396C1350.04 144.782 1350.05 145.062 1346.62 145.628C1339.42 146.817 1332.17 148.429 1324.93 148.544C1299.65 148.945 1274.38 148.747 1249.09 148.843C1193.06 149.053 1137.03 149.291 1081 149.545C1070.93 149.589 1060.87 149.789 1050.81 149.901C1049.61 149.911 1048.41 149.81 1047.21 149.757C1048.32 147.823 1049.35 145.842 1050.55 143.965C1055.77 135.759 1059.75 127.035 1062.47 117.656C1065.16 108.38 1067.07 98.9898 1068.27 89.4203C1068.69 86.015 1069.51 82.6573 1070.15 79.2774C1071.47 79.2591 1072.81 79.2423 1074.15 79.2244L1074.76 79.2018C1086.44 79.1055 1098.12 79.0145 1109.8 78.9096C1130.97 78.7176 1152.15 78.5163 1173.32 78.3247C1174.41 78.3147 1175.5 78.3903 1176.59 78.4239C1176.81 80.2498 1176.91 82.105 1177.29 83.8958C1179.18 92.6229 1183.34 100.262 1189.5 106.59C1194.63 111.854 1201 115.451 1208 117.884C1213.56 119.819 1219.3 120.9 1225.09 121.726C1231.11 122.58 1236.04 121.117 1239.16 115.364C1241.59 110.869 1244.37 106.56 1246.83 102.079C1249.41 97.4018 1251.77 92.6047 1254.28 87.8813C1255.74 85.1254 1257.72 82.5244 1256.17 79.1026C1256.06 78.8509 1256.52 78.3387 1256.7 77.9498C1271.61 77.9343 1286.51 77.9146 1301.41 77.8978L1302.04 77.8785Z" fill="#BC9361"/>
<path fill-rule="evenodd" clip-rule="evenodd" d="M816.073 149.397C801.95 149.397 787.832 149.357 773.709 149.42C769.892 149.439 766.082 149.82 762.262 149.929C760.969 149.964 759.655 149.757 758.377 149.515C753.89 148.671 752.433 147.503 753.697 143.145C756.131 134.717 753.313 127 752.024 118.991C751.512 115.851 752.211 112.523 752.322 109.281C752.422 106.596 752.834 103.859 752.454 101.238C751.949 97.696 750.753 94.2584 749.962 90.751C748.981 86.4546 750.084 83.9278 754.173 82.3763C757.406 81.155 760.862 80.0329 764.263 79.8581C772.313 79.4484 780.394 79.6275 788.458 79.5698L789.113 79.5852C802.677 79.8793 816.234 80.1672 829.79 80.4667C838.534 80.6611 847.282 80.7901 856.023 81.106C862.894 81.3509 869.758 82.2073 876.615 82.1317C887.862 82.0056 899.099 81.3398 910.349 80.9144C915.799 80.7088 921.26 80.4137 926.717 80.4108C928.858 80.4079 931.021 80.9899 933.126 81.4881C936.163 82.2073 937.061 84.5267 937.401 87.3583C938.307 94.9257 939.435 102.469 940.259 110.045C940.535 112.603 940.61 115.339 939.987 117.799C939.006 121.699 939.972 125.382 940.273 129.162C940.549 132.633 940.954 136.144 940.728 139.6C940.449 143.811 937.838 146.731 933.878 147.941C930.566 148.946 927.089 149.67 923.641 149.911C916.78 150.393 909.891 150.684 903.012 150.645C890.77 150.568 878.52 150.166 866.274 149.945C849.542 149.642 832.812 149.382 816.08 149.104L816.073 149.397Z" fill="#BCB1A0"/>
<path fill-rule="evenodd" clip-rule="evenodd" d="M1301.38 0.295952C1311.44 0.475029 1321.51 0.262283 1331.52 0.999367C1336.19 1.34355 1340.74 3.47028 1345.29 4.93763C1345.93 5.14214 1346.36 6.1618 1346.75 6.87954C1346.94 7.22086 1346.8 7.73732 1346.81 8.17392C1347.03 15.9301 1347.17 23.6877 1347.49 31.4385C1347.69 36.4204 1347.32 41.2598 1345.28 45.8764C1343.96 48.8774 1343.71 51.8826 1344.56 55.1368C1345.66 59.285 1344.83 60.9622 1340.71 61.9725C1335.76 63.1852 1330.66 64.4431 1325.61 64.4835C1293.44 64.7353 1261.27 64.615 1229.09 64.716C1217.83 64.7493 1206.56 65.067 1195.31 65.2407C1193.88 65.2615 1192.46 65.183 1191.05 65.1497C1191.05 63.8374 1191.05 62.5252 1191.05 61.214C1191.01 52.0126 1195.8 45.794 1203.79 43.0448C1209.98 40.9113 1216.49 39.5514 1222.97 38.386C1230.64 37.0053 1238.37 35.8732 1245.74 33.2543C1262 27.458 1278.18 21.427 1294.43 15.5676C1295.87 15.0472 1296.41 14.1783 1296.86 12.8632C1298.31 8.64953 1299.87 4.48026 1301.38 0.295952Z" fill="#9B9184"/>
<path fill-rule="evenodd" clip-rule="evenodd" d="M1070.15 79.2779C1069.51 82.6578 1068.69 86.0155 1068.27 89.4208C1067.07 98.9903 1065.16 108.381 1062.47 117.656C1059.75 127.036 1055.77 135.76 1050.55 143.965C1049.35 145.843 1048.32 147.824 1047.21 149.757C1046.77 149.82 1046.35 149.936 1045.91 149.939C1027.02 150.181 1008.12 150.478 989.226 150.625C980.814 150.691 972.468 149.763 964.243 147.966C963.838 147.88 963.48 147.601 963.104 147.412C964.827 141.72 966.996 136.121 968.132 130.318C969.059 125.537 969.091 120.364 964.461 116.901C961.812 114.921 959.047 112.941 955.374 113.852C955.599 105.661 955.707 97.4653 956.09 89.2826C956.294 84.8769 957.081 84.1592 961.292 82.8946C967.91 80.9065 974.656 79.7328 981.574 79.7353C991.095 79.7453 1000.61 79.7887 1010.12 79.8363C1010.87 79.8388 1011.63 79.9871 1012.39 80.0684C1010.18 84.2401 1007.97 88.4166 1005.74 92.5826C1003.37 97.0484 1000.97 101.503 998.575 105.963C995.811 108.409 993.05 110.854 990.286 113.297C988.624 114.76 990.192 115.504 990.966 116.438C991.768 117.396 992.466 117.835 993.555 116.641C996.047 113.907 998.664 111.284 1001.24 108.617C1007.78 107.194 1014.38 105.939 1020.88 104.3C1027.02 102.75 1026.26 103.883 1026.13 97.5004C1026.01 91.5866 1027.77 86.6104 1032.14 82.5754C1033.06 81.7262 1033.85 80.7317 1034.7 79.8026C1040.35 79.7271 1045.99 79.6572 1051.63 79.5745C1057.8 79.4835 1063.97 79.3786 1070.15 79.2779Z" fill="#C29A68"/>
<path fill-rule="evenodd" clip-rule="evenodd" d="M858.035 1.62267C870.249 1.72762 882.459 1.86336 894.677 1.92461C913.114 2.01558 931.554 2.04923 949.995 2.11514C950.862 2.11657 951.732 2.19214 952.609 2.23547C953.318 4.94526 953.701 7.80763 954.85 10.3247C955.946 12.7423 957.507 15.1455 959.437 16.9463C963.62 20.8552 968.797 23.0865 974.337 24.532C980.703 26.1895 987.041 27.9831 993.4 29.7012C994.464 29.9881 995.549 30.1879 996.627 30.4286C1003.63 30.6471 1010.63 30.8666 1017.64 31.0862C1018.73 32.2896 1019.76 33.56 1020.94 34.6846C1024.45 38.048 1028.17 41.204 1031.52 44.71C1038.8 52.3111 1047.39 57.8442 1057.13 61.7083C1060.42 63.0167 1063.64 64.5388 1066.89 65.96C1058.82 65.8873 1050.75 65.763 1042.68 65.7515C1030.68 65.7419 1018.68 65.8217 1006.68 65.8386C997.407 65.8497 988.133 65.8189 978.863 65.8063C976.675 62.3158 974.358 58.895 972.321 55.3189C970 51.2338 967.687 47.1501 963.985 44.1409C961.041 41.7441 957.901 40.246 953.787 41.4504C948.369 43.0342 944.069 46.2253 940.084 49.9326C938.504 51.4017 936.958 51.7864 935.053 51.1808C925.08 48.0176 916.189 42.9654 908.133 36.2851C904.728 33.4647 901.043 30.8666 897.169 28.736C891.458 25.591 885.832 27.2332 882.001 32.3344C880.06 34.9224 878.27 37.6239 876.415 40.2739C875.115 35.6011 873.737 30.949 872.537 26.2525C870.679 18.9383 868.935 11.5937 867.148 4.26263C866.797 2.80602 866.002 2.14164 864.391 2.14021C862.268 2.14021 860.148 1.81142 858.035 1.62267Z" fill="#9B805D"/>
<path fill-rule="evenodd" clip-rule="evenodd" d="M833.042 34.56L833.432 34.3612C832.977 33.5203 832.526 32.6808 832.068 31.8416C831.549 32.7033 830.947 33.5289 830.532 34.4397C830.324 34.8999 830.292 35.5811 830.482 36.0385C830.722 36.6219 831.262 37.0782 831.67 37.5889C832.129 37.1244 832.723 36.7254 832.995 36.1717C833.214 35.7351 833.042 35.104 833.042 34.56ZM798.241 47.5008L797.614 46.9804L797.403 47.3246L798.241 47.5065C798.635 48.2257 798.95 49.0007 799.448 49.64C799.705 49.9771 800.275 50.0795 800.701 50.289C800.951 49.7156 801.356 49.1504 801.388 48.5613C801.406 48.2411 800.851 47.6759 800.465 47.585C799.763 47.417 798.986 47.5148 798.241 47.5008ZM837.009 67.2247C824.47 67.451 811.93 67.8246 799.394 67.8683C786.736 67.9131 774.114 67.1462 761.671 64.5819C759.336 64.0976 757.034 63.4247 754.746 62.7209C750.804 61.4982 750.814 61.462 751.022 57.3515C754.044 57.1401 757.081 57.0341 760.088 56.7025C771.396 55.4529 782.02 51.6951 792.548 47.6745C795.434 46.5732 795.405 46.3328 793.12 44.0256C790.123 41.0053 787.159 37.937 784.068 35.0062C781.232 32.3144 778.332 29.6841 775.321 27.1895C768.457 21.5053 760.296 18.0441 752.411 14.1169C751.684 13.7534 750.646 14.012 749.751 13.9826C749.586 9.74495 751.896 7.06023 755.648 5.9453C760.744 4.43031 765.932 2.89955 771.185 2.30072C795.119 -0.441307 819.156 0.812248 843.168 1.08767C843.576 1.09483 843.992 1.3047 844.407 1.42075C842.477 1.65319 843.483 2.69541 843.927 3.42139C847.232 8.83166 848.539 14.7942 848.815 21.0354C849.323 32.439 846.151 43.0994 842.18 53.5923C840.461 58.1379 838.735 62.6804 837.009 67.2247Z" fill="#817567"/>
<path fill-rule="evenodd" clip-rule="evenodd" d="M1301.38 0.29615C1299.87 4.48046 1298.31 8.64972 1296.86 12.8634C1296.41 14.1785 1295.87 15.0474 1294.43 15.5678C1278.18 21.4272 1262 27.4582 1245.74 33.2545C1238.37 35.8734 1230.64 37.0055 1222.97 38.3862C1216.49 39.5516 1209.98 40.9115 1203.79 43.045C1195.8 45.7942 1191.01 52.0128 1191.05 61.2141C1191.05 62.5253 1191.05 63.8376 1191.05 65.1499C1184.87 64.5525 1178.69 64.0332 1172.53 63.299C1171.07 63.1238 1169.58 62.4104 1168.34 61.5963C1167.55 61.0856 1166.77 59.9452 1166.72 59.043C1166.16 49.8836 1165.47 40.7156 1165.43 31.5476C1165.41 27.1423 1166.56 22.703 1167.45 18.3353C1168.34 13.9422 1168 9.64575 1167.18 5.32427C1166.52 1.85448 1167.13 1.05008 1170.7 0.859894C1172.01 0.787193 1173.32 0.890686 1174.63 0.917191C1176.24 3.88163 1177.63 6.97786 1179.49 9.77433C1182.31 14.0346 1187.08 14.7004 1191.45 12.0046C1196.44 8.91836 1200.16 4.50446 1204.15 0.357399C1212.55 0.276459 1220.95 0.126747 1229.35 0.125313C1252.82 0.118149 1276.28 0.170082 1299.75 0.203751C1300.3 0.205185 1300.84 0.262482 1301.38 0.29615Z" fill="#B39978"/>
<path fill-rule="evenodd" clip-rule="evenodd" d="M1049.65 1.40968C1050.39 1.27538 1051.13 1.02896 1051.87 1.02073C1072.97 0.738144 1094.08 0.224548 1115.18 0.352051C1122.89 0.399689 1130.58 1.95373 1138.27 2.86057C1139.01 2.94868 1139.72 3.31113 1140.44 3.54321C1138.64 5.44179 1136.9 7.40015 1135.04 9.22316C1130.35 13.7896 1131.02 21.5419 1135.3 24.9554C1138.61 27.5968 1141.77 30.4244 1145.1 33.0307C1146.78 34.3387 1148.05 35.7391 1147.5 37.9568C1145.86 44.574 1144.12 51.1665 1142.42 57.7741C1141.96 59.5524 1141.53 61.336 1141.09 63.1199C1135.49 64.0013 1129.93 65.2549 1124.3 65.6703C1116.36 66.2552 1108.37 66.2187 1100.39 66.4482C1100.17 64.6224 1100.04 62.7825 1099.73 60.9724C1098.76 55.4307 1096.82 50.2543 1093.18 45.9074C1087.94 39.6537 1081.02 36.1477 1073.18 34.3541C1066.21 32.7592 1059.22 31.3449 1052.26 29.7318C1046.33 28.355 1040.42 26.8834 1035.37 23.2026C1035.73 20.6225 1037.34 19.2543 1039.75 18.5577C1044.1 17.2999 1048.45 16.0421 1052.76 14.6349C1057.25 13.1657 1059.22 9.64579 1058.32 5.04709C1057.8 2.37777 1056.74 1.54828 1053.88 1.52571C1052.47 1.51318 1051.06 1.45015 1049.65 1.40968Z" fill="#9B805D"/>
<path fill-rule="evenodd" clip-rule="evenodd" d="M1256.7 77.9499C1256.52 78.3389 1256.06 78.851 1256.17 79.1028C1257.73 82.5246 1255.74 85.1255 1254.28 87.8815C1251.77 92.6049 1249.41 97.402 1246.83 102.079C1244.37 106.56 1241.59 110.869 1239.16 115.364C1236.04 121.117 1231.11 122.581 1225.09 121.726C1219.3 120.9 1213.56 119.819 1208 117.884C1201 115.451 1194.63 111.854 1189.5 106.59C1183.34 100.262 1179.18 92.6231 1177.3 83.896C1176.91 82.1052 1176.82 80.25 1176.59 78.4241C1178.66 78.3765 1180.73 78.2984 1182.8 78.283C1206.24 78.1107 1229.68 77.9485 1253.12 77.7945C1254.32 77.7877 1255.51 77.8955 1256.7 77.9499Z" fill="#C6A16F"/>
<path fill-rule="evenodd" clip-rule="evenodd" d="M876.415 40.2736C878.27 37.6236 880.06 34.9221 882.001 32.334C885.832 27.2329 891.457 25.5907 897.169 28.7357C901.043 30.8663 904.727 33.4644 908.133 36.2848C916.189 42.9651 925.08 48.0172 935.053 51.1804C936.958 51.7861 938.504 51.4014 940.083 49.9323C944.069 46.225 948.369 43.0339 953.787 41.4501C957.901 40.2457 961.041 41.7438 963.985 44.1406C967.687 47.1498 970 51.2334 972.321 55.3185C974.358 58.8947 976.675 62.3154 978.863 65.806C966.749 65.883 954.635 65.9514 942.515 66.0424C918.728 66.2229 894.934 66.4145 871.144 66.5921C870.052 66.6004 868.967 66.5263 867.878 66.4915C870.038 65.5456 872.175 64.5578 874.349 63.6653C876.447 62.805 877.213 61.3499 877.106 59.0781C876.784 52.8143 876.63 46.5427 876.415 40.2736Z" fill="#817567"/>
<path fill-rule="evenodd" clip-rule="evenodd" d="M1035.37 23.2026C1040.42 26.8834 1046.33 28.355 1052.26 29.7318C1059.22 31.3449 1066.21 32.7592 1073.18 34.3541C1081.02 36.1477 1087.94 39.6537 1093.18 45.9074C1096.82 50.2543 1098.76 55.4307 1099.73 60.9724C1100.04 62.7825 1100.17 64.6224 1100.39 66.4482C1089.23 66.286 1078.06 66.1223 1066.89 65.9597C1063.64 64.5386 1060.42 63.0164 1057.13 61.7081C1047.39 57.844 1038.8 52.3108 1031.52 44.7097C1028.17 41.2038 1024.45 38.0477 1020.94 34.6843C1019.76 33.5597 1018.73 32.2893 1017.64 31.0859C1023.55 28.4571 1029.46 25.83 1035.37 23.2026Z" fill="#817567"/>
<path fill-rule="evenodd" clip-rule="evenodd" d="M876.415 40.2735C876.63 46.5427 876.784 52.8143 877.106 59.078C877.213 61.3498 876.447 62.805 874.349 63.6653C872.175 64.5578 870.038 65.5456 867.879 66.4915C857.588 66.7361 847.3 66.9796 837.009 67.2246C838.735 62.6804 840.461 58.1379 842.18 53.5922C846.151 43.0994 849.323 32.4389 848.815 21.0353C848.539 14.7941 847.232 8.83158 843.927 3.42131C843.483 2.69533 842.477 1.6531 844.407 1.42066C848.947 1.48656 853.488 1.55496 858.035 1.6223C860.148 1.81104 862.268 2.13983 864.391 2.13983C866.002 2.14127 866.797 2.80565 867.148 4.26226C868.935 11.5933 870.679 18.9379 872.537 26.2522C873.737 30.9486 875.115 35.6007 876.415 40.2735Z" fill="#907451"/>
<path fill-rule="evenodd" clip-rule="evenodd" d="M1035.37 23.2026C1029.46 25.83 1023.55 28.4571 1017.64 31.0859C1010.63 30.8664 1003.63 30.6468 996.627 30.4284C997.125 27.4596 997.823 24.5106 998.08 21.5236C998.338 18.5366 998.17 15.5148 998.181 12.5067C998.199 8.67053 996.226 5.50874 994.654 2.21838C1007.2 2.01137 1019.75 1.79721 1032.3 1.60416C1038.08 1.51749 1043.87 1.47557 1049.65 1.40967C1051.06 1.45015 1052.47 1.51317 1053.88 1.52571C1056.74 1.54827 1057.8 2.37777 1058.32 5.04709C1059.22 9.64578 1057.25 13.1657 1052.76 14.6349C1048.45 16.0421 1044.1 17.2999 1039.75 18.5577C1037.34 19.2543 1035.73 20.6225 1035.37 23.2026Z" fill="#907451"/>
<path fill-rule="evenodd" clip-rule="evenodd" d="M749.751 13.9822C750.646 14.0116 751.685 13.753 752.412 14.1165C760.296 18.0437 768.457 21.5049 775.321 27.1891C778.332 29.6837 781.233 32.314 784.069 35.0059C787.159 37.9366 790.124 41.0049 793.121 44.0252C795.405 46.3325 795.434 46.5728 792.548 47.6741C782.02 51.6948 771.396 55.4525 760.089 56.7021C757.081 57.0337 754.044 57.1398 751.022 57.3511C750.331 46.8024 749.511 36.2633 749.031 25.7078C748.856 21.8183 749.486 17.894 749.751 13.9822Z" fill="#907451"/>
<path fill-rule="evenodd" clip-rule="evenodd" d="M994.654 2.21824C996.226 5.5086 998.199 8.67039 998.181 12.5066C998.17 15.5147 998.339 18.5364 998.081 21.5234C997.823 24.5104 997.125 27.4595 996.627 30.4282C995.549 30.1875 994.464 29.9877 993.401 29.7008C987.042 27.9827 980.704 26.1891 974.337 24.5316C968.798 23.0861 963.62 20.8548 959.438 16.9459C957.508 15.1451 955.947 12.7419 954.851 10.3243C953.701 7.80723 953.318 4.94486 952.609 2.23507C966.621 2.22791 980.639 2.22361 994.654 2.21824Z" fill="#807466"/>
<path fill-rule="evenodd" clip-rule="evenodd" d="M998.575 105.962C1000.97 101.502 1003.37 97.0475 1005.74 92.5817C1007.97 88.4156 1010.18 84.2392 1012.39 80.0674C1016.33 80.0058 1020.28 79.9442 1024.23 79.884L1024.84 79.8647C1028.13 79.8407 1031.42 79.8214 1034.7 79.8017C1033.85 80.7307 1033.06 81.7253 1032.14 82.5745C1027.77 86.6094 1026.01 91.5856 1026.13 97.4995C1026.26 103.882 1027.02 102.749 1020.88 104.299C1014.38 105.938 1007.78 107.193 1001.24 108.616C1000.34 107.729 999.463 106.847 998.575 105.962Z" fill="#BB9361"/>
<path fill-rule="evenodd" clip-rule="evenodd" d="M1141.09 63.1196C1141.53 61.3357 1141.96 59.5521 1142.42 57.7738C1144.12 51.1662 1145.86 44.5737 1147.5 37.9565C1148.05 35.7388 1146.78 34.3384 1145.1 33.0304C1141.77 30.4241 1138.61 27.5965 1135.3 24.9551C1131.02 21.5416 1130.35 13.7893 1135.04 9.22285C1136.9 7.39985 1138.65 5.44149 1140.44 3.54291C1141.99 4.00744 1143.62 4.31509 1145.08 4.96729C1149.46 6.91027 1150.05 8.85648 1149.93 13.6776C1149.77 20.0796 1150.36 26.4998 1150.63 32.9129C1150.94 40.3052 1151.32 47.695 1151.52 55.0934C1151.59 57.3988 1150.49 59.4038 1148.32 60.3901C1145.97 61.4517 1143.5 62.2228 1141.09 63.1196Z" fill="#B29977"/>
<path fill-rule="evenodd" clip-rule="evenodd" d="M955.374 113.852C959.047 112.941 961.812 114.921 964.461 116.9C969.091 120.363 969.059 125.536 968.131 130.317C966.996 136.12 964.826 141.719 963.104 147.412C955.624 146.004 952.312 142.266 952.555 134.885C952.674 131.312 953.494 127.767 953.981 124.203C954.457 120.757 954.912 117.305 955.374 113.852Z" fill="#B28855"/>
<path fill-rule="evenodd" clip-rule="evenodd" d="M1204.15 0.357946C1200.16 4.50501 1196.44 8.9189 1191.45 12.0051C1187.08 14.7009 1182.31 14.0351 1179.49 9.77487C1177.63 6.97841 1176.24 3.88217 1174.63 0.917736C1184.47 0.72899 1194.31 0.542753 1204.15 0.357946Z" fill="#9B9184"/>
</g>
<defs>
<clipPath id="clip0_58_2">
<rect width="1350" height="329" fill="white"/>
</clipPath>
</defs>
</svg>
