<svg width="664" height="329" viewBox="0 0 664 329" fill="none" xmlns="http://www.w3.org/2000/svg">
<rect x="134" y="179" width="31" height="34" fill="white"/>
<rect x="478" y="179" width="43" height="34" fill="white"/>
<rect x="405" y="292" width="38" height="34" fill="white"/>
<rect x="593" y="179" width="61" height="34" fill="white"/>
<rect x="261" y="4" width="139" height="140" fill="white"/>
<rect y="208" width="660" height="84" fill="white"/>
<path d="M273.739 18.02H386.873V131.206L273.739 18.02Z" fill="#D10A10"/>
<path fill-rule="evenodd" clip-rule="evenodd" d="M255.566 0H404.868V149.418H255.566V0ZM263.368 7.70869H397.171V141.743H263.368V7.70869Z" fill="#00478A"/>
<mask id="path-9-inside-1_2592_30" fill="white">
<path fill-rule="evenodd" clip-rule="evenodd" d="M435.816 288.485V319.483H411.732V288.485L0 288.485V294.643H401.434V329H445.218V294.596H664V288.485L435.816 288.485Z"/>
<path fill-rule="evenodd" clip-rule="evenodd" d="M67.3507 283.42C65.8766 285.041 63.771 286.047 61.4153 286.047H11.1177V283.42L0 283.42V288.485L411.732 288.485V283.422L366.274 283.42V285.173H343.088V283.421L329.761 283.42C328.378 284.518 326.627 285.175 324.723 285.175H282.529C280.625 285.175 278.875 284.518 277.492 283.418L264.349 283.42V285.108H241.08V283.421L229.8 283.42V285.108H206.689V283.421L196.471 283.42V285.137H174.168V283.421L162.146 283.42V285.137H138.031V283.42L127.888 283.42V285.158H88.8574L86.9901 285.154C85.102 285.154 83.3643 284.507 81.9863 283.422L67.3507 283.42ZM467.056 283.42C465.685 284.482 463.961 285.117 462.09 285.117L435.816 285.115V288.485L664 288.485V283.421L653.69 283.42V285.161H630.536V283.421L620.237 283.42V285.169H597.827V283.421L587.685 283.42V285.197L536.361 285.209C534.439 285.209 532.671 284.538 531.282 283.417L503.583 283.42V285.173H480.28V283.421L467.056 283.42Z"/>
<path fill-rule="evenodd" clip-rule="evenodd" d="M69.4987 278.356C69.3571 280.317 68.5701 282.078 67.3507 283.419L81.9863 283.42C80.4255 282.194 79.3263 280.405 78.9919 278.358L69.4987 278.356ZM127.888 278.356V283.42L138.031 283.42V278.357L127.888 278.356ZM162.146 278.356V283.42L174.168 283.421V278.357L162.146 278.356ZM196.471 278.356V283.42L206.689 283.421V278.357L196.471 278.356ZM229.8 278.356V283.42L241.08 283.421V278.357L229.8 278.356ZM264.349 278.356V283.42L277.492 283.42C275.942 282.185 274.853 280.396 274.526 278.352L264.349 278.356ZM332.726 278.356C332.399 280.396 331.311 282.185 329.761 283.418L343.088 283.421V278.357L332.726 278.356ZM366.274 278.356V283.42L411.732 283.42V278.357L366.274 278.356ZM470.083 278.356C469.74 280.404 468.629 282.194 467.056 283.416L480.28 283.421V278.357L470.083 278.356ZM503.583 278.356V283.42L531.282 283.42C529.746 282.179 528.671 280.392 528.354 278.353L503.583 278.356ZM587.685 278.356V283.42L597.827 283.421V278.357L587.685 278.356ZM620.237 278.356V283.42L630.536 283.421V278.357L620.237 278.356ZM653.69 278.356V283.42L664 283.421V278.355L653.69 278.356ZM0 283.42V278.357L11.1177 278.356V283.42L0 283.42Z"/>
<path fill-rule="evenodd" clip-rule="evenodd" d="M69.5094 227.711V231.935H34.3859V242.168H69.5208V277.831C69.5183 278.008 69.5107 278.182 69.4987 278.356L78.9919 278.356C78.9217 277.928 78.8851 277.487 78.8851 277.037V227.712L69.5094 227.711ZM127.852 227.711V231.936H102.94V269.732H127.888V278.356L138.031 278.356V227.713L127.852 227.711ZM196.471 227.711V278.356L206.689 278.357V227.713L196.471 227.711ZM264.349 227.711V278.356L274.526 278.356C274.459 277.931 274.424 277.499 274.424 277.059V227.712L264.349 227.711ZM332.828 227.711V277.059C332.828 277.499 332.794 277.931 332.726 278.351L343.088 278.357V227.712L332.828 227.711ZM401.435 227.711L401.436 242.285H377.469V232.772H366.274V278.356L411.732 278.356V227.712L401.435 227.711ZM470.196 227.711V277.001C470.196 277.462 470.157 277.915 470.083 278.356L480.28 278.356V227.712L470.196 227.711ZM518.926 227.711V232.655H503.583V278.356L528.354 278.356C528.289 277.942 528.256 277.521 528.256 277.093V227.712L518.926 227.711ZM586.793 227.711L586.798 261.006H552.477V269.725H587.685V278.356L597.827 278.356V227.712L586.793 227.711ZM620.237 227.711V278.356L630.536 278.357V227.714L620.237 227.711ZM653.69 227.711V278.356L664 278.355V227.712L653.69 227.711ZM0 278.357V227.712L11.1177 227.711V260.206H46.3597V269.691H11.1177V278.356L0 278.357ZM174.168 278.356V232.777H162.146V278.356L174.168 278.356ZM241.08 278.356V232.819H229.8V278.356L241.08 278.356ZM552.477 232.695H563.527V242.174H552.477V232.695ZM434.881 231.894H446.894V269.598H434.881V231.894ZM297.631 232.772H309.585V269.598H297.631V232.772Z"/>
<path fill-rule="evenodd" clip-rule="evenodd" d="M69.5094 222.647V227.711L78.8851 227.711V224.519C78.8851 223.874 78.9603 223.246 79.1019 222.644L69.5094 222.647ZM127.852 222.647V227.711L138.031 227.711V222.649L127.852 222.647ZM196.24 222.647C196.391 223.263 196.471 223.909 196.471 224.574V227.711L206.689 227.711V222.647L196.24 222.647ZM264.117 222.647C264.269 223.268 264.349 223.917 264.349 224.585V227.711L274.424 227.712V224.61C274.424 223.932 274.507 223.273 274.664 222.644L264.117 222.647ZM332.589 222.647C332.746 223.273 332.828 223.932 332.828 224.61V227.711L343.088 227.711V222.648L332.589 222.647ZM401.196 222.647C401.352 223.273 401.436 223.932 401.436 224.61L401.435 227.711L411.732 227.711V222.649L401.196 222.647ZM469.986 222.647C470.123 223.241 470.196 223.859 470.196 224.494V227.712L480.28 227.711V222.649L469.986 222.647ZM518.926 222.647V227.711L528.256 227.712V224.577C528.256 223.912 528.337 223.265 528.487 222.646L518.926 222.647ZM586.561 222.647C586.712 223.265 586.792 223.912 586.792 224.577L586.793 227.711L597.827 227.711V222.648L586.561 222.647ZM620.237 222.647V227.711L630.536 227.711V222.649L620.237 222.647ZM653.69 222.647V227.712L664 227.711V222.647L653.69 222.647ZM0 227.711V222.647L11.5881 222.647C11.2836 223.5 11.1177 224.42 11.1177 225.378V227.711L0 227.711Z"/>
<path fill-rule="evenodd" clip-rule="evenodd" d="M69.5094 217.582V222.647L79.1019 222.647C79.605 220.507 80.9496 218.697 82.7669 217.585L69.5094 217.582ZM127.852 217.582V222.647L138.031 222.647V217.584L127.852 217.582ZM192.458 217.582C194.324 218.673 195.714 220.487 196.24 222.645L206.689 222.647V217.584L192.458 217.582ZM260.349 217.582C262.207 218.68 263.591 220.494 264.117 222.647L274.664 222.647C275.201 220.486 276.599 218.669 278.474 217.582H260.349ZM328.779 217.582C330.653 218.669 332.053 220.486 332.589 222.644L343.088 222.647V217.584L328.779 217.582ZM397.386 217.582C399.26 218.669 400.66 220.486 401.196 222.644L411.732 222.647V217.584L397.386 217.582ZM466.34 217.582C468.151 218.7 469.489 220.513 469.986 222.649L480.28 222.647V217.584L466.34 217.582ZM518.926 217.582V222.647L528.487 222.646C529.011 220.496 530.39 218.683 532.243 217.585L518.926 217.582ZM582.806 217.582C584.659 218.683 586.037 220.497 586.561 222.647L597.827 222.647V217.584L582.806 217.582ZM620.237 217.582V222.647L630.536 222.647V217.584L620.237 217.582ZM653.69 217.582V222.647L664 222.647V217.584L653.69 217.582ZM0 222.647V217.583L16.9559 217.582C14.4578 218.311 12.4577 220.209 11.5881 222.647L0 222.647Z"/>
<path fill-rule="evenodd" clip-rule="evenodd" d="M0 217.583V207.044H127.865V172.654H170.692V207.02H470.104V172.642H528.457V207.034H586.723V172.642H664V217.584L653.69 217.582V181.277H630.536V217.584L620.237 217.582V216.411H597.827V217.584L582.806 217.582C581.599 216.871 580.191 216.461 578.687 216.461H536.361C534.858 216.461 533.45 216.871 532.243 217.585L518.926 217.582V216.378H502.67V196.648H519.101V181.19H488.386C483.909 181.19 480.28 184.824 480.28 189.306V217.584L466.34 217.582C465.104 216.818 463.649 216.378 462.09 216.378H411.732V217.584L397.386 217.582C396.193 216.89 394.808 216.494 393.33 216.494H343.088V217.584L328.779 217.582C327.586 216.89 326.201 216.494 324.723 216.494H282.529C281.052 216.494 279.666 216.89 278.474 217.582H260.349C259.145 216.876 257.743 216.469 256.244 216.469H206.689V217.584L192.458 217.582C191.257 216.881 189.858 216.479 188.365 216.479L161.304 216.478V181.262H138.031V217.584L127.852 217.582V216.403H86.9775C85.4338 216.403 83.9926 216.835 82.7669 217.585L69.5094 217.582V217.302L19.2229 217.262C18.4362 217.262 17.6754 217.374 16.9559 217.584L0 217.583ZM597.043 181.201H620.203V206.974H597.043V181.201Z"/>
</mask>
<path fill-rule="evenodd" clip-rule="evenodd" d="M435.816 288.485V319.483H411.732V288.485L0 288.485V294.643H401.434V329H445.218V294.596H664V288.485L435.816 288.485Z" fill="#00478A"/>
<path fill-rule="evenodd" clip-rule="evenodd" d="M67.3507 283.42C65.8766 285.041 63.771 286.047 61.4153 286.047H11.1177V283.42L0 283.42V288.485L411.732 288.485V283.422L366.274 283.42V285.173H343.088V283.421L329.761 283.42C328.378 284.518 326.627 285.175 324.723 285.175H282.529C280.625 285.175 278.875 284.518 277.492 283.418L264.349 283.42V285.108H241.08V283.421L229.8 283.42V285.108H206.689V283.421L196.471 283.42V285.137H174.168V283.421L162.146 283.42V285.137H138.031V283.42L127.888 283.42V285.158H88.8574L86.9901 285.154C85.102 285.154 83.3643 284.507 81.9863 283.422L67.3507 283.42ZM467.056 283.42C465.685 284.482 463.961 285.117 462.09 285.117L435.816 285.115V288.485L664 288.485V283.421L653.69 283.42V285.161H630.536V283.421L620.237 283.42V285.169H597.827V283.421L587.685 283.42V285.197L536.361 285.209C534.439 285.209 532.671 284.538 531.282 283.417L503.583 283.42V285.173H480.28V283.421L467.056 283.42Z" fill="#00478A"/>
<path fill-rule="evenodd" clip-rule="evenodd" d="M69.4987 278.356C69.3571 280.317 68.5701 282.078 67.3507 283.419L81.9863 283.42C80.4255 282.194 79.3263 280.405 78.9919 278.358L69.4987 278.356ZM127.888 278.356V283.42L138.031 283.42V278.357L127.888 278.356ZM162.146 278.356V283.42L174.168 283.421V278.357L162.146 278.356ZM196.471 278.356V283.42L206.689 283.421V278.357L196.471 278.356ZM229.8 278.356V283.42L241.08 283.421V278.357L229.8 278.356ZM264.349 278.356V283.42L277.492 283.42C275.942 282.185 274.853 280.396 274.526 278.352L264.349 278.356ZM332.726 278.356C332.399 280.396 331.311 282.185 329.761 283.418L343.088 283.421V278.357L332.726 278.356ZM366.274 278.356V283.42L411.732 283.42V278.357L366.274 278.356ZM470.083 278.356C469.74 280.404 468.629 282.194 467.056 283.416L480.28 283.421V278.357L470.083 278.356ZM503.583 278.356V283.42L531.282 283.42C529.746 282.179 528.671 280.392 528.354 278.353L503.583 278.356ZM587.685 278.356V283.42L597.827 283.421V278.357L587.685 278.356ZM620.237 278.356V283.42L630.536 283.421V278.357L620.237 278.356ZM653.69 278.356V283.42L664 283.421V278.355L653.69 278.356ZM0 283.42V278.357L11.1177 278.356V283.42L0 283.42Z" fill="#00478A"/>
<path fill-rule="evenodd" clip-rule="evenodd" d="M69.5094 227.711V231.935H34.3859V242.168H69.5208V277.831C69.5183 278.008 69.5107 278.182 69.4987 278.356L78.9919 278.356C78.9217 277.928 78.8851 277.487 78.8851 277.037V227.712L69.5094 227.711ZM127.852 227.711V231.936H102.94V269.732H127.888V278.356L138.031 278.356V227.713L127.852 227.711ZM196.471 227.711V278.356L206.689 278.357V227.713L196.471 227.711ZM264.349 227.711V278.356L274.526 278.356C274.459 277.931 274.424 277.499 274.424 277.059V227.712L264.349 227.711ZM332.828 227.711V277.059C332.828 277.499 332.794 277.931 332.726 278.351L343.088 278.357V227.712L332.828 227.711ZM401.435 227.711L401.436 242.285H377.469V232.772H366.274V278.356L411.732 278.356V227.712L401.435 227.711ZM470.196 227.711V277.001C470.196 277.462 470.157 277.915 470.083 278.356L480.28 278.356V227.712L470.196 227.711ZM518.926 227.711V232.655H503.583V278.356L528.354 278.356C528.289 277.942 528.256 277.521 528.256 277.093V227.712L518.926 227.711ZM586.793 227.711L586.798 261.006H552.477V269.725H587.685V278.356L597.827 278.356V227.712L586.793 227.711ZM620.237 227.711V278.356L630.536 278.357V227.714L620.237 227.711ZM653.69 227.711V278.356L664 278.355V227.712L653.69 227.711ZM0 278.357V227.712L11.1177 227.711V260.206H46.3597V269.691H11.1177V278.356L0 278.357ZM174.168 278.356V232.777H162.146V278.356L174.168 278.356ZM241.08 278.356V232.819H229.8V278.356L241.08 278.356ZM552.477 232.695H563.527V242.174H552.477V232.695ZM434.881 231.894H446.894V269.598H434.881V231.894ZM297.631 232.772H309.585V269.598H297.631V232.772Z" fill="#00478A"/>
<path fill-rule="evenodd" clip-rule="evenodd" d="M69.5094 222.647V227.711L78.8851 227.711V224.519C78.8851 223.874 78.9603 223.246 79.1019 222.644L69.5094 222.647ZM127.852 222.647V227.711L138.031 227.711V222.649L127.852 222.647ZM196.24 222.647C196.391 223.263 196.471 223.909 196.471 224.574V227.711L206.689 227.711V222.647L196.24 222.647ZM264.117 222.647C264.269 223.268 264.349 223.917 264.349 224.585V227.711L274.424 227.712V224.61C274.424 223.932 274.507 223.273 274.664 222.644L264.117 222.647ZM332.589 222.647C332.746 223.273 332.828 223.932 332.828 224.61V227.711L343.088 227.711V222.648L332.589 222.647ZM401.196 222.647C401.352 223.273 401.436 223.932 401.436 224.61L401.435 227.711L411.732 227.711V222.649L401.196 222.647ZM469.986 222.647C470.123 223.241 470.196 223.859 470.196 224.494V227.712L480.28 227.711V222.649L469.986 222.647ZM518.926 222.647V227.711L528.256 227.712V224.577C528.256 223.912 528.337 223.265 528.487 222.646L518.926 222.647ZM586.561 222.647C586.712 223.265 586.792 223.912 586.792 224.577L586.793 227.711L597.827 227.711V222.648L586.561 222.647ZM620.237 222.647V227.711L630.536 227.711V222.649L620.237 222.647ZM653.69 222.647V227.712L664 227.711V222.647L653.69 222.647ZM0 227.711V222.647L11.5881 222.647C11.2836 223.5 11.1177 224.42 11.1177 225.378V227.711L0 227.711Z" fill="#00478A"/>
<path fill-rule="evenodd" clip-rule="evenodd" d="M69.5094 217.582V222.647L79.1019 222.647C79.605 220.507 80.9496 218.697 82.7669 217.585L69.5094 217.582ZM127.852 217.582V222.647L138.031 222.647V217.584L127.852 217.582ZM192.458 217.582C194.324 218.673 195.714 220.487 196.24 222.645L206.689 222.647V217.584L192.458 217.582ZM260.349 217.582C262.207 218.68 263.591 220.494 264.117 222.647L274.664 222.647C275.201 220.486 276.599 218.669 278.474 217.582H260.349ZM328.779 217.582C330.653 218.669 332.053 220.486 332.589 222.644L343.088 222.647V217.584L328.779 217.582ZM397.386 217.582C399.26 218.669 400.66 220.486 401.196 222.644L411.732 222.647V217.584L397.386 217.582ZM466.34 217.582C468.151 218.7 469.489 220.513 469.986 222.649L480.28 222.647V217.584L466.34 217.582ZM518.926 217.582V222.647L528.487 222.646C529.011 220.496 530.39 218.683 532.243 217.585L518.926 217.582ZM582.806 217.582C584.659 218.683 586.037 220.497 586.561 222.647L597.827 222.647V217.584L582.806 217.582ZM620.237 217.582V222.647L630.536 222.647V217.584L620.237 217.582ZM653.69 217.582V222.647L664 222.647V217.584L653.69 217.582ZM0 222.647V217.583L16.9559 217.582C14.4578 218.311 12.4577 220.209 11.5881 222.647L0 222.647Z" fill="#00478A"/>
<path fill-rule="evenodd" clip-rule="evenodd" d="M0 217.583V207.044H127.865V172.654H170.692V207.02H470.104V172.642H528.457V207.034H586.723V172.642H664V217.584L653.69 217.582V181.277H630.536V217.584L620.237 217.582V216.411H597.827V217.584L582.806 217.582C581.599 216.871 580.191 216.461 578.687 216.461H536.361C534.858 216.461 533.45 216.871 532.243 217.585L518.926 217.582V216.378H502.67V196.648H519.101V181.19H488.386C483.909 181.19 480.28 184.824 480.28 189.306V217.584L466.34 217.582C465.104 216.818 463.649 216.378 462.09 216.378H411.732V217.584L397.386 217.582C396.193 216.89 394.808 216.494 393.33 216.494H343.088V217.584L328.779 217.582C327.586 216.89 326.201 216.494 324.723 216.494H282.529C281.052 216.494 279.666 216.89 278.474 217.582H260.349C259.145 216.876 257.743 216.469 256.244 216.469H206.689V217.584L192.458 217.582C191.257 216.881 189.858 216.479 188.365 216.479L161.304 216.478V181.262H138.031V217.584L127.852 217.582V216.403H86.9775C85.4338 216.403 83.9926 216.835 82.7669 217.585L69.5094 217.582V217.302L19.2229 217.262C18.4362 217.262 17.6754 217.374 16.9559 217.584L0 217.583ZM597.043 181.201H620.203V206.974H597.043V181.201Z" fill="#00478A"/>
<path d="M411.732 288.485V287.985L5.3737e-07 287.985L0 288.485L-5.3737e-07 288.985L411.732 288.985V288.485ZM664 288.485V287.985L435.816 287.985V288.485V288.985L664 288.985V288.485ZM11.1177 283.42L11.1177 282.92L1.1323e-05 282.92L0 283.42L-1.1323e-05 283.92L11.1177 283.92L11.1177 283.42ZM241.08 283.421L241.08 282.921L229.8 282.92L229.8 283.42L229.8 283.92L241.08 283.921L241.08 283.421ZM206.689 283.421L206.689 282.921L196.471 282.92L196.471 283.42L196.471 283.92L206.689 283.921L206.689 283.421ZM174.168 283.421L174.168 282.921L162.146 282.92L162.146 283.42L162.146 283.92L174.168 283.921L174.168 283.421ZM138.031 283.42L138.031 282.92L127.888 282.92L127.888 283.42L127.888 283.92L138.031 283.92L138.031 283.42ZM664 283.421L664 282.921L653.69 282.92L653.69 283.42L653.69 283.92L664 283.921L664 283.421ZM630.536 283.421V282.921L620.237 282.92V283.42V283.92L630.536 283.921V283.421ZM597.827 283.421L597.827 282.921L587.685 282.92L587.685 283.42L587.685 283.92L597.827 283.921L597.827 283.421ZM206.689 278.357L206.689 277.857L196.471 277.856L196.471 278.356L196.471 278.856L206.689 278.857L206.689 278.357ZM630.536 278.357L630.536 277.857L620.237 277.856L620.237 278.356L620.237 278.856L630.536 278.857L630.536 278.357ZM664 278.355V277.855L653.69 277.856V278.356V278.856L664 278.855V278.355ZM0 278.357L4.25469e-05 278.857L11.1177 278.856L11.1177 278.356L11.1176 277.856L-4.25469e-05 277.857L0 278.357ZM274.424 227.712L274.424 227.212L264.35 227.211L264.349 227.711L264.349 228.211L274.424 228.212L274.424 227.712ZM528.256 227.712L528.256 227.212L518.926 227.211L518.926 227.711L518.926 228.211L528.256 228.212L528.256 227.712ZM528.487 222.646L528.487 222.146L518.926 222.147L518.926 222.647L518.926 223.147L528.487 223.146L528.487 222.646ZM664 222.647L664 222.147L653.69 222.147L653.69 222.647L653.69 223.147L664 223.147L664 222.647ZM0 222.647L2.73229e-05 223.147L11.5881 223.147L11.5881 222.647L11.5881 222.147L-2.73229e-05 222.147L0 222.647ZM82.7669 217.585L82.767 217.085L69.5095 217.082L69.5094 217.582L69.5094 218.082L82.7668 218.085L82.7669 217.585ZM138.031 217.584L138.032 217.084L127.852 217.082L127.852 217.582L127.852 218.082L138.031 218.084L138.031 217.584ZM206.689 217.584L206.689 217.084L192.458 217.082L192.458 217.582L192.458 218.082L206.689 218.084L206.689 217.584ZM278.474 217.582V217.082H260.349V217.582V218.082H278.474V217.582ZM343.088 217.584L343.088 217.084L328.779 217.082L328.779 217.582L328.779 218.082L343.088 218.084L343.088 217.584ZM411.732 217.584L411.732 217.084L397.386 217.082L397.386 217.582L397.386 218.082L411.732 218.084L411.732 217.584ZM480.28 217.584L480.28 217.084L466.34 217.082L466.34 217.582L466.34 218.082L480.28 218.084L480.28 217.584ZM532.243 217.585L532.243 217.085L518.926 217.082L518.926 217.582L518.926 218.082L532.242 218.085L532.243 217.585ZM597.827 217.584L597.827 217.084L582.806 217.082L582.806 217.582L582.806 218.082L597.827 218.084L597.827 217.584ZM630.536 217.584L630.536 217.084L620.237 217.082L620.237 217.582L620.237 218.082L630.536 218.084L630.536 217.584ZM664 217.584L664 217.084L653.69 217.082L653.69 217.582L653.69 218.082L664 218.084L664 217.584ZM435.816 319.483V320.483H436.816V319.483H435.816ZM411.732 319.483H410.732V320.483H411.732V319.483ZM0 294.643H-1V295.643H0V294.643ZM401.434 294.643H402.434V293.643H401.434V294.643ZM401.434 329H400.434V330H401.434V329ZM445.218 329V330H446.218V329H445.218ZM445.218 294.596V293.596H444.218V294.596H445.218ZM664 294.596V295.596H665V294.596H664ZM67.3507 283.42L67.3509 282.42L66.9086 282.42L66.611 282.747L67.3507 283.42ZM11.1177 286.047H10.1177V287.047H11.1177V286.047ZM411.732 283.422H412.732V282.422L411.732 282.422L411.732 283.422ZM366.274 285.173V286.173H367.274V285.173H366.274ZM343.088 285.173H342.088V286.173H343.088V285.173ZM329.761 283.42L329.761 282.42L329.412 282.42L329.139 282.637L329.761 283.42ZM277.492 283.418L278.114 282.635L277.841 282.418L277.492 282.418L277.492 283.418ZM264.349 285.108V286.108H265.349V285.108H264.349ZM241.08 285.108H240.08V286.108H241.08V285.108ZM229.8 285.108V286.108H230.8V285.108H229.8ZM206.689 285.108H205.689V286.108H206.689V285.108ZM196.471 285.137V286.137H197.471V285.137H196.471ZM174.168 285.137H173.168V286.137H174.168V285.137ZM162.146 285.137V286.137H163.146V285.137H162.146ZM138.031 285.137H137.031V286.137H138.031V285.137ZM127.888 285.158V286.158H128.888V285.158H127.888ZM88.8574 285.158L88.8551 286.158H88.8574V285.158ZM86.9901 285.154L86.9924 284.154H86.9901V285.154ZM81.9863 283.422L82.6046 282.637L82.3326 282.422L81.9864 282.422L81.9863 283.422ZM467.056 283.42L467.056 282.42L466.714 282.42L466.444 282.629L467.056 283.42ZM462.09 285.117L462.09 286.117H462.09V285.117ZM435.816 285.115L435.816 284.115L434.816 284.114V285.115H435.816ZM653.69 285.161V286.161H654.69V285.161H653.69ZM630.536 285.161H629.536V286.161H630.536V285.161ZM620.237 285.169V286.169H621.237V285.169H620.237ZM597.827 285.169H596.827V286.169H597.827V285.169ZM587.685 285.197L587.685 286.197L588.685 286.196V285.197H587.685ZM536.361 285.209V286.209H536.362L536.361 285.209ZM531.282 283.417L531.91 282.639L531.635 282.417L531.282 282.417L531.282 283.417ZM503.583 285.173V286.173H504.583V285.173H503.583ZM480.28 285.173H479.28V286.173H480.28V285.173ZM67.3507 283.419L66.6109 282.746L65.0901 284.419L67.3507 284.419L67.3507 283.419ZM81.9863 283.42L81.9862 284.42L84.8786 284.42L82.6039 282.634L81.9863 283.42ZM78.9919 278.358L79.9788 278.197L79.8418 277.358L78.9922 277.358L78.9919 278.358ZM138.031 278.357H139.031V277.358L138.032 277.357L138.031 278.357ZM174.168 278.357H175.168V277.357L174.168 277.357L174.168 278.357ZM241.08 278.357H242.08V277.357L241.08 277.357L241.08 278.357ZM277.492 283.42V284.42L280.351 284.42L278.115 282.638L277.492 283.42ZM274.526 278.352L275.513 278.194L275.379 277.351L274.526 277.352L274.526 278.352ZM332.726 278.356L332.726 277.356L331.874 277.356L331.739 278.197L332.726 278.356ZM329.761 283.418L329.138 282.635L326.898 284.417L329.761 284.418L329.761 283.418ZM411.732 283.42V284.42H412.732V283.42H411.732ZM411.732 278.357H412.732V277.357L411.732 277.357L411.732 278.357ZM470.083 278.356L469.097 278.19V278.19L470.083 278.356ZM467.056 283.416L466.443 282.626L464.141 284.415L467.056 284.416L467.056 283.416ZM480.28 278.357H481.28V277.357L480.28 277.357L480.28 278.357ZM531.282 283.42V284.42L534.109 284.42L531.91 282.642L531.282 283.42ZM528.354 278.353L529.342 278.199L529.21 277.353L528.354 277.353L528.354 278.353ZM597.827 278.357H598.827V277.358L597.827 277.357L597.827 278.357ZM69.5094 231.935V232.935H70.5094V231.935H69.5094ZM34.3859 231.935V230.935H33.3859V231.935H34.3859ZM34.3859 242.168H33.3859V243.168H34.3859V242.168ZM69.5208 242.168H70.5208V241.168H69.5208V242.168ZM69.5208 277.831L70.5207 277.845L70.5208 277.838V277.831H69.5208ZM78.9919 278.356V279.356H80.1694L79.9787 278.194L78.9919 278.356ZM78.8851 227.712H79.8851V226.713L78.8852 226.712L78.8851 227.712ZM127.852 231.936V232.936H128.852V231.936H127.852ZM102.94 231.936V230.936H101.94V231.936H102.94ZM102.94 269.732H101.94V270.732H102.94V269.732ZM127.888 269.732H128.888V268.732H127.888V269.732ZM138.031 278.356V279.356H139.031V278.356H138.031ZM138.031 227.713H139.031V226.713L138.032 226.713L138.031 227.713ZM206.689 227.713H207.689V226.713L206.689 226.713L206.689 227.713ZM274.526 278.356V279.356H275.696L275.514 278.2L274.526 278.356ZM332.726 278.351L331.739 278.193L331.553 279.351L332.726 279.351L332.726 278.351ZM343.088 227.712H344.088V226.713L343.089 226.712L343.088 227.712ZM401.435 227.711L400.435 227.711V227.711L401.435 227.711ZM401.436 242.285V243.285H402.436L402.436 242.285L401.436 242.285ZM377.469 242.285H376.469V243.285H377.469V242.285ZM377.469 232.772H378.469V231.772H377.469V232.772ZM366.274 232.772V231.772H365.274V232.772H366.274ZM411.732 278.356V279.356H412.732V278.356H411.732ZM411.732 227.712H412.732V226.713L411.732 226.712L411.732 227.712ZM470.196 227.711L470.196 226.711L469.196 226.711V227.711H470.196ZM480.28 278.356V279.356H481.28V278.356H480.28ZM480.28 227.712H481.28V226.713L480.28 226.712L480.28 227.712ZM518.926 232.655V233.655H519.926V232.655H518.926ZM503.583 232.655V231.655H502.583V232.655H503.583ZM528.354 278.356V279.356H529.522L529.342 278.202L528.354 278.356ZM586.798 261.006V262.006H587.799L587.798 261.006L586.798 261.006ZM552.477 261.006V260.006H551.477V261.006H552.477ZM552.477 269.725H551.477V270.725H552.477V269.725ZM587.685 269.725H588.685V268.725H587.685V269.725ZM597.827 278.356V279.356H598.827V278.356H597.827ZM597.827 227.712H598.827V226.713L597.827 226.712L597.827 227.712ZM630.536 227.714H631.536V226.714L630.536 226.714L630.536 227.714ZM653.69 227.711L653.69 226.711L652.69 226.711V227.711H653.69ZM664 227.712H665V226.713L664 226.712L664 227.712ZM0 227.712L-0.00011323 226.712L-1 226.713V227.712H0ZM11.1177 260.206H10.1177V261.206H11.1177V260.206ZM46.3597 260.206H47.3597V259.206H46.3597V260.206ZM46.3597 269.691V270.691H47.3597V269.691H46.3597ZM11.1177 269.691V268.691H10.1177V269.691H11.1177ZM174.168 278.356V279.356H175.168V278.356H174.168ZM174.168 232.777H175.168V231.777H174.168V232.777ZM162.146 232.777V231.777H161.146V232.777H162.146ZM241.08 278.356V279.356H242.08V278.356H241.08ZM241.08 232.819H242.08V231.819H241.08V232.819ZM229.8 232.819V231.819H228.8V232.819H229.8ZM552.477 232.695V231.695H551.477V232.695H552.477ZM563.527 232.695H564.527V231.695H563.527V232.695ZM563.527 242.174V243.174H564.527V242.174H563.527ZM552.477 242.174H551.477V243.174H552.477V242.174ZM434.881 231.894V230.894H433.881V231.894H434.881ZM446.894 231.894H447.894V230.894H446.894V231.894ZM446.894 269.598V270.598H447.894V269.598H446.894ZM434.881 269.598H433.881V270.598H434.881V269.598ZM297.631 232.772V231.772H296.631V232.772H297.631ZM309.585 232.772H310.585V231.772H309.585V232.772ZM309.585 269.598V270.598H310.585V269.598H309.585ZM297.631 269.598H296.631V270.598H297.631V269.598ZM78.8851 227.711L78.8851 228.711L79.8851 228.711V227.711H78.8851ZM79.1019 222.644L80.0753 222.873L80.3645 221.643L79.1016 221.644L79.1019 222.644ZM138.031 227.711V228.711L139.031 228.711V227.711H138.031ZM138.031 222.649H139.031V221.649L138.032 221.649L138.031 222.649ZM196.24 222.647L196.24 221.647L194.965 221.647L195.268 222.885L196.24 222.647ZM206.689 227.711V228.711L207.689 228.711V227.711H206.689ZM274.664 222.644L275.634 222.886L275.944 221.644L274.664 221.644L274.664 222.644ZM332.589 222.647L332.589 221.647L331.308 221.647L331.619 222.889L332.589 222.647ZM343.088 227.711V228.711L344.088 228.711V227.711H343.088ZM343.088 222.648H344.088V221.648L343.089 221.648L343.088 222.648ZM401.196 222.647L401.196 221.647L399.915 221.646L400.225 222.889L401.196 222.647ZM401.436 224.61L402.436 224.611V224.61H401.436ZM411.732 227.711V228.711L412.732 228.711V227.711H411.732ZM411.732 222.649H412.732V221.649L411.732 221.649L411.732 222.649ZM469.986 222.647L469.986 221.647L468.728 221.646L469.011 222.872L469.986 222.647ZM470.196 227.712H469.196V228.713L470.196 228.712L470.196 227.712ZM480.28 227.711L480.28 228.711L481.28 228.711V227.711H480.28ZM480.28 222.649H481.28V221.649L480.28 221.649L480.28 222.649ZM528.487 222.646L527.516 222.409L527.515 222.41L528.487 222.646ZM586.561 222.647L585.59 222.884L585.59 222.884L586.561 222.647ZM586.792 224.577H585.792V224.577L586.792 224.577ZM597.827 227.711V228.711L598.827 228.711V227.711H597.827ZM597.827 222.648H598.827V221.648L597.827 221.648L597.827 222.648ZM630.536 227.711V228.711L631.536 228.711V227.711H630.536ZM630.536 222.649H631.536V221.649L630.536 221.649L630.536 222.649ZM653.69 227.712H652.69V228.713L653.69 228.712L653.69 227.712ZM664 227.711L664 228.711L665 228.711V227.711H664ZM0 227.711H-1V228.711L3.4312e-06 228.711L0 227.711ZM11.5881 222.647L12.5299 222.983L12.5299 222.983L11.5881 222.647ZM79.1019 222.647V223.647L79.894 223.647L80.0753 222.876L79.1019 222.647ZM82.7669 217.585L82.2452 216.732L82.2451 216.732L82.7669 217.585ZM138.031 222.647V223.647L139.031 223.647V222.647H138.031ZM192.458 217.582L192.963 216.719L192.963 216.719L192.458 217.582ZM196.24 222.645L195.268 222.882L195.454 223.645L196.239 223.645L196.24 222.645ZM260.349 217.582L260.857 216.721L260.855 216.72L260.349 217.582ZM274.664 222.647V223.647L275.446 223.647L275.634 222.888L274.664 222.647ZM278.474 217.582L278.975 218.448L278.975 218.447L278.474 217.582ZM328.779 217.582L328.277 218.447L328.278 218.448L328.779 217.582ZM332.589 222.644L331.618 222.885L331.807 223.644L332.589 223.644L332.589 222.644ZM343.088 222.647L343.088 223.647L344.088 223.647V222.647H343.088ZM397.386 217.582L396.884 218.447L396.884 218.448L397.386 217.582ZM401.196 222.644L400.225 222.885L400.413 223.644L401.195 223.644L401.196 222.644ZM411.732 222.647L411.732 223.647L412.732 223.647V222.647H411.732ZM466.34 217.582L465.814 218.433L465.815 218.433L466.34 217.582ZM469.986 222.649L469.011 222.875L469.191 223.649L469.986 223.649L469.986 222.649ZM480.28 222.647L480.28 223.647L481.28 223.647V222.647H480.28ZM532.243 217.585L531.733 216.725L531.733 216.725L532.243 217.585ZM582.806 217.582L583.317 216.723L583.314 216.721L582.806 217.582ZM597.827 222.647V223.647L598.827 223.647V222.647H597.827ZM630.536 222.647V223.647L631.536 223.647V222.647H630.536ZM16.9559 217.582L17.236 218.542L16.9559 216.582L16.9559 217.582ZM0 207.044V206.044H-1V207.044H0ZM127.865 207.044V208.044H128.865V207.044H127.865ZM127.865 172.654V171.654H126.865V172.654H127.865ZM170.692 172.654H171.692V171.654H170.692V172.654ZM170.692 207.02H169.692V208.02H170.692V207.02ZM470.104 207.02V208.02H471.104V207.02H470.104ZM470.104 172.642V171.642H469.104V172.642H470.104ZM528.457 172.642H529.457V171.642H528.457V172.642ZM528.457 207.034H527.457V208.034H528.457V207.034ZM586.723 207.034V208.034H587.723V207.034H586.723ZM586.723 172.642V171.642H585.723V172.642H586.723ZM664 172.642H665V171.642H664V172.642ZM653.69 181.277H654.69V180.277H653.69V181.277ZM630.536 181.277V180.277H629.536V181.277H630.536ZM620.237 216.411H621.237V215.411H620.237V216.411ZM597.827 216.411V215.411H596.827V216.411H597.827ZM518.926 216.378H519.926V215.378H518.926V216.378ZM502.67 216.378H501.67V217.378H502.67V216.378ZM502.67 196.648V195.648H501.67V196.648H502.67ZM519.101 196.648V197.648H520.101V196.648H519.101ZM519.101 181.19H520.101V180.19H519.101V181.19ZM411.732 216.378V215.378H410.732V216.378H411.732ZM343.088 216.494V215.494H342.088V216.494H343.088ZM206.689 216.469V215.469H205.689V216.469H206.689ZM188.365 216.479L188.365 217.479H188.365V216.479ZM161.304 216.478H160.304V217.478L161.304 217.478L161.304 216.478ZM161.304 181.262H162.304V180.262H161.304V181.262ZM138.031 181.262V180.262H137.031V181.262H138.031ZM127.852 216.403H128.852V215.403H127.852V216.403ZM69.5094 217.302H70.5094V216.303L69.5102 216.302L69.5094 217.302ZM19.2229 217.262L19.2237 216.262H19.2229V217.262ZM16.9559 217.584L16.9559 218.584L17.0986 218.584L17.2356 218.544L16.9559 217.584ZM597.043 181.201V180.201H596.043V181.201H597.043ZM620.203 181.201H621.203V180.201H620.203V181.201ZM620.203 206.974V207.974H621.203V206.974H620.203ZM597.043 206.974H596.043V207.974H597.043V206.974ZM435.816 288.485H434.816V319.483H435.816H436.816V288.485H435.816ZM435.816 319.483V318.483H411.732V319.483V320.483H435.816V319.483ZM411.732 319.483H412.732V288.485H411.732H410.732V319.483H411.732ZM0 288.485H-1V294.643H0H1V288.485H0ZM0 294.643V295.643H401.434V294.643V293.643H0V294.643ZM401.434 294.643H400.434V329H401.434H402.434V294.643H401.434ZM401.434 329V330H445.218V329V328H401.434V329ZM445.218 329H446.218V294.596H445.218H444.218V329H445.218ZM445.218 294.596V295.596H664V294.596V293.596H445.218V294.596ZM664 294.596H665V288.485H664H663V294.596H664ZM67.3507 283.42L66.611 282.747C65.3184 284.168 63.4777 285.047 61.4153 285.047V286.047V287.047C64.0643 287.047 66.4349 285.913 68.0905 284.093L67.3507 283.42ZM11.1177 286.047H12.1177V283.42H11.1177H10.1177V286.047H11.1177ZM0 283.42H-1V288.485H0H1V283.42H0ZM411.732 288.485H412.732V283.422H411.732H410.732V288.485H411.732ZM411.732 283.422L411.732 282.422L366.274 282.42L366.274 283.42L366.274 284.42L411.732 284.422L411.732 283.422ZM366.274 283.42H365.274V285.173H366.274H367.274V283.42H366.274ZM366.274 285.173V284.173H343.088V285.173V286.173H366.274V285.173ZM343.088 285.173H344.088V283.421H343.088H342.088V285.173H343.088ZM343.088 283.421L343.089 282.421L329.761 282.42L329.761 283.42L329.761 284.42L343.088 284.421L343.088 283.421ZM329.761 283.42L329.139 282.637C327.926 283.6 326.393 284.175 324.723 284.175V285.175V286.175C326.861 286.175 328.829 285.436 330.383 284.203L329.761 283.42ZM324.723 285.175V284.175H282.529V285.175V286.175H324.723V285.175ZM282.529 285.175V284.175C280.86 284.175 279.327 283.6 278.114 282.635L277.492 283.418L276.869 284.201C278.423 285.436 280.391 286.175 282.529 286.175V285.175ZM277.492 283.418L277.492 282.418L264.349 282.42L264.349 283.42L264.35 284.42L277.492 284.418L277.492 283.418ZM264.349 283.42H263.349V285.108H264.349H265.349V283.42H264.349ZM264.349 285.108V284.108H241.08V285.108V286.108H264.349V285.108ZM241.08 285.108H242.08V283.421H241.08H240.08V285.108H241.08ZM229.8 283.42H228.8V285.108H229.8H230.8V283.42H229.8ZM229.8 285.108V284.108H206.689V285.108V286.108H229.8V285.108ZM206.689 285.108H207.689V283.421H206.689H205.689V285.108H206.689ZM196.471 283.42H195.471V285.137H196.471H197.471V283.42H196.471ZM196.471 285.137V284.137H174.168V285.137V286.137H196.471V285.137ZM174.168 285.137H175.168V283.421H174.168H173.168V285.137H174.168ZM162.146 283.42H161.146V285.137H162.146H163.146V283.42H162.146ZM162.146 285.137V284.137H138.031V285.137V286.137H162.146V285.137ZM138.031 285.137H139.031V283.42H138.031H137.031V285.137H138.031ZM127.888 283.42H126.888V285.158H127.888H128.888V283.42H127.888ZM127.888 285.158V284.158H88.8574V285.158V286.158H127.888V285.158ZM88.8574 285.158L88.8597 284.158L86.9924 284.154L86.9901 285.154L86.9879 286.154L88.8551 286.158L88.8574 285.158ZM86.9901 285.154V284.154C85.3344 284.154 83.8128 283.587 82.6046 282.637L81.9863 283.422L81.3679 284.208C82.9157 285.426 84.8696 286.154 86.9901 286.154V285.154ZM81.9863 283.422L81.9864 282.422L67.3509 282.42L67.3507 283.42L67.3506 284.42L81.9861 284.422L81.9863 283.422ZM467.056 283.42L466.444 282.629C465.241 283.561 463.731 284.117 462.09 284.117V285.117V286.117C464.191 286.117 466.128 285.403 467.669 284.211L467.056 283.42ZM462.09 285.117L462.09 284.117L435.816 284.115L435.816 285.115L435.815 286.115L462.09 286.117L462.09 285.117ZM435.816 285.115H434.816V288.485H435.816H436.816V285.115H435.816ZM664 288.485H665V283.421H664H663V288.485H664ZM653.69 283.42H652.69V285.161H653.69H654.69V283.42H653.69ZM653.69 285.161V284.161H630.536V285.161V286.161H653.69V285.161ZM630.536 285.161H631.536V283.421H630.536H629.536V285.161H630.536ZM620.237 283.42H619.237V285.169H620.237H621.237V283.42H620.237ZM620.237 285.169V284.169H597.827V285.169V286.169H620.237V285.169ZM597.827 285.169H598.827V283.421H597.827H596.827V285.169H597.827ZM587.685 283.42H586.685V285.197H587.685H588.685V283.42H587.685ZM587.685 285.197L587.684 284.197L536.361 284.209L536.361 285.209L536.362 286.209L587.685 286.197L587.685 285.197ZM536.361 285.209V284.209C534.675 284.209 533.128 283.622 531.91 282.639L531.282 283.417L530.654 284.195C532.215 285.455 534.202 286.209 536.361 286.209V285.209ZM531.282 283.417L531.282 282.417L503.583 282.42L503.583 283.42L503.583 284.42L531.282 284.417L531.282 283.417ZM503.583 283.42H502.583V285.173H503.583H504.583V283.42H503.583ZM503.583 285.173V284.173H480.28V285.173V286.173H503.583V285.173ZM480.28 285.173H481.28V283.421H480.28H479.28V285.173H480.28ZM480.28 283.421L480.28 282.421L467.056 282.42L467.056 283.42L467.056 284.42L480.28 284.421L480.28 283.421ZM69.4987 278.356L68.5013 278.284C68.3759 280.02 67.6806 281.57 66.6109 282.746L67.3507 283.419L68.0906 284.092C69.4596 282.586 70.3383 280.614 70.4961 278.428L69.4987 278.356ZM67.3507 283.419L67.3507 284.419L81.9862 284.42L81.9863 283.42L81.9863 282.42L67.3508 282.419L67.3507 283.419ZM81.9863 283.42L82.6039 282.634C81.2345 281.558 80.2716 279.989 79.9788 278.197L78.9919 278.358L78.005 278.519C78.3809 280.821 79.6166 282.83 81.3686 284.207L81.9863 283.42ZM78.9919 278.358L78.9922 277.358L69.499 277.356L69.4987 278.356L69.4984 279.356L78.9916 279.358L78.9919 278.358ZM127.888 278.356H126.888V283.42H127.888H128.888V278.356H127.888ZM138.031 283.42H139.031V278.357H138.031H137.031V283.42H138.031ZM138.031 278.357L138.032 277.357L127.888 277.356L127.888 278.356L127.888 279.356L138.031 279.357L138.031 278.357ZM162.146 278.356H161.146V283.42H162.146H163.146V278.356H162.146ZM174.168 283.421H175.168V278.357H174.168H173.168V283.421H174.168ZM174.168 278.357L174.168 277.357L162.146 277.356L162.146 278.356L162.146 279.356L174.168 279.357L174.168 278.357ZM196.471 278.356H195.471V283.42H196.471H197.471V278.356H196.471ZM206.689 283.421H207.689V278.357H206.689H205.689V283.421H206.689ZM229.8 278.356H228.8V283.42H229.8H230.8V278.356H229.8ZM241.08 283.421H242.08V278.357H241.08H240.08V283.421H241.08ZM241.08 278.357L241.08 277.357L229.8 277.356L229.8 278.356L229.8 279.356L241.08 279.357L241.08 278.357ZM264.349 278.356H263.349V283.42H264.349H265.349V278.356H264.349ZM264.349 283.42V284.42L277.492 284.42V283.42V282.42L264.349 282.42V283.42ZM277.492 283.42L278.115 282.638C276.754 281.553 275.8 279.983 275.513 278.194L274.526 278.352L273.539 278.51C273.906 280.808 275.13 282.817 276.869 284.202L277.492 283.42ZM274.526 278.352L274.526 277.352L264.349 277.356L264.349 278.356L264.35 279.356L274.526 279.352L274.526 278.352ZM332.726 278.356L331.739 278.197C331.453 279.983 330.499 281.553 329.138 282.635L329.761 283.418L330.383 284.2C332.122 282.817 333.346 280.808 333.713 278.514L332.726 278.356ZM329.761 283.418L329.761 284.418L343.088 284.421L343.088 283.421L343.089 282.421L329.761 282.418L329.761 283.418ZM343.088 283.421H344.088V278.357H343.088H342.088V283.421H343.088ZM343.088 278.357L343.089 277.357L332.726 277.356L332.726 278.356L332.726 279.356L343.088 279.357L343.088 278.357ZM366.274 278.356H365.274V283.42H366.274H367.274V278.356H366.274ZM366.274 283.42V284.42L411.732 284.42V283.42V282.42L366.274 282.42V283.42ZM411.732 283.42H412.732V278.357H411.732H410.732V283.42H411.732ZM411.732 278.357L411.732 277.357L366.274 277.356L366.274 278.356L366.274 279.356L411.732 279.357L411.732 278.357ZM470.083 278.356L469.097 278.19C468.796 279.984 467.823 281.553 466.443 282.626L467.056 283.416L467.67 284.205C469.435 282.834 470.683 280.825 471.07 278.521L470.083 278.356ZM467.056 283.416L467.056 284.416L480.28 284.421L480.28 283.421L480.281 282.421L467.057 282.416L467.056 283.416ZM480.28 283.421H481.28V278.357H480.28H479.28V283.421H480.28ZM480.28 278.357L480.28 277.357L470.084 277.356L470.083 278.356L470.083 279.356L480.28 279.357L480.28 278.357ZM503.583 278.356H502.583V283.42H503.583H504.583V278.356H503.583ZM503.583 283.42V284.42L531.282 284.42V283.42V282.42L503.583 282.42V283.42ZM531.282 283.42L531.91 282.642C530.562 281.552 529.62 279.984 529.342 278.199L528.354 278.353L527.366 278.506C527.722 280.799 528.931 282.806 530.653 284.198L531.282 283.42ZM528.354 278.353L528.354 277.353L503.583 277.356L503.583 278.356L503.583 279.356L528.354 279.353L528.354 278.353ZM587.685 278.356H586.685V283.42H587.685H588.685V278.356H587.685ZM597.827 283.421H598.827V278.357H597.827H596.827V283.421H597.827ZM597.827 278.357L597.827 277.357L587.685 277.356L587.685 278.356L587.684 279.356L597.827 279.357L597.827 278.357ZM620.237 278.356H619.237V283.42H620.237H621.237V278.356H620.237ZM630.536 283.421H631.536V278.357H630.536H629.536V283.421H630.536ZM653.69 278.356H652.69V283.42H653.69H654.69V278.356H653.69ZM664 283.421H665V278.355H664H663V283.421H664ZM0 283.42H1V278.357H0H-1V283.42H0ZM11.1177 278.356H10.1177V283.42H11.1177H12.1177V278.356H11.1177ZM69.5094 227.711H68.5094V231.935H69.5094H70.5094V227.711H69.5094ZM69.5094 231.935V230.935H34.3859V231.935V232.935H69.5094V231.935ZM34.3859 231.935H33.3859V242.168H34.3859H35.3859V231.935H34.3859ZM34.3859 242.168V243.168H69.5208V242.168V241.168H34.3859V242.168ZM69.5208 242.168H68.5208V277.831H69.5208H70.5208V242.168H69.5208ZM69.5208 277.831L68.5209 277.817C68.5187 277.974 68.5119 278.13 68.5011 278.287L69.4987 278.356L70.4963 278.425C70.5095 278.234 70.5179 278.041 70.5207 277.845L69.5208 277.831ZM69.4987 278.356V279.356L78.9919 279.356V278.356V277.356L69.4987 277.356V278.356ZM78.9919 278.356L79.9787 278.194C79.9173 277.82 79.8851 277.433 79.8851 277.037H78.8851H77.8851C77.8851 277.541 77.9262 278.037 78.0051 278.518L78.9919 278.356ZM78.8851 277.037H79.8851V227.712H78.8851H77.8851V277.037H78.8851ZM78.8851 227.712L78.8852 226.712L69.5096 226.711L69.5094 227.711L69.5093 228.711L78.8849 228.712L78.8851 227.712ZM127.852 227.711H126.852V231.936H127.852H128.852V227.711H127.852ZM127.852 231.936V230.936H102.94V231.936V232.936H127.852V231.936ZM102.94 231.936H101.94V269.732H102.94H103.94V231.936H102.94ZM102.94 269.732V270.732H127.888V269.732V268.732H102.94V269.732ZM127.888 269.732H126.888V278.356H127.888H128.888V269.732H127.888ZM127.888 278.356V279.356L138.031 279.356V278.356V277.356L127.888 277.356V278.356ZM138.031 278.356H139.031V227.713H138.031H137.031V278.356H138.031ZM138.031 227.713L138.032 226.713L127.852 226.711L127.852 227.711L127.852 228.711L138.031 228.713L138.031 227.713ZM196.471 227.711H195.471V278.356H196.471H197.471V227.711H196.471ZM206.689 278.357H207.689V227.713H206.689H205.689V278.357H206.689ZM206.689 227.713L206.689 226.713L196.471 226.711L196.471 227.711L196.471 228.711L206.688 228.713L206.689 227.713ZM264.349 227.711H263.349V278.356H264.349H265.349V227.711H264.349ZM264.349 278.356V279.356L274.526 279.356V278.356V277.356L264.349 277.356V278.356ZM274.526 278.356L275.514 278.2C275.455 277.826 275.424 277.446 275.424 277.059H274.424H273.424C273.424 277.552 273.463 278.036 273.538 278.511L274.526 278.356ZM274.424 277.059H275.424V227.712H274.424H273.424V277.059H274.424ZM332.828 227.711H331.828V277.059H332.828H333.828V227.711H332.828ZM332.828 277.059H331.828C331.828 277.446 331.798 277.825 331.739 278.193L332.726 278.351L333.713 278.51C333.789 278.036 333.828 277.552 333.828 277.059H332.828ZM332.726 278.351L332.726 279.351L343.088 279.357L343.088 278.357L343.089 277.357L332.727 277.351L332.726 278.351ZM343.088 278.357H344.088V227.712H343.088H342.088V278.357H343.088ZM343.088 227.712L343.089 226.712L332.829 226.711L332.828 227.711L332.828 228.711L343.088 228.712L343.088 227.712ZM401.436 242.285V241.285H377.469V242.285V243.285H401.436V242.285ZM377.469 242.285H378.469V232.772H377.469H376.469V242.285H377.469ZM377.469 232.772V231.772H366.274V232.772V233.772H377.469V232.772ZM366.274 232.772H365.274V278.356H366.274H367.274V232.772H366.274ZM366.274 278.356V279.356L411.732 279.356V278.356V277.356L366.274 277.356V278.356ZM411.732 278.356H412.732V227.712H411.732H410.732V278.356H411.732ZM411.732 227.712L411.732 226.712L401.435 226.711L401.435 227.711L401.435 228.711L411.732 228.712L411.732 227.712ZM470.196 227.711H469.196V277.001H470.196H471.196V227.711H470.196ZM470.196 277.001H469.196C469.196 277.406 469.162 277.804 469.097 278.19L470.083 278.356L471.07 278.521C471.153 278.026 471.196 277.518 471.196 277.001H470.196ZM470.083 278.356V279.356L480.28 279.356V278.356V277.356L470.083 277.356V278.356ZM480.28 278.356H481.28V227.712H480.28H479.28V278.356H480.28ZM480.28 227.712L480.28 226.712L470.196 226.711L470.196 227.711L470.196 228.711L480.28 228.712L480.28 227.712ZM518.926 227.711H517.926V232.655H518.926H519.926V227.711H518.926ZM518.926 232.655V231.655H503.583V232.655V233.655H518.926V232.655ZM503.583 232.655H502.583V278.356H503.583H504.583V232.655H503.583ZM503.583 278.356V279.356L528.354 279.356V278.356V277.356L503.583 277.356V278.356ZM528.354 278.356L529.342 278.202C529.285 277.839 529.256 277.47 529.256 277.093H528.256H527.256C527.256 277.573 527.293 278.045 527.366 278.51L528.354 278.356ZM528.256 277.093H529.256V227.712H528.256H527.256V277.093H528.256ZM586.793 227.711L585.793 227.711L585.798 261.006L586.798 261.006L587.798 261.006L587.793 227.711L586.793 227.711ZM586.798 261.006V260.006H552.477V261.006V262.006H586.798V261.006ZM552.477 261.006H551.477V269.725H552.477H553.477V261.006H552.477ZM552.477 269.725V270.725H587.685V269.725V268.725H552.477V269.725ZM587.685 269.725H586.685V278.356H587.685H588.685V269.725H587.685ZM587.685 278.356V279.356L597.827 279.356V278.356V277.356L587.685 277.356V278.356ZM597.827 278.356H598.827V227.712H597.827H596.827V278.356H597.827ZM597.827 227.712L597.827 226.712L586.793 226.711L586.793 227.711L586.793 228.711L597.827 228.712L597.827 227.712ZM620.237 227.711H619.237V278.356H620.237H621.237V227.711H620.237ZM630.536 278.357H631.536V227.714H630.536H629.536V278.357H630.536ZM630.536 227.714L630.536 226.714L620.237 226.711L620.237 227.711L620.237 228.711L630.536 228.714L630.536 227.714ZM653.69 227.711H652.69V278.356H653.69H654.69V227.711H653.69ZM664 278.355H665V227.712H664H663V278.355H664ZM664 227.712L664 226.712L653.69 226.711L653.69 227.711L653.69 228.711L664 228.712L664 227.712ZM0 278.357H1V227.712H0H-1V278.357H0ZM0 227.712L0.00011323 228.712L11.1178 228.711L11.1177 227.711L11.1176 226.711L-0.00011323 226.712L0 227.712ZM11.1177 227.711H10.1177V260.206H11.1177H12.1177V227.711H11.1177ZM11.1177 260.206V261.206H46.3597V260.206V259.206H11.1177V260.206ZM46.3597 260.206H45.3597V269.691H46.3597H47.3597V260.206H46.3597ZM46.3597 269.691V268.691H11.1177V269.691V270.691H46.3597V269.691ZM11.1177 269.691H10.1177V278.356H11.1177H12.1177V269.691H11.1177ZM174.168 278.356H175.168V232.777H174.168H173.168V278.356H174.168ZM174.168 232.777V231.777H162.146V232.777V233.777H174.168V232.777ZM162.146 232.777H161.146V278.356H162.146H163.146V232.777H162.146ZM162.146 278.356V279.356L174.168 279.356V278.356V277.356L162.146 277.356V278.356ZM241.08 278.356H242.08V232.819H241.08H240.08V278.356H241.08ZM241.08 232.819V231.819H229.8V232.819V233.819H241.08V232.819ZM229.8 232.819H228.8V278.356H229.8H230.8V232.819H229.8ZM229.8 278.356V279.356L241.08 279.356V278.356V277.356L229.8 277.356V278.356ZM552.477 232.695V233.695H563.527V232.695V231.695H552.477V232.695ZM563.527 232.695H562.527V242.174H563.527H564.527V232.695H563.527ZM563.527 242.174V241.174H552.477V242.174V243.174H563.527V242.174ZM552.477 242.174H553.477V232.695H552.477H551.477V242.174H552.477ZM434.881 231.894V232.894H446.894V231.894V230.894H434.881V231.894ZM446.894 231.894H445.894V269.598H446.894H447.894V231.894H446.894ZM446.894 269.598V268.598H434.881V269.598V270.598H446.894V269.598ZM434.881 269.598H435.881V231.894H434.881H433.881V269.598H434.881ZM297.631 232.772V233.772H309.585V232.772V231.772H297.631V232.772ZM309.585 232.772H308.585V269.598H309.585H310.585V232.772H309.585ZM309.585 269.598V268.598H297.631V269.598V270.598H309.585V269.598ZM297.631 269.598H298.631V232.772H297.631H296.631V269.598H297.631ZM69.5094 222.647H68.5094V227.711H69.5094H70.5094V222.647H69.5094ZM69.5094 227.711L69.5094 228.711L78.8851 228.711L78.8851 227.711L78.8851 226.711L69.5095 226.711L69.5094 227.711ZM78.8851 227.711H79.8851V224.519H78.8851H77.8851V227.711H78.8851ZM78.8851 224.519H79.8851C79.8851 223.951 79.9512 223.4 80.0753 222.873L79.1019 222.644L78.1284 222.415C77.9694 223.091 77.8851 223.796 77.8851 224.519H78.8851ZM79.1019 222.644L79.1016 221.644L69.5091 221.647L69.5094 222.647L69.5098 223.647L79.1022 223.644L79.1019 222.644ZM127.852 222.647H126.852V227.711H127.852H128.852V222.647H127.852ZM127.852 227.711V228.711L138.031 228.711V227.711V226.711L127.852 226.711V227.711ZM138.031 227.711H139.031V222.649H138.031H137.031V227.711H138.031ZM138.031 222.649L138.032 221.649L127.852 221.647L127.852 222.647L127.851 223.647L138.031 223.649L138.031 222.649ZM196.24 222.647L195.268 222.885C195.4 223.423 195.471 223.99 195.471 224.574H196.471H197.471C197.471 223.828 197.381 223.102 197.211 222.409L196.24 222.647ZM196.471 224.574H195.471V227.711H196.471H197.471V224.574H196.471ZM196.471 227.711V228.711L206.689 228.711V227.711V226.711L196.471 226.711V227.711ZM206.689 227.711H207.689V222.647H206.689H205.689V227.711H206.689ZM206.689 222.647L206.689 221.647L196.24 221.647L196.24 222.647L196.24 223.647L206.689 223.647L206.689 222.647ZM264.117 222.647L263.146 222.884C263.279 223.428 263.349 223.998 263.349 224.585H264.349H265.349C265.349 223.837 265.259 223.108 265.089 222.41L264.117 222.647ZM264.349 224.585H263.349V227.711H264.349H265.349V224.585H264.349ZM274.424 227.712H275.424V224.61H274.424H273.424V227.712H274.424ZM274.424 224.61H275.424C275.424 224.014 275.497 223.436 275.634 222.886L274.664 222.644L273.693 222.402C273.517 223.111 273.424 223.851 273.424 224.61H274.424ZM274.664 222.644L274.664 221.644L264.117 221.647L264.117 222.647L264.118 223.647L274.664 223.644L274.664 222.644ZM332.589 222.647L331.619 222.889C331.756 223.436 331.828 224.014 331.828 224.61H332.828H333.828C333.828 223.851 333.736 223.11 333.559 222.404L332.589 222.647ZM332.828 224.61H331.828V227.711H332.828H333.828V224.61H332.828ZM332.828 227.711V228.711L343.088 228.711V227.711V226.711L332.828 226.711V227.711ZM343.088 227.711H344.088V222.648H343.088H342.088V227.711H343.088ZM343.088 222.648L343.089 221.648L332.589 221.647L332.589 222.647L332.589 223.647L343.088 223.648L343.088 222.648ZM401.196 222.647L400.225 222.889C400.362 223.437 400.436 224.015 400.436 224.61H401.436H402.436C402.436 223.85 402.342 223.11 402.166 222.404L401.196 222.647ZM401.435 227.711V228.711L411.732 228.711V227.711V226.711L401.435 226.711V227.711ZM411.732 227.711H412.732V222.649H411.732H410.732V227.711H411.732ZM411.732 222.649L411.732 221.649L401.196 221.647L401.196 222.647L401.195 223.647L411.732 223.649L411.732 222.649ZM469.986 222.647L469.011 222.872C469.132 223.394 469.196 223.936 469.196 224.494H470.196H471.196C471.196 223.782 471.114 223.088 470.96 222.422L469.986 222.647ZM470.196 224.494H469.196V227.712H470.196H471.196V224.494H470.196ZM470.196 227.712L470.196 228.712L480.28 228.711L480.28 227.711L480.28 226.711L470.196 226.712L470.196 227.712ZM480.28 227.711H481.28V222.649H480.28H479.28V227.711H480.28ZM480.28 222.649L480.28 221.649L469.986 221.647L469.986 222.647L469.985 223.647L480.28 223.649L480.28 222.649ZM518.926 222.647H517.926V227.711H518.926H519.926V222.647H518.926ZM528.256 227.712H529.256V224.577H528.256H527.256V227.712H528.256ZM528.256 224.577H529.256C529.256 223.992 529.327 223.425 529.459 222.882L528.487 222.646L527.515 222.41C527.346 223.105 527.256 223.831 527.256 224.577H528.256ZM586.561 222.647L585.59 222.884C585.722 223.425 585.792 223.992 585.792 224.577H586.792H587.792C587.792 223.832 587.703 223.106 587.533 222.409L586.561 222.647ZM586.792 224.577L585.792 224.577L585.793 227.711L586.793 227.711L587.793 227.711L587.792 224.577L586.792 224.577ZM586.793 227.711V228.711L597.827 228.711V227.711V226.711L586.793 226.711V227.711ZM597.827 227.711H598.827V222.648H597.827H596.827V227.711H597.827ZM597.827 222.648L597.827 221.648L586.562 221.647L586.561 222.647L586.561 223.647L597.827 223.648L597.827 222.648ZM620.237 222.647H619.237V227.711H620.237H621.237V222.647H620.237ZM620.237 227.711V228.711L630.536 228.711V227.711V226.711L620.237 226.711V227.711ZM630.536 227.711H631.536V222.649H630.536H629.536V227.711H630.536ZM630.536 222.649L630.536 221.649L620.237 221.647L620.237 222.647L620.237 223.647L630.536 223.649L630.536 222.649ZM653.69 222.647H652.69V227.712H653.69H654.69V222.647H653.69ZM653.69 227.712L653.69 228.712L664 228.711L664 227.711L664 226.711L653.69 226.712L653.69 227.712ZM664 227.711H665V222.647H664H663V227.711H664ZM0 227.711H1V222.647H0H-1V227.711H0ZM11.5881 222.647L10.6463 222.311C10.3038 223.27 10.1177 224.304 10.1177 225.378H11.1177H12.1177C12.1177 224.536 12.2634 223.73 12.5299 222.983L11.5881 222.647ZM11.1177 227.711L11.1177 226.711L-3.4312e-06 226.711L0 227.711L3.4312e-06 228.711L11.1177 228.711L11.1177 227.711ZM69.5094 217.582H68.5094V222.647H69.5094H70.5094V217.582H69.5094ZM69.5094 222.647V223.647L79.1019 223.647V222.647V221.647L69.5094 221.647V222.647ZM79.1019 222.647L80.0753 222.876C80.5162 221.001 81.6949 219.413 83.2887 218.438L82.7669 217.585L82.2451 216.732C80.2042 217.98 78.6939 220.013 78.1284 222.418L79.1019 222.647ZM127.852 217.582H126.852V222.647H127.852H128.852V217.582H127.852ZM127.852 222.647V223.647L138.031 223.647V222.647V221.647L127.852 221.647V222.647ZM138.031 222.647H139.031V217.584H138.031H137.031V222.647H138.031ZM192.458 217.582L191.954 218.446C193.59 219.403 194.808 220.994 195.268 222.882L196.24 222.645L197.211 222.408C196.62 219.981 195.057 217.943 192.963 216.719L192.458 217.582ZM196.24 222.645L196.239 223.645L206.688 223.647L206.689 222.647L206.689 221.647L196.24 221.645L196.24 222.645ZM206.689 222.647H207.689V217.584H206.689H205.689V222.647H206.689ZM260.349 217.582L259.84 218.443C261.472 219.407 262.685 221 263.146 222.884L264.117 222.647L265.089 222.409C264.497 219.989 262.942 217.953 260.857 216.721L260.349 217.582ZM264.117 222.647V223.647L274.664 223.647V222.647V221.647L264.117 221.647V222.647ZM274.664 222.647L275.634 222.888C276.104 220.994 277.331 219.4 278.975 218.448L278.474 217.582L277.972 216.717C275.868 217.937 274.296 219.977 273.693 222.406L274.664 222.647ZM328.779 217.582L328.278 218.448C329.922 219.401 331.149 220.995 331.618 222.885L332.589 222.644L333.559 222.403C332.957 219.976 331.385 217.937 329.281 216.717L328.779 217.582ZM332.589 222.644L332.589 223.644L343.088 223.647L343.088 222.647L343.089 221.647L332.589 221.644L332.589 222.644ZM343.088 222.647H344.088V217.584H343.088H342.088V222.647H343.088ZM397.386 217.582L396.884 218.448C398.529 219.401 399.756 220.995 400.225 222.885L401.196 222.644L402.166 222.403C401.563 219.976 399.991 217.937 397.887 216.717L397.386 217.582ZM401.196 222.644L401.195 223.644L411.732 223.647L411.732 222.647L411.732 221.647L401.196 221.644L401.196 222.644ZM411.732 222.647H412.732V217.584H411.732H410.732V222.647H411.732ZM466.34 217.582L465.815 218.433C467.404 219.414 468.577 221.004 469.011 222.875L469.986 222.649L470.96 222.422C470.402 220.021 468.899 217.986 466.865 216.731L466.34 217.582ZM469.986 222.649L469.986 223.649L480.28 223.647L480.28 222.647L480.28 221.647L469.985 221.649L469.986 222.649ZM480.28 222.647H481.28V217.584H480.28H479.28V222.647H480.28ZM518.926 217.582H517.926V222.647H518.926H519.926V217.582H518.926ZM528.487 222.646L529.459 222.883C529.918 221 531.127 219.409 532.752 218.446L532.243 217.585L531.733 216.725C529.654 217.956 528.105 219.992 527.516 222.409L528.487 222.646ZM582.806 217.582L582.295 218.442C583.922 219.408 585.131 221.001 585.59 222.884L586.561 222.647L587.533 222.41C586.944 219.993 585.395 217.957 583.317 216.723L582.806 217.582ZM586.561 222.647V223.647L597.827 223.647V222.647V221.647L586.561 221.647V222.647ZM597.827 222.647H598.827V217.584H597.827H596.827V222.647H597.827ZM620.237 217.582H619.237V222.647H620.237H621.237V217.582H620.237ZM620.237 222.647V223.647L630.536 223.647V222.647V221.647L620.237 221.647V222.647ZM630.536 222.647H631.536V217.584H630.536H629.536V222.647H630.536ZM653.69 217.582H652.69V222.647H653.69H654.69V217.582H653.69ZM664 222.647H665V217.584H664H663V222.647H664ZM0 222.647H1V217.583H0H-1V222.647H0ZM0 217.583L3.73462e-05 218.583L16.956 218.582L16.9559 217.582L16.9559 216.582L-3.73462e-05 216.583L0 217.583ZM16.9559 217.582L16.6759 216.622C13.8682 217.441 11.623 219.573 10.6463 222.311L11.5881 222.647L12.5299 222.983C13.2924 220.846 15.0474 219.181 17.236 218.542L16.9559 217.582ZM0 217.583H1V207.044H0H-1V217.583H0ZM0 207.044V208.044H127.865V207.044V206.044H0V207.044ZM127.865 207.044H128.865V172.654H127.865H126.865V207.044H127.865ZM127.865 172.654V173.654H170.692V172.654V171.654H127.865V172.654ZM170.692 172.654H169.692V207.02H170.692H171.692V172.654H170.692ZM170.692 207.02V208.02H470.104V207.02V206.02H170.692V207.02ZM470.104 207.02H471.104V172.642H470.104H469.104V207.02H470.104ZM470.104 172.642V173.642H528.457V172.642V171.642H470.104V172.642ZM528.457 172.642H527.457V207.034H528.457H529.457V172.642H528.457ZM528.457 207.034V208.034H586.723V207.034V206.034H528.457V207.034ZM586.723 207.034H587.723V172.642H586.723H585.723V207.034H586.723ZM586.723 172.642V173.642H664V172.642V171.642H586.723V172.642ZM664 172.642H663V217.584H664H665V172.642H664ZM653.69 217.582H654.69V181.277H653.69H652.69V217.582H653.69ZM653.69 181.277V180.277H630.536V181.277V182.277H653.69V181.277ZM630.536 181.277H629.536V217.584H630.536H631.536V181.277H630.536ZM620.237 217.582H621.237V216.411H620.237H619.237V217.582H620.237ZM620.237 216.411V215.411H597.827V216.411V217.411H620.237V216.411ZM597.827 216.411H596.827V217.584H597.827H598.827V216.411H597.827ZM582.806 217.582L583.314 216.721C581.957 215.922 580.375 215.461 578.687 215.461V216.461V217.461C580.007 217.461 581.24 217.82 582.298 218.444L582.806 217.582ZM578.687 216.461V215.461H536.361V216.461V217.461H578.687V216.461ZM536.361 216.461V215.461C534.673 215.461 533.09 215.922 531.733 216.725L532.243 217.585L532.752 218.446C533.81 217.82 535.042 217.461 536.361 217.461V216.461ZM518.926 217.582H519.926V216.378H518.926H517.926V217.582H518.926ZM518.926 216.378V215.378H502.67V216.378V217.378H518.926V216.378ZM502.67 216.378H503.67V196.648H502.67H501.67V216.378H502.67ZM502.67 196.648V197.648H519.101V196.648V195.648H502.67V196.648ZM519.101 196.648H520.101V181.19H519.101H518.101V196.648H519.101ZM519.101 181.19V180.19H488.386V181.19V182.19H519.101V181.19ZM488.386 181.19V180.19C483.356 180.19 479.28 184.273 479.28 189.306H480.28H481.28C481.28 185.375 484.463 182.19 488.386 182.19V181.19ZM480.28 189.306H479.28V217.584H480.28H481.28V189.306H480.28ZM466.34 217.582L466.866 216.732C465.477 215.872 463.84 215.378 462.09 215.378V216.378V217.378C463.458 217.378 464.732 217.763 465.814 218.433L466.34 217.582ZM462.09 216.378V215.378H411.732V216.378V217.378H462.09V216.378ZM411.732 216.378H410.732V217.584H411.732H412.732V216.378H411.732ZM397.386 217.582L397.888 216.717C396.547 215.939 394.989 215.494 393.33 215.494V216.494V217.494C394.627 217.494 395.839 217.841 396.884 218.447L397.386 217.582ZM343.088 216.494H342.088V217.584H343.088H344.088V216.494H343.088ZM328.779 217.582L329.281 216.717C327.94 215.939 326.382 215.494 324.723 215.494V216.494V217.494C326.02 217.494 327.233 217.841 328.277 218.447L328.779 217.582ZM324.723 216.494V215.494H282.529V216.494V217.494H324.723V216.494ZM282.529 216.494V215.494C280.871 215.494 279.313 215.939 277.972 216.717L278.474 217.582L278.975 218.447C280.02 217.841 281.233 217.494 282.529 217.494V216.494ZM260.349 217.582L260.855 216.72C259.503 215.926 257.926 215.469 256.244 215.469V216.469V217.469C257.559 217.469 258.788 217.826 259.843 218.445L260.349 217.582ZM206.689 216.469H205.689V217.584H206.689H207.689V216.469H206.689ZM192.458 217.582L192.963 216.719C191.612 215.93 190.04 215.479 188.365 215.479V216.479V217.479C189.677 217.479 190.902 217.832 191.954 218.446L192.458 217.582ZM161.304 216.478H162.304V181.262H161.304H160.304V216.478H161.304ZM161.304 181.262V180.262H138.031V181.262V182.262H161.304V181.262ZM138.031 181.262H137.031V217.584H138.031H139.031V181.262H138.031ZM127.852 217.582H128.852V216.403H127.852H126.852V217.582H127.852ZM127.852 216.403V215.403H86.9775V216.403V217.403H127.852V216.403ZM86.9775 216.403V215.403C85.2445 215.403 83.6234 215.889 82.2452 216.732L82.7669 217.585L83.2886 218.438C84.3618 217.782 85.6232 217.403 86.9775 217.403V216.403ZM69.5094 217.582H70.5094V217.302H69.5094H68.5094V217.582H69.5094ZM19.2229 217.262V216.262C18.3409 216.262 17.4859 216.388 16.6763 216.623L16.9559 217.584L17.2356 218.544C17.8649 218.36 18.5316 218.262 19.2229 218.262V217.262ZM16.9559 217.584L16.956 216.584L3.41965e-05 216.583L0 217.583L-3.41965e-05 218.583L16.9559 218.584L16.9559 217.584ZM597.043 181.201V182.201H620.203V181.201V180.201H597.043V181.201ZM620.203 181.201H619.203V206.974H620.203H621.203V181.201H620.203ZM620.203 206.974V205.974H597.043V206.974V207.974H620.203V206.974ZM597.043 206.974H598.043V181.201H597.043H596.043V206.974H597.043ZM393.33 216.494V215.494H343.088V216.494V217.494H393.33V216.494ZM256.244 216.469V215.469H206.689V216.469V217.469H256.244V216.469ZM188.365 216.479L188.365 215.479L161.304 215.478L161.304 216.478L161.304 217.478L188.365 217.479L188.365 216.479ZM69.5094 217.302L69.5102 216.302L19.2237 216.262L19.2229 217.262L19.2221 218.262L69.5087 218.302L69.5094 217.302ZM61.4153 286.047V285.047H11.1177V286.047V287.047H61.4153V286.047ZM401.435 227.711L400.435 227.711L400.436 242.285L401.436 242.285L402.436 242.285L402.435 227.711L401.435 227.711ZM401.436 224.61L400.436 224.61L400.435 227.711L401.435 227.711L402.435 227.711L402.436 224.611L401.436 224.61ZM11.1177 225.378H10.1177V227.711H11.1177H12.1177V225.378H11.1177Z" fill="#00478A" mask="url(#path-9-inside-1_2592_30)"/>
</svg>
