<svg width="665" height="366" viewBox="0 0 665 366" fill="none" xmlns="http://www.w3.org/2000/svg">
<g clip-path="url(#clip0_2366_2)">
<path d="M273.74 17.97H386.87V130.81L273.74 17.97Z" fill="#D10A10"/>
<path fill-rule="evenodd" clip-rule="evenodd" d="M255.57 0H404.87V148.96H255.57V0ZM263.37 7.69H397.17V141.32H263.37V7.69Z" fill="#00478A"/>
<path fill-rule="evenodd" clip-rule="evenodd" d="M435.82 287.61V318.51H411.74V287.61H0V293.75H401.43V328H445.21V293.7H663.99V287.61H435.81H435.82Z" fill="#00478A"/>
<path fill-rule="evenodd" clip-rule="evenodd" d="M67.35 282.56C65.88 284.18 63.77 285.18 61.41 285.18H11.12V282.56H0V287.61H411.73V282.56H366.27V284.31H343.08V282.56H329.75C328.37 283.65 326.62 284.31 324.71 284.31H282.52C280.62 284.31 278.87 283.65 277.48 282.56H264.34V284.24H241.07V282.56H229.79V284.24H206.68V282.56H196.46V284.27H174.16V282.56H162.14V284.27H138.03V282.56H127.89V284.29H86.99C85.1 284.29 83.36 283.64 81.99 282.56H67.35ZM467.06 282.56C465.69 283.62 463.96 284.25 462.09 284.25H435.82V287.61H664V282.56H653.69V284.3H630.54V282.56H620.24V284.3H597.83V282.56H587.69V284.33H536.37C534.45 284.34 532.68 283.67 531.29 282.56H503.59V284.31H480.29V282.56H467.06Z" fill="#00478A"/>
<path fill-rule="evenodd" clip-rule="evenodd" d="M69.5 277.51C69.36 279.46 68.57 281.22 67.35 282.56H81.99C80.43 281.34 79.33 279.55 79 277.51H69.5ZM127.89 277.51V282.56H138.03V277.51H127.89ZM162.15 277.51V282.56H174.17V277.51H162.15ZM196.47 277.51V282.56H206.69V277.51H196.47ZM229.8 277.51V282.56H241.08V277.51H229.8ZM264.35 277.51V282.56H277.49C275.94 281.33 274.85 279.54 274.52 277.51H264.34H264.35ZM332.73 277.51C332.4 279.54 331.31 281.33 329.76 282.56H343.09V277.51H332.73ZM366.27 277.51V282.56H411.73V277.51H366.27ZM470.08 277.51C469.74 279.55 468.63 281.34 467.05 282.55H480.27V277.51H470.07H470.08ZM503.58 277.51V282.56H531.28C529.74 281.32 528.67 279.54 528.35 277.51H503.58ZM587.68 277.51V282.56H597.82V277.51H587.68ZM620.24 277.51V282.56H630.54V277.51H620.24ZM653.69 277.51V282.56H664V277.51H653.69ZM0 282.56V277.51H11.12V282.56H0Z" fill="#00478A"/>
<path fill-rule="evenodd" clip-rule="evenodd" d="M69.51 227.02V231.23H34.39V241.43H69.52V276.98C69.52 277.16 69.51 277.33 69.5 277.5H78.99C78.92 277.07 78.88 276.63 78.88 276.18V227H69.5V227.02H69.51ZM127.85 227.02V231.23H102.94V268.91H127.89V277.51H138.03V227.02H127.85ZM196.47 227.02V277.51H206.69V227.02H196.47ZM264.35 227.02V277.51H274.53C274.46 277.09 274.43 276.65 274.43 276.22V227.02H264.35ZM332.83 227.02V276.22C332.83 276.66 332.8 277.09 332.73 277.51H343.09V227.02H332.83ZM401.43 227.02V241.55H377.46V232.06H366.26V277.51H411.72V227.02H401.42H401.43ZM470.2 227.02V276.16C470.2 276.62 470.16 277.07 470.09 277.51H480.29V227.02H470.2ZM518.93 227.02V231.95H503.59V277.51H528.36C528.29 277.1 528.26 276.68 528.26 276.25V227.02H518.93ZM586.79 227.02V260.21H552.47V268.9H587.68V277.51H597.82V227.02H586.79ZM620.24 227.02V277.51H630.54V227.02H620.24ZM653.69 227.02V277.51H664V227.02H653.69ZM0 277.51V227.02H11.12V259.42H46.36V268.88H11.12V277.52H0V277.51ZM174.17 277.51V232.07H162.15V277.51H174.17ZM241.08 277.51V232.11H229.8V277.51H241.08ZM552.48 231.99H563.53V241.44H552.48V231.99ZM434.88 231.19H446.89V268.78H434.88V231.19ZM297.63 232.06H309.58V268.77H297.63V232.06Z" fill="#00478A"/>
<path fill-rule="evenodd" clip-rule="evenodd" d="M69.51 221.97V227.02H78.89V223.84C78.89 223.2 78.97 222.57 79.11 221.97H69.51ZM127.85 221.97V227.02H138.03V221.97H127.85ZM196.24 221.97C196.39 222.58 196.47 223.23 196.47 223.89V227.02H206.69V221.97H196.24ZM264.12 221.97C264.27 222.59 264.35 223.24 264.35 223.9V227.02H274.43V223.93C274.43 223.25 274.51 222.6 274.67 221.97H264.12ZM332.59 221.97C332.75 222.59 332.83 223.25 332.83 223.93V227.02H343.09V221.97H332.59ZM401.2 221.97C401.36 222.59 401.44 223.25 401.44 223.93V227.02H411.74V221.97H401.2ZM469.99 221.97C470.13 222.56 470.2 223.18 470.2 223.81V227.02H480.28V221.97H469.99ZM518.93 221.97V227.02H528.26V223.89C528.26 223.23 528.34 222.58 528.49 221.96H518.93V221.97ZM586.56 221.97C586.71 222.59 586.79 223.23 586.79 223.89V227.01H597.83V221.96H586.56V221.97ZM620.24 221.97V227.02H630.54V221.97H620.24ZM653.69 221.97V227.02H664V221.97H653.69ZM0 227.02V221.97H11.59C11.29 222.82 11.12 223.74 11.12 224.69V227.02H0Z" fill="#00478A"/>
<path fill-rule="evenodd" clip-rule="evenodd" d="M69.51 216.92V221.97H79.1C79.6 219.84 80.95 218.03 82.77 216.92H69.51ZM127.85 216.92V221.97H138.03V216.92H127.85ZM192.46 216.92C194.33 218.01 195.72 219.82 196.24 221.97H206.69V216.92H192.46ZM260.35 216.92C262.21 218.01 263.59 219.82 264.12 221.97H274.67C275.21 219.81 276.6 218 278.48 216.92H260.35ZM328.78 216.92C330.65 218 332.05 219.81 332.59 221.97H343.09V216.92H328.78ZM397.39 216.92C399.26 218 400.66 219.81 401.2 221.97H411.74V216.93H397.39V216.92ZM466.34 216.92C468.15 218.03 469.49 219.84 469.99 221.97H480.28V216.92H466.34ZM518.93 216.92V221.97H528.49C529.01 219.83 530.39 218.02 532.25 216.92H518.93ZM582.81 216.92C584.66 218.02 586.04 219.82 586.56 221.97H597.83V216.92H582.81ZM620.24 216.92V221.97H630.54V216.92H620.24ZM653.69 216.92V221.97H664V216.92H653.69ZM0 221.97V216.92H16.96C14.46 217.65 12.46 219.54 11.59 221.97H0Z" fill="#00478A"/>
<path fill-rule="evenodd" clip-rule="evenodd" d="M0 216.92V206.41H127.86V172.13H170.69V206.39H470.1V172.12H528.45V206.41H586.72V172.12H664V216.93H653.69V180.73H630.54V216.93H620.24V215.76H597.83V216.93H582.81C581.6 216.22 580.19 215.81 578.69 215.81H536.36C534.86 215.81 533.45 216.22 532.24 216.93H518.92V215.73H502.66V196.06H519.09V180.65H488.37C483.89 180.65 480.26 184.27 480.26 188.74V216.93H466.32C465.08 216.17 463.63 215.73 462.07 215.73H411.71V216.93H397.36C396.17 216.24 394.78 215.84 393.3 215.84H343.06V216.93H328.75C327.56 216.24 326.17 215.84 324.69 215.84H282.5C281.02 215.84 279.64 216.24 278.45 216.93H260.33C259.13 216.23 257.72 215.82 256.22 215.82H206.67V216.93H192.44C191.24 216.23 189.84 215.83 188.35 215.83H161.29V180.72H138.02V216.93H127.84V215.75H86.97C85.43 215.75 83.99 216.18 82.76 216.93H69.5V216.65L23.77 216.61H19.21C18.42 216.61 17.66 216.72 16.94 216.93H0V216.92ZM597.04 180.65H620.2V206.34H597.04V180.65Z" fill="#00478A"/>
<path d="M627.58 325.65V321.22H645.05V325.65H638.54V346.64H634.09V325.65H627.58Z" fill="#00478A"/>
<path d="M606.83 334.06C606.83 336.8 606.39 339.14 605.52 341.07C604.66 342.99 603.48 344.47 601.99 345.49C600.5 346.5 598.83 347 596.97 347C595.11 347 593.42 346.5 591.93 345.48C590.44 344.46 589.27 342.99 588.41 341.06C587.55 339.14 587.11 336.8 587.11 334.07C587.11 331.34 587.55 328.99 588.41 327.06C589.27 325.13 590.45 323.66 591.93 322.66C593.42 321.64 595.1 321.14 596.97 321.14C598.84 321.14 600.5 321.64 601.99 322.66C603.49 323.67 604.66 325.14 605.52 327.06C606.39 328.98 606.83 331.32 606.83 334.07V334.06ZM602.32 334.06C602.32 332.28 602.09 330.78 601.65 329.56C601.21 328.34 600.59 327.41 599.79 326.78C598.99 326.15 598.05 325.83 596.97 325.83C595.89 325.83 594.95 326.15 594.15 326.78C593.35 327.41 592.72 328.33 592.28 329.56C591.84 330.78 591.63 332.28 591.63 334.06C591.63 335.84 591.85 337.34 592.28 338.56C592.73 339.78 593.35 340.71 594.15 341.34C594.95 341.97 595.89 342.29 596.97 342.29C598.05 342.29 598.99 341.97 599.79 341.34C600.59 340.71 601.22 339.79 601.65 338.56C602.1 337.34 602.32 335.84 602.32 334.06Z" fill="#00478A"/>
<path d="M569.12 346.65V321.23H577.51C579.12 321.23 580.5 321.6 581.63 322.34C582.77 323.07 583.63 324.08 584.23 325.38C584.83 326.67 585.13 328.16 585.13 329.85C585.13 331.54 584.82 333.03 584.22 334.32C583.62 335.61 582.73 336.62 581.57 337.34C580.42 338.06 579.03 338.42 577.39 338.42H572.04V334.11H576.66C577.53 334.11 578.24 333.93 578.8 333.58C579.37 333.21 579.79 332.72 580.07 332.08C580.35 331.43 580.5 330.69 580.5 329.86C580.5 329.03 580.36 328.28 580.07 327.65C579.79 327.01 579.37 326.52 578.8 326.17C578.23 325.81 577.51 325.64 576.64 325.64H573.61V346.67H569.11V346.65H569.12Z" fill="#00478A"/>
<path d="M561.89 328.82C561.81 327.84 561.46 327.07 560.84 326.53C560.22 325.99 559.37 325.71 558.31 325.71C557.59 325.71 556.98 325.83 556.48 326.07C555.98 326.31 555.6 326.64 555.34 327.06C555.08 327.48 554.96 327.97 554.96 328.5C554.96 328.95 555.03 329.34 555.2 329.67C555.38 330 555.62 330.29 555.93 330.54C556.24 330.78 556.59 330.98 556.99 331.16C557.39 331.33 557.83 331.48 558.28 331.6L560.16 332.14C561.08 332.39 561.91 332.71 562.68 333.11C563.45 333.51 564.11 334.02 564.67 334.62C565.23 335.21 565.66 335.92 565.97 336.72C566.29 337.53 566.44 338.45 566.45 339.5C566.45 341.04 566.12 342.36 565.47 343.49C564.83 344.6 563.9 345.48 562.68 346.09C561.47 346.7 560.02 347.01 558.31 347.01C556.6 347.01 555.15 346.7 553.89 346.08C552.64 345.46 551.66 344.54 550.97 343.33C550.27 342.11 549.91 340.59 549.88 338.79H554.16C554.21 339.63 554.41 340.33 554.76 340.9C555.12 341.45 555.61 341.87 556.2 342.16C556.81 342.44 557.49 342.57 558.26 342.57C559.03 342.57 559.66 342.44 560.21 342.18C560.77 341.92 561.2 341.56 561.51 341.09C561.82 340.63 561.97 340.1 561.97 339.48C561.97 338.92 561.83 338.45 561.55 338.06C561.27 337.68 560.88 337.35 560.34 337.09C559.82 336.82 559.17 336.58 558.41 336.36L556.13 335.67C554.37 335.16 552.97 334.35 551.94 333.26C550.92 332.17 550.41 330.7 550.41 328.85C550.41 327.33 550.74 326.01 551.42 324.88C552.11 323.75 553.05 322.86 554.26 322.23C555.47 321.6 556.82 321.27 558.35 321.27C559.88 321.27 561.27 321.59 562.42 322.23C563.58 322.87 564.5 323.75 565.14 324.88C565.78 326.01 566.12 327.32 566.14 328.82H561.9H561.92H561.89Z" fill="#00478A"/>
<path d="M469.93 325.65V321.22H487.4V325.65H480.89V346.64H476.44V325.65H469.93Z" fill="#00478A"/>
<path d="M530.33 346.59V321.27H535.63L542.38 336.28H542.45V321.27H546.88V346.59H542.24L534.83 330.25H534.76V346.59H530.33Z" fill="#00478A"/>
<path d="M516.01 336.99H520.83L518.48 326.75H518.41L516.02 336.99H516.01ZM509.09 346.6L515.38 321.28H521.6L527.71 346.6H523.07L521.84 341.27H515.13L513.76 346.6H509.09Z" fill="#00478A"/>
<path d="M494.8 332.29H497.29C499.43 332.29 500.73 331.24 500.73 328.78C500.73 326.32 499.43 325.27 497.29 325.27H494.8V332.28V332.29ZM501.34 346.59L497.12 336.28H494.8V346.59H489.95V321.27H496.97C502.8 321.27 505.58 324.07 505.58 328.84C505.58 332 504.46 334.28 501.75 335.29L506.53 346.58H501.33H501.34V346.59Z" fill="#00478A"/>
<path d="M614.53 332.29H617.02C619.16 332.29 620.46 331.24 620.46 328.78C620.46 326.32 619.16 325.27 617.02 325.27H614.53V332.28V332.29ZM621.06 346.6L616.84 336.29H614.52V346.6H609.67V321.28H616.69C622.52 321.28 625.3 324.08 625.3 328.85C625.3 332.01 624.18 334.29 621.47 335.3L626.25 346.59H621.05L621.06 346.6Z" fill="#00478A"/>
<path d="M656.58 321.13V358.29H469.93V365.9H664.2V321.13H656.58Z" fill="#00478A"/>
</g>
<defs>
<clipPath id="clip0_2366_2">
<rect width="665" height="366" fill="white"/>
</clipPath>
</defs>
</svg>
