<svg width="665" height="366" viewBox="0 0 665 366" fill="none" xmlns="http://www.w3.org/2000/svg">
<path d="M664.201 365.897H469.931V358.286H656.577V316.884H664.201V365.897Z" fill="#00478A"/>
<path d="M474.978 327.896H477.473C479.615 327.896 480.915 326.843 480.915 324.388C480.915 321.933 479.615 320.882 477.473 320.882H474.978V327.896ZM481.513 342.204L477.297 331.893H474.978V342.204H470.131V316.884H477.156C482.989 316.884 485.762 319.688 485.762 324.458C485.762 327.614 484.639 329.895 481.934 330.912L486.711 342.204H481.513Z" fill="#00478A"/>
<path d="M489.94 342.204V316.884H494.787V326.983H501.639V316.884H506.486V342.204H501.639V331.262H494.787V342.204H489.94Z" fill="#00478A"/>
<path d="M511.12 342.204V316.884H524.4V321.162H515.968V326.983H522.396V331.262H515.968V337.926H524.75V342.204H511.12Z" fill="#00478A"/>
<path d="M528.964 342.204V316.884H533.812V342.204H528.964Z" fill="#00478A"/>
<path d="M538.727 342.204V316.884H544.032L550.777 331.893H550.847V316.884H555.273V342.204H550.636L543.224 325.862H543.153V342.204H538.727Z" fill="#00478A"/>
<path d="M559.24 334.594V330.736H567.883V334.594H559.24Z" fill="#00478A"/>
<path d="M571.887 342.204V316.884H578.666L583.059 333.506H583.126L587.518 316.884H594.298V342.204H590.148V322.283H590.08L584.917 342.204H581.268L576.099 322.283H576.031V342.204H571.887Z" fill="#00478A"/>
<path d="M604.124 332.596H608.939L606.585 322.354H606.517L604.124 332.596ZM597.209 342.204L603.494 316.884H609.71L615.825 342.204H611.186L609.958 336.875H603.246L601.877 342.204H597.209Z" fill="#00478A"/>
<path d="M618.737 342.204V316.884H623.585V342.204H618.737Z" fill="#00478A"/>
<path d="M628.501 342.204V316.884H633.805L640.551 331.893H640.624V316.884H645.05V342.204H640.41L633 325.862H632.927V342.204H628.501Z" fill="#00478A"/>
<path d="M273.739 17.9651H386.873V130.807L273.739 17.9651Z" fill="#D10A10"/>
<path fill-rule="evenodd" clip-rule="evenodd" d="M255.566 -1.52588e-05H404.868V148.964H255.566V-1.52588e-05ZM263.369 7.68524H397.171V141.312H263.369V7.68524Z" fill="#00478A"/>
<path fill-rule="evenodd" clip-rule="evenodd" d="M435.816 287.608V318.512H411.732V287.608L0 287.608V293.747H401.434V328H445.218V293.701H664V287.608L435.816 287.608Z" fill="#00478A"/>
<path fill-rule="evenodd" clip-rule="evenodd" d="M67.3507 282.559C65.8766 284.174 63.771 285.178 61.4153 285.178H61.1158H11.1177V282.559L0 282.559V287.608L411.732 287.608V282.56L366.274 282.559V284.306H343.088V282.559L329.761 282.559C328.378 283.653 326.627 284.309 324.723 284.309H282.529C280.625 284.309 278.875 283.653 277.492 282.557L264.349 282.559V284.242H241.08V282.559L229.8 282.559V284.242H206.689V282.559L196.471 282.559V284.27H174.168V282.559L162.146 282.559V284.27H138.031V282.559L127.888 282.559V284.291H88.8574L86.9901 284.287C85.102 284.287 83.3643 283.642 81.9863 282.561L67.3507 282.559ZM467.056 282.559C465.685 283.618 463.961 284.251 462.09 284.251L435.816 284.248V287.608L664 287.608V282.559L653.69 282.559V284.294H630.536V282.559L620.237 282.559V284.302H597.827V282.559L587.685 282.559V284.33L536.361 284.342C534.439 284.342 532.671 283.673 531.282 282.556L503.583 282.559V284.306H480.28V282.559L467.056 282.559Z" fill="#00478A"/>
<path fill-rule="evenodd" clip-rule="evenodd" d="M69.4987 277.51C69.3571 279.465 68.5701 281.221 67.3507 282.558L81.9863 282.559C80.4255 281.337 79.3263 279.553 78.9919 277.512L69.4987 277.51ZM127.888 277.51V282.559L138.031 282.559V277.511L127.888 277.51ZM162.146 277.51V282.559L174.168 282.559V277.511L162.146 277.51ZM196.471 277.51V282.559L206.689 282.559V277.511L196.471 277.51ZM229.8 277.51V282.559L241.08 282.559V277.511L229.8 277.51ZM264.349 277.51V282.559L277.492 282.559C275.942 281.327 274.853 279.543 274.526 277.506L264.349 277.51ZM332.726 277.51C332.399 279.543 331.311 281.327 329.761 282.556L343.088 282.559V277.511L332.726 277.51ZM366.274 277.51V282.559L411.732 282.559V277.511L366.274 277.51ZM470.083 277.51C469.74 279.552 468.629 281.336 467.056 282.554L480.28 282.559V277.511L470.083 277.51ZM503.583 277.51V282.559L531.282 282.559C529.746 281.321 528.671 279.539 528.354 277.507L503.583 277.51ZM587.685 277.51V282.559L597.827 282.559V277.511L587.685 277.51ZM620.237 277.51V282.559L630.536 282.559V277.511L620.237 277.51ZM653.69 277.51V282.559L664 282.559V277.509L653.69 277.51ZM0 282.559V277.511L11.1177 277.51V282.559L0 282.559Z" fill="#00478A"/>
<path fill-rule="evenodd" clip-rule="evenodd" d="M69.5094 227.019V231.231H34.3859V241.432H69.5208V276.987C69.5183 277.163 69.5107 277.337 69.4987 277.51L78.9919 277.51C78.9217 277.083 78.8851 276.644 78.8851 276.195V227.02L69.5094 227.019ZM127.852 227.019V231.231H102.94V268.912H127.888V277.51L138.031 277.51V227.021L127.852 227.019ZM196.471 227.019V277.51L206.689 277.51V227.021L196.471 227.019ZM264.349 227.019V277.51L274.526 277.51C274.459 277.086 274.424 276.655 274.424 276.217V227.02L264.349 227.019ZM332.828 227.019V276.217C332.828 276.655 332.794 277.086 332.726 277.505L343.088 277.51V227.02L332.828 227.019ZM401.435 227.019V237.041L401.436 241.549H377.469V232.064H366.274V277.51L411.732 277.51V227.02L401.435 227.019ZM470.196 227.019V276.159C470.196 276.619 470.157 277.07 470.083 277.509L480.28 277.51V227.02L470.196 227.019ZM518.926 227.019V231.948H503.583V277.51L528.354 277.51C528.289 277.097 528.256 276.678 528.256 276.251V227.02L518.926 227.019ZM586.793 227.019L586.798 260.213H552.477V268.905H587.685V277.51L597.827 277.51V227.02L586.793 227.019ZM620.237 227.019V277.51H630.536V227.022L620.237 227.019ZM653.69 227.019V277.51L664 277.51V227.02L653.69 227.019ZM0 277.51V227.02L11.1177 227.019V259.416H46.3597V268.871H11.1177V277.51L0 277.51ZM174.168 277.51V232.07H162.146V277.51L174.168 277.51ZM241.08 277.51V232.111H229.8V277.511L241.08 277.51ZM552.477 231.987H563.527V241.438H552.477V231.987ZM434.881 231.19H446.894V268.778H434.881V231.19ZM297.631 232.064H309.585V268.778H297.631V232.064Z" fill="#00478A"/>
<path fill-rule="evenodd" clip-rule="evenodd" d="M69.5094 221.97V227.02L78.8851 227.019V223.837C78.8851 223.193 78.9603 222.567 79.1019 221.967L69.5094 221.97ZM127.852 221.97V227.019H138.031V221.972L127.852 221.97ZM196.24 221.97C196.391 222.584 196.471 223.228 196.471 223.892V227.02L206.689 227.019V221.971L196.24 221.97ZM264.117 221.97C264.269 222.59 264.349 223.237 264.349 223.902V227.02L274.424 227.019V223.928C274.424 223.252 274.507 222.595 274.664 221.967L264.117 221.97ZM332.589 221.97C332.746 222.595 332.828 223.252 332.828 223.928V227.02L343.088 227.019V221.971L332.589 221.97ZM401.196 221.97C401.352 222.595 401.436 223.252 401.436 223.928L401.435 225.766V227.02L411.732 227.019V221.972L401.196 221.97ZM469.986 221.97C470.123 222.563 470.196 223.179 470.196 223.812V227.02L480.28 227.019V221.972L469.986 221.97ZM518.926 221.97V227.02L528.256 227.019V223.894C528.256 223.231 528.337 222.587 528.487 221.969L518.926 221.97ZM586.561 221.97C586.712 222.587 586.792 223.231 586.792 223.894L586.793 227.019H597.827V221.971L586.561 221.97ZM620.237 221.97V227.019H630.536V221.972L620.237 221.97ZM653.69 221.97V227.02L664 227.019V221.971L653.69 221.97ZM0 227.019V221.971L11.5881 221.97C11.2836 222.821 11.1177 223.738 11.1177 224.693V224.894V227.019H0Z" fill="#00478A"/>
<path fill-rule="evenodd" clip-rule="evenodd" d="M69.5094 216.921V221.971L79.1019 221.97C79.6051 219.837 80.9496 218.032 82.7669 216.924L69.5094 216.921ZM127.852 216.921V221.971L138.031 221.97V216.923L127.852 216.921ZM192.458 216.921C194.324 218.008 195.714 219.817 196.24 221.968L206.689 221.97V216.922L192.458 216.921ZM260.349 216.921C262.207 218.015 263.591 219.825 264.117 221.971L274.664 221.97C275.201 219.815 276.599 218.004 278.474 216.921H260.349ZM328.779 216.921C330.653 218.004 332.053 219.815 332.589 221.968L343.088 221.97V216.922L328.779 216.921ZM397.386 216.921C399.26 218.004 400.66 219.815 401.196 221.968L411.732 221.97V216.923L397.386 216.921ZM466.34 216.921C468.151 218.035 469.489 219.842 469.986 221.972L480.28 221.97V216.922L466.34 216.921ZM518.926 216.921V221.971L528.487 221.97C529.011 219.826 530.39 218.018 532.243 216.924L518.926 216.921ZM582.806 216.921C584.659 218.018 586.037 219.826 586.561 221.969L597.827 221.97V216.922L582.806 216.921ZM620.237 216.921V221.97H630.536V216.923L620.237 216.921ZM653.69 216.921V221.971L664 221.97V216.922L653.69 216.921ZM0 221.97V216.922L16.9559 216.921C14.4578 217.647 12.4577 219.54 11.5881 221.97H0Z" fill="#00478A"/>
<path fill-rule="evenodd" clip-rule="evenodd" d="M0 216.921V206.415H127.865V172.13H170.692V206.391H470.104V172.118H528.457V206.404H586.723V172.118H664V216.923L653.69 216.921V180.726H630.536V216.922L620.237 216.921V215.753H597.827V216.922L582.806 216.921C581.599 216.212 580.191 215.803 578.687 215.803H536.361C534.858 215.803 533.45 216.212 532.243 216.924L518.926 216.921V215.72H502.67V196.051H519.101V180.639H488.386C483.909 180.639 480.28 184.262 480.28 188.731V216.922L466.34 216.921C465.104 216.159 463.649 215.72 462.09 215.72H411.732V216.923L397.386 216.921C396.193 216.231 394.808 215.836 393.33 215.836H391.855H343.088V216.922L328.779 216.921C327.586 216.231 326.201 215.836 324.723 215.836H282.529C281.052 215.836 279.666 216.231 278.474 216.921H260.349C259.145 216.217 257.743 215.811 256.244 215.811H254.779H250.217H206.689V216.922L192.458 216.921C191.257 216.222 189.858 215.821 188.365 215.821H183.418L182.503 215.82H161.304V180.711H138.031V216.923L127.852 216.921V215.745H86.9775C85.4338 215.745 83.9926 216.176 82.7669 216.923L69.5094 216.921V216.641L23.7781 216.602H19.2229C18.4362 216.602 17.6754 216.713 16.9559 216.922L0 216.921ZM597.043 180.651H620.203V206.344H597.043V180.651Z" fill="#00478A"/>
</svg>
