<svg width="987" height="350" viewBox="0 0 987 350" fill="none" xmlns="http://www.w3.org/2000/svg">
<g clip-path="url(#clip0_1201_653)">
<path d="M58.8243 168.029L0 4.75017H25.2862L53.2338 85.1787C60.6874 107.225 67.3423 127.327 72.3988 146.225H72.9319C77.9877 127.327 85.1748 106.738 93.4252 85.42L123.77 4.75017H148.525L84.3761 168.029H58.8243Z" fill="#444142"/>
<path d="M166.62 142.352C177.002 148.407 191.908 153.009 207.877 153.009C231.569 153.009 245.409 141.867 245.409 125.146C245.409 110.13 235.827 101.167 211.603 92.9304C182.324 83.2391 164.225 69.1904 164.225 46.418C164.225 20.9777 187.383 2.08223 222.252 2.08223C240.35 2.08223 253.927 5.95697 261.647 10.0797L255.256 27.2769C249.669 24.1284 237.689 19.5252 221.451 19.5252C196.965 19.5252 187.648 32.8521 187.648 43.9914C187.648 59.2578 198.561 66.7682 223.318 75.4874C253.659 86.3876 268.833 99.4709 268.833 123.452C268.833 148.647 248.603 170.695 206.282 170.695C188.98 170.695 170.081 165.848 160.5 160.033L166.62 142.352Z" fill="#444142"/>
<path d="M323.93 152.041C328.724 152.769 335.112 153.009 343.365 153.009C367.318 153.009 389.411 145.018 389.411 121.271C389.411 99.2274 368.384 89.7819 343.095 89.7819H323.93V152.041ZM323.93 74.0328H344.959C369.18 74.0328 383.556 62.1606 383.556 46.418C383.556 27.5204 367.851 19.7709 344.429 19.7709C333.778 19.7709 327.658 20.4972 323.93 21.2212V74.0328ZM300.773 7.17029C310.889 4.98938 327.127 3.53691 343.095 3.53691C366.254 3.53691 381.16 7.1703 392.074 15.4069C401.391 21.7061 407.246 31.3974 407.246 44.2371C407.246 60.2254 395.533 74.0328 376.9 80.0884V80.8169C393.934 84.4525 413.897 97.2922 413.897 121.517C413.897 135.568 407.777 146.226 398.46 154.222C386.217 164.64 365.988 169.482 336.709 169.482C320.736 169.482 308.493 168.518 300.773 167.545V7.17029Z" fill="#444142"/>
<path d="M561.793 0.634064V39.0744H594.868C594.868 16.8176 594.868 0.634064 594.868 0.634064H561.793ZM561.793 140.072C561.793 140.072 565.499 181.776 525.86 203.751C486.226 225.732 465.893 235.708 465.893 290.911H499.163C499.163 261.273 498.498 228.033 526.17 211.358C572.687 183.315 594.868 175.614 594.868 126.311V55.0978H561.793V140.072Z" fill="#F47216"/>
<path d="M519.163 140.072C519.163 140.072 522.873 181.776 483.225 203.751C443.591 225.732 423.258 235.708 423.258 290.911H456.528C456.528 261.273 455.865 228.033 483.535 211.358C530.053 183.315 552.233 175.614 552.233 126.311V55.0978H519.163V140.072ZM519.163 0.634064V39.0744H552.233C552.233 16.8176 552.233 0.634064 552.233 0.634064H519.163Z" fill="#F47216"/>
<path d="M477.155 140.072C477.155 140.072 480.863 181.776 441.218 203.751C401.584 225.732 381.25 235.708 381.25 290.911H414.52C414.52 261.273 413.855 228.033 441.527 211.358C488.045 183.315 510.226 175.614 510.226 126.311V55.0978H477.155V140.072ZM477.155 0.634064V39.0744H510.226C510.226 16.8176 510.226 0.634064 510.226 0.634064H477.155Z" fill="#F47216"/>
<path d="M628.321 86.2143C628.321 74.2653 628.082 64.8966 627.371 55.5213H645.827L647.009 74.0327H647.483C653.158 63.4902 666.411 52.9454 685.342 52.9454C701.19 52.9454 725.797 62.3207 725.797 101.206V168.912H704.976V103.552C704.976 85.2752 698.119 69.8157 678.478 69.8157C664.991 69.8157 654.343 79.4214 650.561 90.8986C649.615 93.4745 649.139 97.2242 649.139 100.502V168.912H628.321V86.2143Z" fill="#F47216"/>
<path d="M761.524 168.912V71.2221H745.668V55.5213H761.524V50.1348C761.524 34.2036 765.306 19.6787 775.011 10.547C782.821 3.04979 793.228 0.00222778 802.689 0.00222778C810.26 0.00222778 816.413 1.64339 820.437 3.28017L817.835 19.2114C814.522 17.805 810.499 16.6355 804.346 16.6355C786.84 16.6355 782.108 32.095 782.108 49.4327V55.5213H809.79V71.2221H782.343V168.912H761.524Z" fill="#F47216"/>
<path d="M828.954 90.8986C828.954 77.5477 828.714 66.066 828.006 55.5213H846.225L847.17 77.778H847.881C853.089 62.5511 865.865 52.9454 879.824 52.9454C881.952 52.9454 883.608 53.1824 885.499 53.6497V72.8589C883.136 72.6285 881.008 72.3916 878.17 72.3916C863.496 72.3916 853.089 83.4015 850.25 98.6306C849.772 101.676 849.537 104.956 849.537 108.471V168.912H828.714L828.954 90.8986Z" fill="#F47216"/>
<path d="M964.997 111.047C942.286 110.58 916.494 114.562 916.494 136.584C916.494 150.168 925.486 156.258 935.893 156.258C951.037 156.258 960.742 146.89 964.054 137.286C964.765 135.178 964.997 132.83 964.997 130.721V111.047ZM985.349 141.734C985.349 151.574 985.82 161.177 987.005 168.912H968.308L966.421 154.621H965.71C959.557 163.525 947.018 171.488 930.694 171.488C907.504 171.488 895.676 155.323 895.676 138.928C895.676 111.514 920.278 96.5221 964.526 96.7569V94.4136C964.526 85.0449 961.926 67.9398 938.504 68.1746C927.614 68.1746 916.494 71.2222 908.45 76.6086L903.72 62.7881C913.184 56.9277 927.143 52.9455 941.573 52.9455C976.828 52.9455 985.349 76.6087 985.349 99.3328V141.734Z" fill="#F47216"/>
<path d="M10.0315 341.052L0.09375 313.769H4.3655L9.08802 327.21C10.3468 330.894 11.4711 334.253 12.3263 337.411H12.4163C13.2698 334.253 14.4849 330.81 15.8783 327.249L21.0061 313.769H25.1871L14.3495 341.052H10.0315Z" fill="#444142"/>
<path d="M42.2326 329.314C42.2772 327.087 41.1974 323.526 36.7911 323.526C32.743 323.526 31.0343 326.846 30.7198 329.314H42.2326ZM30.6743 331.864C30.7643 336.682 34.1371 338.665 38.0953 338.665C40.9274 338.665 42.6823 338.22 44.1203 337.693L44.8401 340.204C43.4469 340.772 41.0175 341.458 37.5554 341.458C30.8996 341.458 26.8516 337.452 26.8516 331.581C26.8516 325.63 30.7643 320.975 37.1057 320.975C44.2103 320.975 46.0552 326.601 46.0552 330.205C46.0552 330.934 46.0098 331.499 45.9198 331.903L30.6743 331.864Z" fill="#444142"/>
<path d="M52.755 327.574C52.755 325.266 52.7096 323.283 52.5742 321.462H56.0379L56.218 325.308H56.3525C57.3414 322.675 59.7698 321.016 62.4229 321.016C62.8275 321.016 63.1427 321.055 63.5027 321.137V324.456C63.0528 324.415 62.6474 324.376 62.1092 324.376C59.3208 324.376 57.3414 326.277 56.8015 328.909C56.7116 329.435 56.667 330.001 56.667 330.611V341.052H52.7096L52.755 327.574Z" fill="#444142"/>
<path d="M73.3049 330.446H73.3949C73.9347 329.76 74.6547 328.869 75.2845 328.221L81.7156 321.462H86.4372L78.0276 329.518L87.6062 341.052H82.7945L75.3299 331.622L73.3049 333.687V341.052H69.3477V312.312H73.3049V330.446Z" fill="#444142"/>
<path d="M106.314 329.314C106.36 327.087 105.279 323.526 100.873 323.526C96.8248 323.526 95.117 326.846 94.8016 329.314H106.314ZM94.7562 331.864C94.847 336.682 98.2198 338.665 102.176 338.665C105.011 338.665 106.764 338.22 108.203 337.693L108.923 340.204C107.53 340.772 105.1 341.458 101.638 341.458C94.9817 341.458 90.9336 337.452 90.9336 331.581C90.9336 325.63 94.847 320.975 101.188 320.975C108.293 320.975 110.137 326.601 110.137 330.205C110.137 330.934 110.093 331.499 110.003 331.903L94.7562 331.864Z" fill="#444142"/>
<path d="M116.793 312.312H120.749V324.537H120.839C121.469 323.526 122.459 322.594 123.672 322.028C124.842 321.38 126.237 321.016 127.72 321.016C130.643 321.016 135.32 322.636 135.32 329.395V341.052H131.363V329.802C131.363 326.601 130.059 323.969 126.327 323.969C123.762 323.969 121.784 325.591 121.019 327.533C120.795 328.02 120.749 328.544 120.749 329.233V341.052H116.793V312.312Z" fill="#444142"/>
<path d="M143.551 327.574C143.551 325.266 143.506 323.283 143.371 321.462H146.834L147.014 325.308H147.148C148.137 322.675 150.566 321.016 153.219 321.016C153.624 321.016 153.939 321.055 154.298 321.137V324.456C153.849 324.415 153.444 324.376 152.905 324.376C150.117 324.376 148.137 326.277 147.597 328.909C147.507 329.435 147.463 330.001 147.463 330.611V341.052H143.506L143.551 327.574Z" fill="#444142"/>
<path d="M159.424 337.452C160.638 338.1 162.706 338.827 164.685 338.827C167.518 338.827 168.868 337.571 168.868 335.914C168.868 334.211 167.743 333.281 164.864 332.309C160.908 331.014 159.064 329.113 159.064 326.765C159.064 323.605 161.941 321.016 166.574 321.016C168.778 321.016 170.711 321.543 171.881 322.229L170.936 324.779C170.081 324.334 168.508 323.647 166.485 323.647C164.145 323.647 162.887 324.862 162.887 326.319C162.887 327.978 164.145 328.706 166.978 329.678C170.711 330.934 172.69 332.634 172.69 335.589C172.69 339.069 169.677 341.5 164.595 341.5C162.211 341.5 160.008 340.932 158.479 340.122L159.424 337.452Z" fill="#444142"/>
<path d="M190.994 331.056C186.677 330.975 181.775 331.662 181.775 335.468C181.775 337.816 183.483 338.868 185.463 338.868C188.339 338.868 190.184 337.248 190.814 335.589C190.949 335.222 190.994 334.821 190.994 334.455V331.056ZM194.861 336.357C194.861 338.058 194.951 339.719 195.176 341.052H191.624L191.264 338.584H191.129C189.959 340.122 187.577 341.5 184.473 341.5C180.066 341.5 177.816 338.705 177.816 335.872C177.816 331.135 182.494 328.544 190.904 328.585V328.18C190.904 326.561 190.409 323.605 185.957 323.647C183.888 323.647 181.775 324.173 180.246 325.104L179.346 322.716C181.146 321.703 183.798 321.016 186.543 321.016C193.244 321.016 194.861 325.104 194.861 329.031V336.357Z" fill="#444142"/>
<path d="M202.955 326.765C202.955 324.698 202.911 323.081 202.775 321.462H206.284L206.51 324.658H206.6C207.679 322.837 210.196 321.016 213.795 321.016C216.808 321.016 221.483 322.636 221.483 329.353V341.052H217.527V329.76C217.527 326.601 216.223 323.93 212.491 323.93C209.926 323.93 207.904 325.591 207.184 327.574C207.004 328.02 206.914 328.667 206.914 329.233V341.052H202.955V326.765Z" fill="#444142"/>
<path d="M229.67 312.312H233.63V341.052H229.67V312.312Z" fill="#444142"/>
<path d="M253.412 331.056C249.095 330.975 244.194 331.662 244.194 335.468C244.194 337.816 245.903 338.868 247.881 338.868C250.76 338.868 252.605 337.248 253.232 335.589C253.368 335.222 253.412 334.821 253.412 334.455V331.056ZM257.282 336.357C257.282 338.058 257.372 339.719 257.595 341.052H254.041L253.682 338.584H253.548C252.379 340.122 249.994 341.5 246.892 341.5C242.485 341.5 240.236 338.705 240.236 335.872C240.236 331.135 244.913 328.544 253.322 328.585V328.18C253.322 326.561 252.828 323.605 248.375 323.647C246.309 323.647 244.194 324.173 242.665 325.104L241.765 322.716C243.564 321.703 246.219 321.016 248.961 321.016C255.66 321.016 257.282 325.104 257.282 329.031V336.357Z" fill="#444142"/>
<path d="M280.038 329.154C280.038 328.585 279.992 328.059 279.813 327.574C279.093 325.468 277.204 323.768 274.282 323.768C270.505 323.768 267.806 326.642 267.806 331.217C267.806 335.021 270.011 338.259 274.236 338.259C276.708 338.259 278.913 336.883 279.723 334.575C279.949 334.01 280.038 333.322 280.038 332.674V329.154ZM283.996 338.18C283.996 342.713 282.961 345.425 280.892 347.167C278.733 348.907 275.677 349.515 272.933 349.515C270.325 349.515 267.447 348.947 265.692 347.896L266.681 345.142C268.12 345.992 270.371 346.72 273.067 346.72C277.114 346.72 280.082 344.817 280.082 339.84V337.693H279.992C278.823 339.515 276.441 340.972 273.067 340.972C267.67 340.972 263.803 336.842 263.803 331.379C263.803 324.74 268.616 321.016 273.653 321.016C277.428 321.016 279.453 322.758 280.442 324.376H280.532L280.668 321.462H284.176C284.04 322.837 283.996 324.415 283.996 326.804V338.18Z" fill="#444142"/>
<path d="M306.076 329.314C306.119 327.087 305.04 323.526 300.633 323.526C296.588 323.526 294.877 326.846 294.563 329.314H306.076ZM294.517 331.864C294.607 336.682 297.981 338.665 301.938 338.665C304.77 338.665 306.525 338.22 307.964 337.693L308.684 340.204C307.291 340.772 304.86 341.458 301.398 341.458C294.743 341.458 290.695 337.452 290.695 331.581C290.695 325.63 294.607 320.975 300.949 320.975C308.054 320.975 309.897 326.601 309.897 330.205C309.897 330.934 309.853 331.499 309.763 331.903L294.517 331.864Z" fill="#444142"/>
<path d="M316.549 326.765C316.549 324.698 316.505 323.081 316.369 321.462H319.879L320.103 324.658H320.193C321.274 322.837 323.791 321.016 327.39 321.016C330.402 321.016 335.079 322.636 335.079 329.353V341.052H331.122V329.76C331.122 326.601 329.817 323.93 326.085 323.93C323.521 323.93 321.498 325.591 320.779 327.574C320.599 328.02 320.509 328.667 320.509 329.233V341.052H316.549V326.765Z" fill="#444142"/>
<path d="M357.566 331.379C355.002 331.379 352.889 329.518 352.889 327.129C352.843 324.779 355.002 322.876 357.61 322.876C360.219 322.876 362.331 324.74 362.331 327.129C362.331 329.477 360.219 331.379 357.61 331.379H357.566Z" fill="#444142"/>
<path d="M379.914 336.761C381.669 337.775 384.187 338.544 386.886 338.544C390.889 338.544 393.226 336.682 393.226 333.889C393.226 331.379 391.607 329.882 387.515 328.505C382.569 326.885 379.513 324.537 379.513 320.733C379.513 316.481 383.424 313.326 389.314 313.326C392.372 313.326 394.667 313.973 395.97 314.66L394.891 317.534C393.947 317.007 391.923 316.239 389.18 316.239C385.043 316.239 383.468 318.464 383.468 320.328C383.468 322.877 385.313 324.132 389.494 325.591C394.621 327.412 397.183 329.598 397.183 333.606C397.183 337.816 393.767 341.5 386.616 341.5C383.694 341.5 380.5 340.688 378.881 339.719L379.914 336.761Z" fill="#444142"/>
<path d="M419.716 340.366C418.681 340.811 416.386 341.5 413.464 341.5C406.898 341.5 402.627 337.489 402.627 331.457C402.627 325.426 407.212 321.016 414.32 321.016C416.656 321.016 418.727 321.543 419.806 322.067L418.907 324.779C417.961 324.334 416.476 323.851 414.32 323.851C409.327 323.851 406.628 327.21 406.628 331.298C406.628 335.833 409.864 338.623 414.184 338.623C416.432 338.623 417.915 338.139 419.04 337.693L419.716 340.366Z" fill="#444142"/>
<path d="M426.1 312.312H430.059V324.537H430.149C430.779 323.526 431.766 322.594 432.981 322.028C434.151 321.38 435.546 321.016 437.029 321.016C439.951 321.016 444.628 322.636 444.628 329.395V341.052H440.67V329.802C440.67 326.601 439.367 323.969 435.636 323.969C433.071 323.969 431.093 325.591 430.329 327.533C430.103 328.02 430.059 328.544 430.059 329.233V341.052H426.1V312.312Z" fill="#444142"/>
<path d="M471.026 335.71C471.026 337.735 471.072 339.515 471.206 341.052H467.7L467.474 337.854H467.384C466.395 339.433 464.057 341.5 460.189 341.5C456.771 341.5 452.678 339.758 452.678 332.917V321.462H456.637V332.27C456.637 335.993 457.94 338.544 461.494 338.544C464.147 338.544 465.989 336.883 466.711 335.264C466.935 334.779 467.071 334.131 467.071 333.443V321.462H471.026V335.71Z" fill="#444142"/>
<path d="M484.113 316.764V321.462H489.779V324.173H484.113V334.738C484.113 337.167 484.876 338.544 487.081 338.544C488.16 338.544 488.79 338.464 489.375 338.301L489.555 341.013C488.79 341.255 487.574 341.5 486.045 341.5C484.203 341.5 482.717 340.932 481.774 340.001C480.695 338.909 480.243 337.167 480.243 334.858V324.173H476.871V321.462H480.243V317.859L484.113 316.764Z" fill="#444142"/>
<path d="M493.512 338.988L503.362 327.451C504.351 326.359 505.204 325.426 506.242 324.376V324.294H494.411V321.462H511.004V323.686L501.249 335.103C500.35 336.155 499.45 337.167 498.461 338.139V338.22H511.184V341.052H493.512V338.988Z" fill="#444142"/>
<path d="M516.447 337.452C517.66 338.1 519.729 338.827 521.708 338.827C524.54 338.827 525.891 337.571 525.891 335.914C525.891 334.211 524.768 333.281 521.888 332.309C517.93 331.014 516.087 329.113 516.087 326.765C516.087 323.605 518.966 321.016 523.599 321.016C525.801 321.016 527.736 321.543 528.903 322.229L527.96 324.779C527.107 324.334 525.531 323.647 523.509 323.647C521.168 323.647 519.909 324.862 519.909 326.319C519.909 327.978 521.168 328.706 524 329.678C527.736 330.934 529.713 332.634 529.713 335.589C529.713 339.069 526.701 341.5 521.618 341.5C519.235 341.5 517.031 340.932 515.504 340.122L516.447 337.452Z" fill="#444142"/>
<path d="M537.989 321.462L542.712 333.038C543.252 334.335 543.792 335.872 544.152 337.046H544.241C544.643 335.872 545.095 334.374 545.634 332.956L549.952 321.462H554.135L548.197 335.426C545.365 342.145 543.432 345.588 540.732 347.731C538.753 349.229 536.864 349.838 535.877 350L534.887 347.003C535.877 346.761 537.18 346.193 538.349 345.263C539.428 344.495 540.732 343.119 541.679 341.296C541.855 340.932 541.991 340.688 541.991 340.447C541.991 340.243 541.901 339.96 541.679 339.556L533.67 321.462H537.989Z" fill="#444142"/>
<path d="M558.766 337.452C559.979 338.1 562.047 338.827 564.026 338.827C566.858 338.827 568.21 337.571 568.21 335.914C568.21 334.211 567.086 333.281 564.206 332.309C560.248 331.014 558.406 329.113 558.406 326.765C558.406 323.605 561.284 321.016 565.917 321.016C568.12 321.016 570.054 321.543 571.221 322.229L570.278 324.779C569.425 324.334 567.85 323.647 565.827 323.647C563.486 323.647 562.227 324.862 562.227 326.319C562.227 327.978 563.486 328.706 566.319 329.678C570.054 330.934 572.031 332.634 572.031 335.589C572.031 339.069 569.019 341.5 563.936 341.5C561.554 341.5 559.349 340.932 557.822 340.122L558.766 337.452Z" fill="#444142"/>
<path d="M583.634 316.764V321.462H589.303V324.173H583.634V334.738C583.634 337.167 584.397 338.544 586.602 338.544C587.684 338.544 588.313 338.464 588.895 338.301L589.075 341.013C588.313 341.255 587.096 341.5 585.567 341.5C583.724 341.5 582.241 340.932 581.293 340.001C580.214 338.909 579.764 337.167 579.764 334.858V324.173H576.393V321.462H579.764V317.859L583.634 316.764Z" fill="#444142"/>
<path d="M609.042 329.314C609.088 327.087 608.009 323.526 603.599 323.526C599.556 323.526 597.845 326.846 597.529 329.314H609.042ZM597.486 331.864C597.576 336.682 600.947 338.665 604.907 338.665C607.739 338.665 609.492 338.22 610.931 337.693L611.65 340.204C610.26 340.772 607.829 341.458 604.367 341.458C597.709 341.458 593.664 337.452 593.664 331.581C593.664 325.63 597.575 320.975 603.918 320.975C611.021 320.975 612.864 326.601 612.864 330.205C612.864 330.934 612.822 331.499 612.732 331.903L597.486 331.864Z" fill="#444142"/>
<path d="M619.52 326.765C619.52 324.698 619.43 323.081 619.34 321.462H622.802L622.981 324.619H623.12C624.333 322.758 626.353 321.016 630.001 321.016C632.923 321.016 635.172 322.636 636.115 324.944H636.205C636.876 323.809 637.778 323 638.677 322.394C639.983 321.501 641.376 321.016 643.447 321.016C646.369 321.016 650.64 322.716 650.64 329.518V341.052H646.775V329.962C646.775 326.156 645.197 323.93 642.054 323.93C639.757 323.93 638.048 325.426 637.326 327.129C637.146 327.655 637.015 328.303 637.015 328.909V341.052H633.145V329.314C633.145 326.156 631.616 323.93 628.604 323.93C626.173 323.93 624.333 325.712 623.703 327.494C623.479 328.02 623.389 328.625 623.389 329.233V341.052H619.52V326.765Z" fill="#444142"/>
<path d="M672.587 329.314C672.633 327.087 671.554 323.526 667.144 323.526C663.099 323.526 661.39 326.846 661.074 329.314H672.587ZM661.03 331.864C661.12 336.682 664.492 338.665 668.452 338.665C671.284 338.665 673.037 338.22 674.476 337.693L675.195 340.204C673.802 340.772 671.374 341.458 667.912 341.458C661.254 341.458 657.209 337.452 657.209 331.581C657.209 325.63 661.12 320.975 667.462 320.975C674.566 320.975 676.408 326.601 676.408 330.205C676.408 330.934 676.365 331.499 676.275 331.903L661.03 331.864Z" fill="#444142"/>
<path d="M697.365 331.379C694.803 331.379 692.69 329.518 692.69 327.129C692.642 324.779 694.803 322.876 697.411 322.876C700.017 322.876 702.132 324.74 702.132 327.129C702.132 329.477 700.017 331.379 697.411 331.379H697.365Z" fill="#444142"/>
<path d="M724.122 338.383C724.932 338.503 726.011 338.544 727.404 338.544C731.454 338.544 735.185 337.207 735.185 333.242C735.185 329.556 731.634 327.978 727.36 327.978H724.122V338.383ZM724.122 325.348H727.674C731.765 325.348 734.196 323.364 734.196 320.733C734.196 317.574 731.544 316.279 727.584 316.279C725.785 316.279 724.752 316.4 724.122 316.523V325.348ZM720.211 314.173C721.92 313.809 724.662 313.567 727.36 313.567C731.274 313.567 733.792 314.173 735.635 315.55C737.208 316.604 738.197 318.224 738.197 320.369C738.197 323.039 736.223 325.348 733.073 326.359V326.481C735.951 327.087 739.325 329.233 739.325 333.281C739.325 335.629 738.287 337.411 736.714 338.747C734.646 340.488 731.226 341.296 726.281 341.296C723.583 341.296 721.512 341.136 720.211 340.972V314.173Z" fill="#444142"/>
<path d="M760.189 329.314C760.233 327.087 759.153 323.526 754.748 323.526C750.699 323.526 748.99 326.846 748.676 329.314H760.189ZM748.63 331.864C748.72 336.682 752.092 338.665 756.051 338.665C758.884 338.665 760.638 338.22 762.08 337.693L762.799 340.204C761.402 340.772 758.973 341.458 755.51 341.458C748.856 341.458 744.809 337.452 744.809 331.581C744.809 325.63 748.72 320.975 755.06 320.975C762.17 320.975 764.01 326.601 764.01 330.205C764.01 330.934 763.964 331.499 763.874 331.903L748.63 331.864Z" fill="#444142"/>
<path d="M775.435 316.764V321.462H781.103V324.173H775.435V334.738C775.435 337.167 776.196 338.544 778.403 338.544C779.482 338.544 780.112 338.464 780.695 338.301L780.875 341.013C780.112 341.255 778.897 341.5 777.365 341.5C775.525 341.5 774.042 340.932 773.094 340.001C772.015 338.909 771.565 337.167 771.565 334.858V324.173H768.193V321.462H771.565V317.859L775.435 316.764Z" fill="#444142"/>
<path d="M796.03 338.827C799.81 338.827 802.642 335.629 802.642 331.175C802.642 327.857 800.799 323.686 796.12 323.686C791.489 323.686 789.466 327.574 789.466 331.298C789.466 335.589 792.164 338.827 795.988 338.827H796.03ZM795.898 341.5C790.05 341.5 785.465 337.612 785.465 331.421C785.465 324.862 790.276 321.016 796.258 321.016C802.508 321.016 806.733 325.104 806.733 331.056C806.733 338.341 801.113 341.5 795.94 341.5H795.898Z" fill="#444142"/>
<path d="M813.477 326.765C813.477 324.698 813.435 323.081 813.297 321.462H816.807L817.033 324.658H817.123C818.204 322.837 820.718 321.016 824.318 321.016C827.33 321.016 832.009 322.636 832.009 329.353V341.052H828.05V329.76C828.05 326.601 826.747 323.93 823.015 323.93C820.448 323.93 818.426 325.591 817.706 327.574C817.526 328.02 817.436 328.667 817.436 329.233V341.052H813.477V326.765Z" fill="#444142"/>
<path d="M844.781 316.764V321.462H850.445V324.173H844.781V334.738C844.781 337.167 845.544 338.544 847.744 338.544C848.826 338.544 849.455 338.464 850.041 338.301L850.221 341.013C849.455 341.255 848.242 341.5 846.713 341.5C844.871 341.5 843.383 340.932 842.44 340.001C841.361 338.909 840.911 337.167 840.911 334.858V324.173H837.539V321.462H840.911V317.859L844.781 316.764Z" fill="#444142"/>
<path d="M870.189 329.314C870.231 327.087 869.151 323.526 864.746 323.526C860.699 323.526 858.988 326.846 858.676 329.314H870.189ZM858.628 331.864C858.718 336.682 862.09 338.665 866.049 338.665C868.882 338.665 870.639 338.22 872.078 337.693L872.797 340.204C871.402 340.772 868.971 341.458 865.51 341.458C858.856 341.458 854.807 337.452 854.807 331.581C854.807 325.63 858.718 320.975 865.06 320.975C872.168 320.975 874.01 326.601 874.01 330.205C874.01 330.934 873.964 331.499 873.874 331.903L858.628 331.864Z" fill="#444142"/>
<path d="M896.181 340.366C895.146 340.811 892.853 341.5 889.931 341.5C883.363 341.5 879.09 337.489 879.09 331.457C879.09 325.426 883.679 321.016 890.785 321.016C893.123 321.016 895.192 321.543 896.273 322.067L895.372 324.779C894.426 324.334 892.943 323.851 890.785 323.851C885.792 323.851 883.093 327.21 883.093 331.298C883.093 335.833 886.331 338.623 890.651 338.623C892.895 338.623 894.382 338.139 895.505 337.693L896.181 340.366Z" fill="#444142"/>
<path d="M902.568 312.312H906.526V324.537H906.616C907.245 323.526 908.233 322.594 909.448 322.028C910.619 321.38 912.01 321.016 913.498 321.016C916.42 321.016 921.094 322.636 921.094 329.395V341.052H917.139V329.802C917.139 326.601 915.834 323.969 912.1 323.969C909.538 323.969 907.559 325.591 906.796 327.533C906.57 328.02 906.526 328.544 906.526 329.233V341.052H902.568V312.312Z" fill="#444142"/>
<path d="M929.276 326.765C929.276 324.698 929.234 323.081 929.096 321.462H932.606L932.834 324.658H932.924C934.003 322.837 936.517 321.016 940.117 321.016C943.129 321.016 947.808 322.636 947.808 329.353V341.052H943.848V329.76C943.848 326.601 942.545 323.93 938.814 323.93C936.247 323.93 934.225 325.591 933.505 327.574C933.325 328.02 933.235 328.667 933.235 329.233V341.052H929.276V326.765Z" fill="#444142"/>
<path d="M955.991 341.052V321.462H959.951V341.052H955.991ZM957.88 317.859C956.395 317.859 955.41 316.806 955.41 315.55C955.41 314.296 956.441 313.284 957.972 313.284C959.501 313.284 960.491 314.296 960.491 315.55C960.491 316.806 959.501 317.859 957.924 317.859H957.88Z" fill="#444142"/>
<path d="M972.227 330.446H972.317C972.857 329.76 973.576 328.869 974.206 328.221L980.638 321.462H985.359L976.948 329.518L986.528 341.052H981.717L974.248 331.622L972.227 333.687V341.052H968.268V312.312H972.227V330.446Z" fill="#444142"/>
</g>
<defs>
<clipPath id="clip0_1201_653">
<rect width="987" height="350" fill="white"/>
</clipPath>
</defs>
</svg>
