<svg width="664" height="329" viewBox="0 0 664 329" fill="none" xmlns="http://www.w3.org/2000/svg">
<path d="M73.5 2H165L176 193L194 43H257L271 198L287 43H338L304 277H242L224 146L204 277H138L120 35H112C112 35 108.671 96.639 96.0412 136.199C83.4116 175.761 71.4441 198.399 59.1399 233.516C51.7873 254.5 48 258 45 290C152.494 290 455 290 455 290V325H0C0 325 3.96894 251.467 20.6391 212.78C37.3092 174.093 57.155 148.104 62.9104 118.145C68.6657 88.188 73.1987 2 73 2H73.5Z" fill="#00478A"/>
<path d="M352 43L323 277H370L372 234.95H386L389 277H433L411 43H352ZM380 97L387 190.053H373L380 97Z" fill="#00478A"/>
<path d="M442 43H492V232H525V277L442 277V43Z" fill="#00478A"/>
<path d="M537 43H587V232H620V277L537 277V43Z" fill="#00478A"/>
<path d="M465 313.226L475.368 312.602C475.594 314.218 476.051 315.45 476.741 316.296C477.863 317.666 479.467 318.351 481.553 318.351C483.108 318.351 484.304 318.005 485.138 317.312C485.988 316.604 486.414 315.788 486.414 314.865C486.414 313.988 486.011 313.203 485.21 312.51C484.407 311.817 482.546 311.163 479.628 310.548C474.847 309.516 471.439 308.146 469.401 306.438C467.348 304.73 466.322 302.552 466.322 299.904C466.322 298.165 466.845 296.526 467.887 294.987C468.945 293.432 470.525 292.216 472.627 291.339C474.744 290.446 477.639 290 481.312 290C485.818 290 489.252 290.808 491.611 292.424C493.985 294.025 495.396 296.58 495.845 300.089L485.569 300.666C485.297 299.142 484.72 298.034 483.837 297.342C482.972 296.649 481.769 296.303 480.229 296.303C478.961 296.303 478.009 296.565 477.367 297.088C476.726 297.596 476.405 298.219 476.405 298.958C476.405 299.497 476.669 299.981 477.198 300.412C477.711 300.859 478.93 301.274 480.855 301.659C485.618 302.644 489.026 303.645 491.079 304.66C493.15 305.661 494.649 306.907 495.578 308.4C496.525 309.893 497 311.563 497 313.41C497 315.58 496.374 317.581 495.121 319.413C493.872 321.245 492.124 322.637 489.878 323.592C487.633 324.531 484.8 325 481.384 325C475.386 325 471.231 323.892 468.921 321.675C466.612 319.459 465.305 316.642 465 313.226Z" fill="#BC0000"/>
<path d="M504 290H539V298.643H527.257V325H515.743V298.643H504V290Z" fill="#BC0000"/>
<path d="M544 307.523C544 301.998 545.624 297.696 548.872 294.617C552.12 291.539 556.641 290 562.438 290C568.383 290 572.961 291.516 576.178 294.548C579.392 297.565 581 301.798 581 307.246C581 311.202 580.293 314.449 578.882 316.989C577.485 319.513 575.455 321.483 572.792 322.899C570.144 324.3 566.839 325 562.877 325C558.849 325 555.513 324.392 552.865 323.176C550.236 321.96 548.1 320.036 546.458 317.404C544.818 314.772 544 311.479 544 307.523ZM555.032 307.569C555.032 310.986 555.7 313.441 557.031 314.934C558.379 316.427 560.206 317.174 562.513 317.174C564.883 317.174 566.717 316.442 568.016 314.98C569.315 313.518 569.965 310.894 569.965 307.108C569.965 303.922 569.284 301.597 567.92 300.135C566.572 298.658 564.737 297.919 562.414 297.919C560.19 297.919 558.402 298.665 557.057 300.158C555.708 301.651 555.032 304.122 555.032 307.569Z" fill="#BC0000"/>
<path d="M589 290H607.764C611.853 290 614.91 290.931 616.935 292.793C618.979 294.655 620 297.306 620 300.744C620 304.277 618.886 307.038 616.661 309.028C614.452 311.018 611.071 312.012 606.518 312.012H600.337V325H589V290ZM600.337 304.922H603.104C605.282 304.922 606.81 304.563 607.69 303.847C608.57 303.115 609.011 302.184 609.011 301.054C609.011 299.956 608.628 299.025 607.865 298.261C607.1 297.497 605.662 297.115 603.554 297.115H600.337V304.922Z" fill="#BC0000"/>
<path d="M635.649 6.04117C619.977 6.04117 607.241 18.4762 607.241 33.8166C607.241 49.157 619.977 61.5909 635.649 61.592C651.319 61.592 663.989 49.157 663.989 33.8166C663.989 18.4762 651.319 6.04117 635.649 6.04117ZM635.649 12.2906C647.813 12.2906 657.668 21.9093 657.668 33.8166C657.668 45.7239 647.813 55.412 635.649 55.412C623.486 55.4109 613.631 45.7239 613.631 33.8166C613.631 21.9093 623.486 12.2906 635.649 12.2906Z" fill="#00478A"/>
<path d="M629.423 23.4259V32.2585H636.269C638.272 32.2585 639.709 31.9085 640.581 31.2058C641.451 30.503 641.887 29.3671 641.887 27.7922C641.887 26.259 641.459 25.148 640.6 24.4591C639.756 23.7703 638.35 23.4259 636.389 23.4259H629.423ZM624.722 19.3873H637.108C637.486 19.3873 637.9 19.404 638.358 19.429C638.5 19.4401 638.586 19.4484 638.611 19.4484C641.145 19.4484 643.129 20.1567 644.56 21.5733C646.004 22.9898 646.724 24.9396 646.724 27.4228C646.724 29.0476 646.368 30.4392 645.652 31.5946C644.938 32.7529 643.923 33.5861 642.609 34.0916C643.779 34.4694 644.618 35.0665 645.124 35.8859C645.646 36.6914 645.952 38.0107 646.043 39.8439L646.296 43.9603C646.296 43.9714 646.296 43.9853 646.296 43.9991C646.374 45.7934 646.771 46.885 647.485 47.2739V48.1127H642.143C641.934 47.7349 641.77 47.2933 641.654 46.7878C641.548 46.2656 641.47 45.4462 641.42 44.3297L641.265 40.8966C641.159 39.0523 640.77 37.8247 640.092 37.2136C639.428 36.6025 638.297 36.297 636.7 36.297H635.783H629.462V48.1127H624.722V19.3901" fill="#00478A"/>
</svg>
